<?xml version="1.0" encoding="UTF-8"?>
<!DOCTYPE svg PUBLIC "-//W3C//DTD SVG 1.1//EN" "http://www.w3.org/Graphics/SVG/1.1/DTD/svg11.dtd">
<!-- Creator: CorelDRAW -->
<svg xmlns="http://www.w3.org/2000/svg" xml:space="preserve" width="8.5in" height="11in" version="1.1" style="shape-rendering:geometricPrecision; text-rendering:geometricPrecision; image-rendering:optimizeQuality; fill-rule:evenodd; clip-rule:evenodd"
viewBox="0 0 8500 11000"
 xmlns:xlink="http://www.w3.org/1999/xlink"
 xmlns:xodm="http://www.corel.com/coreldraw/odm/2003">
 <defs>
  <style type="text/css">
   <![CDATA[
    .fil1 {fill:#FEFEFE}
    .fil0 {fill:#FEFEFE;fill-rule:nonzero}
   ]]>
  </style>
 </defs>
 <g id="Layer_x0020_1">
  <metadata id="CorelCorpID_0Corel-Layer"/>
  <path class="fil0" d="M1754.43 5952.26l0 -919.36 222.42 0 24.1 172.38 0 0c22.24,-39.54 49.74,-73.83 82.48,-102.87 32.74,-29.05 70.44,-51.59 113.07,-67.66 42.63,-16.06 89.28,-24.09 139.94,-24.09l0 265.05 -68.58 0c-38.31,0 -73.83,4.33 -106.58,12.98 -32.75,8.65 -60.85,22.85 -84.34,42.63 -23.48,19.77 -41.39,46.65 -53.75,80.63 -12.36,33.97 -18.53,76.92 -18.53,128.82l0 411.48 -250.23 0zm1121.39 430.03c-87.73,0 -164.65,-10.81 -230.76,-32.44 -66.12,-21.63 -117.09,-54.37 -152.92,-98.23 -35.83,-43.88 -53.75,-97.93 -53.75,-162.19 0,-43.24 11.12,-83.72 33.36,-121.4 22.24,-37.69 54.68,-72.29 97.31,-103.8 42.63,-31.51 95.46,-58.39 158.48,-80.63l92.68 124.19c-55.61,18.53 -95.77,41.7 -120.48,69.5 -24.72,27.81 -37.07,56.54 -37.07,86.19 0,29.66 9.57,54.07 28.73,73.22 19.15,19.15 44.79,33.36 76.92,42.63 32.13,9.27 67.96,13.9 107.5,13.9 38.31,0 71.68,-4.95 100.09,-14.83 28.42,-9.88 50.97,-24.41 67.66,-43.56 16.68,-19.15 25.02,-41.09 25.02,-65.8 0,-33.36 -11.74,-60.24 -35.22,-80.63 -23.48,-20.38 -69.2,-33.06 -137.16,-37.99 -63.02,-4.94 -118.63,-12.35 -166.82,-22.25 -48.19,-9.89 -90.52,-21 -126.96,-33.36 -36.46,-12.35 -67.66,-26.56 -93.61,-42.63 -25.95,-16.07 -46.34,-32.13 -61.16,-48.19l0 -42.63 198.32 -215.02 174.24 57.46 -229.84 231.69 72.29 -122.34c12.35,8.65 25.33,16.37 38.92,23.17 13.59,6.8 29.96,12.67 49.12,17.61 19.15,4.94 44.17,9.57 75.07,13.9 30.89,4.33 70.43,8.96 118.62,13.91 81.56,6.17 148.28,21 200.18,44.48 51.9,23.48 90.21,54.99 114.92,94.53 24.72,39.54 37.07,87.12 37.07,142.72 0,54.37 -14.83,105.97 -44.48,154.77 -29.66,48.81 -75.69,88.36 -138.09,118.63 -62.4,30.28 -141.79,45.41 -238.19,45.41zm1.86 -702.5c-77.85,0 -144.89,-14.83 -201.11,-44.48 -56.22,-29.66 -99.48,-69.82 -129.75,-120.48 -30.28,-50.67 -45.41,-106.89 -45.41,-168.67 0,-61.79 15.14,-118.02 45.41,-168.68 30.27,-50.66 73.52,-91.13 129.75,-121.4 56.22,-30.27 123.26,-45.41 201.11,-45.41 77.84,0 144.88,15.14 201.1,45.41 56.22,30.28 99.17,70.74 128.82,121.4 29.66,50.67 44.49,106.89 44.49,168.68 0,61.78 -14.83,118.01 -44.49,168.67 -29.65,50.66 -72.6,90.82 -128.82,120.48 -56.22,29.65 -123.26,44.48 -201.1,44.48zm0 -190.91c46.95,0 85.26,-12.05 114.91,-36.15 29.66,-24.09 44.49,-59.62 44.49,-106.57 0,-45.72 -14.83,-80.63 -44.49,-104.73 -29.65,-24.09 -67.96,-36.14 -114.91,-36.14 -46.96,0 -85.58,12.05 -115.85,36.14 -30.28,24.1 -45.41,59 -45.41,104.73 0,46.95 15.14,82.48 45.41,106.57 30.27,24.1 68.89,36.15 115.85,36.15zm150.13 -279.89l-40.78 -176.08 385.54 0 0 148.28 -344.76 27.8zm869.31 765.52c-77.85,0 -142.41,-12.35 -193.69,-37.07 -51.29,-24.71 -89.28,-58.07 -113.99,-100.09 -24.71,-42.02 -37.07,-88.35 -37.07,-139.01 0,-56.85 14.52,-106.58 43.55,-149.21 29.05,-42.63 73.22,-76.31 132.53,-101.02 59.31,-24.71 134.07,-37.07 224.28,-37.07l231.69 0c0,-44.49 -6.49,-81.24 -19.46,-110.29 -12.98,-29.04 -32.75,-50.67 -59.31,-64.87 -26.57,-14.2 -60.24,-21.31 -101.02,-21.31 -48.19,0 -89.28,10.5 -123.26,31.51 -33.98,21 -55.3,53.13 -63.95,96.38l-242.81 0c7.41,-67.97 30.28,-126.67 68.58,-176.09 38.31,-49.43 88.97,-87.74 151.99,-114.92 63.02,-27.18 132.84,-40.77 209.45,-40.77 87.73,0 163.72,14.51 227.98,43.55 64.26,29.05 113.99,71.68 149.21,127.9 35.22,56.22 52.83,124.5 52.83,204.81l0 565.33 -211.31 0 -27.8 -142.72 0 0c-12.35,24.71 -28.11,46.95 -47.26,66.73 -19.15,19.76 -41.09,37.07 -65.8,51.89 -24.71,14.83 -52.52,26.27 -83.41,34.29 -30.89,8.03 -64.88,12.05 -101.95,12.05zm59.32 -192.76c33.36,0 62.7,-5.88 88.04,-17.61 25.33,-11.74 46.95,-27.5 64.87,-47.27 17.92,-19.77 32.13,-42.63 42.63,-68.58 10.51,-25.95 17.61,-53.75 21.32,-83.41l0 0 -192.77 0c-38.31,0 -69.51,4.64 -93.6,13.9 -24.1,9.27 -41.71,22.25 -52.83,38.93 -11.12,16.68 -16.68,36.14 -16.68,58.38 0,22.25 5.56,41.4 16.68,57.46 11.12,16.07 27.19,28.12 48.19,36.15 21.01,8.03 45.73,12.05 74.15,12.05zm702.49 170.52l0 -919.36 220.57 0 18.53 153.84 0 0c28.43,-53.14 69.2,-95.77 122.34,-127.89 53.14,-32.13 116.77,-48.19 190.91,-48.19 76.61,0 141.48,16.37 194.62,49.12 53.14,32.74 93.92,80.62 122.34,143.65 28.42,63.02 42.63,140.87 42.63,233.55l0 515.28 -250.23 0 0 -493.04c0,-76.61 -15.44,-135.31 -46.34,-176.08 -30.89,-40.78 -79.7,-61.17 -146.43,-61.17 -42.01,0 -79.7,10.19 -113.06,30.58 -33.37,20.39 -59.32,49.43 -77.85,87.12 -18.54,37.69 -27.8,83.72 -27.8,138.09l0 474.5 -250.23 0zm1145.49 0l0 -919.36 250.23 0 0 919.36 -250.23 0zm124.19 -1052.82c-44.48,0 -81.24,-13.28 -110.28,-39.85 -29.04,-26.56 -43.56,-60.24 -43.56,-101.01 0,-40.78 14.52,-74.46 43.56,-101.02 29.04,-26.57 65.8,-39.85 110.28,-39.85 45.72,0 83.1,13.29 112.14,39.85 29.04,26.56 43.56,60.24 43.56,101.02 0,40.77 -14.52,74.45 -43.56,101.01 -29.04,26.57 -66.43,39.85 -112.14,39.85zm311.39 1052.82l0 -200.18 463.39 -511.59 -457.83 0 0 -207.59 743.28 0 0 200.18 -468.94 511.57 478.21 0 0 207.6 -758.11 0zm1406.84 22.24c-93.91,0 -177.01,-19.77 -249.3,-59.31 -72.29,-39.54 -128.82,-95.15 -169.6,-166.82 -40.78,-71.67 -61.17,-153.84 -61.17,-246.52 0,-96.38 20.08,-181.33 60.24,-254.86 40.17,-73.52 96.39,-131.3 168.67,-173.3 72.29,-42.02 156.63,-63.02 253.01,-63.02 91.44,0 172.07,19.77 241.89,59.31 69.82,39.54 124.18,93.6 163.11,162.18 38.92,68.58 58.38,146.13 58.38,232.62 0,12.36 0,26.26 0,41.71 0,15.44 -1.24,31.2 -3.7,47.26l-761.81 0 0 -153.84 511.57 0c-3.71,-55.61 -25.02,-100.71 -63.95,-135.31 -38.92,-34.6 -87.43,-51.9 -145.5,-51.9 -43.24,0 -82.79,9.58 -118.63,28.73 -35.83,19.15 -64.25,47.88 -85.26,86.19 -21,38.31 -31.51,86.5 -31.51,144.58l0 53.75c0,49.43 9.89,92.67 29.66,129.75 19.77,37.07 47.26,65.48 82.48,85.26 35.22,19.77 75.07,29.65 119.55,29.65 45.73,0 84.04,-10.19 114.92,-30.58 30.9,-20.39 54.37,-46.65 70.44,-78.77l255.78 0c-18.53,58.07 -48.19,110.91 -88.97,158.47 -40.77,47.58 -90.82,85.26 -150.13,113.07 -59.31,27.8 -126.04,41.7 -200.19,41.7z"/>
  <path class="fil1" d="M1493.42 4766.9c0.76,136.3 -0.24,272.72 -0.09,409.04 0.09,64.32 22.47,113.85 22.59,187.28 0.11,63.14 -10.29,123.43 -30.45,176.98 -206.35,548.15 -999.94,391.39 -1004.19,-170.48 -0.56,-73.25 20.44,-122.48 20.44,-187.25 0.01,-131.18 7.2,-286.17 -1.35,-414.42 -99.97,44.89 -146.84,218.46 -80.7,347.31 30.55,59.5 -82.34,174.24 -2.81,428.87 178.6,571.82 985,565.49 1161.85,4.88 80.49,-255.12 -28.46,-376.8 -3.64,-429.43 31.55,-66.92 47.88,-120.59 27.11,-204.99 -17.83,-72.5 -54.71,-123.22 -108.77,-147.8z"/>
  <path class="fil1" d="M645.54 4664.37c-70.7,18.24 -94.25,48.71 -94.24,130.2 0.01,64.83 -8.49,413.36 6.94,447.03 20.47,44.65 91.78,82.79 159.34,60.56 124.32,-40.93 89.78,-222.82 89.78,-358.91 0,-60.63 9.01,-166.81 -15.22,-213.69 -22.91,-44.32 -79.17,-82.59 -146.61,-65.19z"/>
  <path class="fil1" d="M1299.74 4661.61c-144.56,27.5 -110,199.55 -110,339.78 0,104.49 -35.24,329.87 151.33,305.86 68.17,-8.78 103.98,-52.08 104.46,-118.24 0.45,-61.09 4.61,-419.66 -3.14,-450.57 -11.04,-44.03 -78.64,-89 -142.66,-76.82z"/>
 </g>
</svg>
