<svg version="1.1" id="Layer_1" xmlns="http://www.w3.org/2000/svg" xmlns:xlink="http://www.w3.org/1999/xlink" x="0px" y="0px"
	 width="100%" viewBox="0 0 400 400" enable-background="new 0 0 400 400" xml:space="preserve">
<path fill="#0C0203" opacity="1.000000" stroke="none" 
	d="
M267.000000,401.000000 
	C178.027649,401.000000 89.555305,401.000000 1.041477,401.000000 
	C1.041477,267.735992 1.041477,134.471954 1.041477,1.103967 
	C134.222290,1.103967 267.444672,1.103967 400.833557,1.103967 
	C400.833557,134.333160 400.833557,267.666565 400.833557,401.000000 
	C356.472015,401.000000 311.986023,401.000000 267.000000,401.000000 
M297.500183,109.438164 
	C213.871750,109.454849 130.243256,109.512283 46.615059,109.382339 
	C41.831646,109.374908 40.882420,110.939499 40.892944,115.364334 
	C41.028870,172.505066 40.982944,229.646240 40.982983,286.787292 
	C40.982986,288.427551 40.982983,290.067780 40.982983,292.136475 
	C147.799942,292.136475 254.139923,292.136475 360.643616,292.136475 
	C360.791656,290.647888 361.003357,289.510925 361.003632,288.373901 
	C361.019043,230.233292 360.988525,172.092636 361.083893,113.952187 
	C361.089752,110.382507 359.879456,109.408951 356.471588,109.427673 
	C337.148346,109.533844 317.824127,109.454544 297.500183,109.438164 
z"/>
<path fill="#BAB3B3" opacity="1.000000" stroke="none" 
	d="
M298.000183,109.438271 
	C317.824127,109.454544 337.148346,109.533844 356.471588,109.427673 
	C359.879456,109.408951 361.089752,110.382507 361.083893,113.952187 
	C360.988525,172.092636 361.019043,230.233292 361.003632,288.373901 
	C361.003357,289.510925 360.791656,290.647888 360.643616,292.136475 
	C254.139923,292.136475 147.799942,292.136475 40.982983,292.136475 
	C40.982983,290.067780 40.982986,288.427551 40.982983,286.787292 
	C40.982944,229.646240 41.028870,172.505066 40.892944,115.364334 
	C40.882420,110.939499 41.831646,109.374908 46.615059,109.382339 
	C130.243256,109.512283 213.871750,109.454849 298.000183,109.438271 
M289.499969,290.189636 
	C312.438934,290.189636 335.377869,290.189636 358.546265,290.189636 
	C358.546265,230.529633 358.546265,171.451874 358.546265,112.090240 
	C253.430634,112.090240 148.558517,112.090240 43.454544,112.090240 
	C43.454544,171.466522 43.454544,230.544281 43.454544,290.190247 
	C125.298363,290.190247 206.899155,290.190247 289.499969,290.189636 
z"/>
<path fill="#0E0506" opacity="1.000000" stroke="none" 
	d="
M288.999939,290.189941 
	C206.899155,290.190247 125.298363,290.190247 43.454544,290.190247 
	C43.454544,230.544281 43.454544,171.466522 43.454544,112.090240 
	C148.558517,112.090240 253.430634,112.090240 358.546265,112.090240 
	C358.546265,171.451874 358.546265,230.529633 358.546265,290.189636 
	C335.377869,290.189636 312.438934,290.189636 288.999939,290.189941 
M322.959534,270.969086 
	C322.959534,270.969086 323.019928,270.938934 322.847321,270.253448 
	C319.365570,268.412323 317.187286,269.684814 316.152252,273.213898 
	C314.936127,277.360443 316.573181,281.911774 319.641571,282.403625 
	C321.058990,282.630829 322.997559,282.119843 324.107788,281.216156 
	C326.277496,279.450073 325.393494,273.016968 322.959534,270.969086 
M331.886841,279.911255 
	C331.720581,279.772614 331.554321,279.633942 331.800720,278.959991 
	C332.764587,277.817627 334.381226,276.757812 334.538635,275.513489 
	C334.771759,273.670288 334.589325,270.795715 333.448303,270.010712 
	C332.087982,269.074890 329.528168,269.882599 327.488007,269.934967 
	C327.569031,270.365875 327.650085,270.796783 327.731110,271.227692 
	C329.347595,271.558685 330.964081,271.889709 332.580566,272.220734 
	C331.748993,273.918213 331.037567,275.689728 330.050537,277.291351 
	C329.149353,278.753601 327.949585,280.031860 326.469940,281.914856 
	C333.085999,281.914856 338.781799,281.914856 344.477631,281.914856 
	C344.504791,281.673462 344.531982,281.432037 344.559143,281.190643 
	C343.245422,280.867920 341.931732,280.545197 340.573303,280.211487 
	C341.975739,276.742218 347.503052,274.577454 343.390045,270.224213 
	C341.363190,268.078949 338.857452,268.763763 336.807861,270.421875 
	C338.912231,271.604553 340.447662,272.467499 341.983124,273.330444 
	C340.250366,275.716217 338.738586,278.326538 336.665497,280.366455 
	C335.936127,281.084137 333.831238,280.403900 331.886841,279.911255 
M64.133888,238.417435 
	C64.133888,230.532623 64.133888,222.647797 64.133888,214.762985 
	C68.075905,222.894791 71.196198,231.232880 74.716438,239.398560 
	C75.371994,240.919189 77.478905,242.215927 79.192024,242.784805 
	C81.771973,243.641556 83.279366,242.216644 84.287849,239.561630 
	C87.446198,231.246628 90.921150,223.051880 94.273438,214.810532 
	C94.539917,214.855408 94.806396,214.900284 95.072876,214.945175 
	C95.072876,225.127579 95.072876,235.309982 95.072876,245.503296 
	C97.750885,245.503296 99.957344,245.503296 102.236832,245.503296 
	C102.236832,230.857269 102.236832,216.578125 102.236832,202.326401 
	C93.221542,201.334534 93.233231,201.339447 89.985748,209.053848 
	C86.643066,216.994370 83.274429,224.923981 79.655891,233.475815 
	C76.060410,224.920959 72.801712,217.094299 69.483383,209.293015 
	C66.294075,201.795013 66.266838,201.802643 58.120747,202.031693 
	C57.835812,202.039719 57.557621,202.287552 57.166199,202.476852 
	C57.166199,216.808792 57.166199,231.189743 57.166199,245.586060 
	C59.591999,245.586060 61.664810,245.586060 64.133423,245.586060 
	C64.133423,243.329041 64.133423,241.360291 64.133888,238.417435 
M240.778519,229.503586 
	C240.778519,224.664474 240.778519,219.825348 240.778519,214.986237 
	C247.135086,223.294891 252.904770,231.583984 257.904022,240.314255 
	C260.887390,245.524155 264.506836,247.134216 270.146179,245.330750 
	C270.146179,230.997543 270.146179,216.613663 270.146179,202.111969 
	C267.734741,202.111969 265.620605,202.111969 262.814636,202.111969 
	C262.814636,212.485809 262.814636,222.710861 262.814636,234.191254 
	C256.414764,224.319443 250.360779,215.926300 245.374680,206.940613 
	C242.315552,201.427612 238.434937,201.461731 233.619080,202.265900 
	C233.619080,216.956009 233.619080,231.311462 233.619080,245.620758 
	C236.120163,245.620758 238.220764,245.620758 240.778473,245.620758 
	C240.778473,240.409790 240.778473,235.454437 240.778519,229.503586 
M173.284393,166.494263 
	C173.284393,156.734833 173.284393,146.975403 173.284393,137.231171 
	C170.484787,137.231171 168.280014,137.231171 165.745163,137.231171 
	C165.745163,147.634369 165.745163,157.669617 165.745163,169.073532 
	C159.445557,159.365189 153.499863,150.994736 148.447906,142.115768 
	C145.477234,136.894714 141.819275,135.907852 136.559708,137.321030 
	C136.559708,151.699417 136.559708,166.063126 136.559708,180.402832 
	C139.040817,180.402832 141.135147,180.402832 143.840210,180.402832 
	C143.840210,170.035095 143.840210,159.950897 143.840210,148.499161 
	C150.221069,158.413071 155.780319,167.058609 161.348267,175.698502 
	C165.141144,181.584000 165.894119,181.851868 173.284393,179.865799 
	C173.284393,175.789536 173.284393,171.639954 173.284393,166.494263 
M182.679123,178.263962 
	C183.444412,179.063309 184.217819,180.560883 184.973694,180.552078 
	C191.288712,180.478653 197.721832,180.808807 203.886261,179.709839 
	C214.495682,177.818451 220.083313,170.124863 220.153580,158.913727 
	C220.225677,147.407196 215.069290,140.054657 204.221588,138.036392 
	C197.309143,136.750290 190.118073,136.961914 182.670563,136.477158 
	C182.670563,150.714569 182.670563,164.008011 182.679123,178.263962 
M289.068817,213.822891 
	C295.406860,205.407257 303.490723,207.641098 311.734955,210.524368 
	C312.628113,208.471985 313.394012,206.712067 314.140198,204.997437 
	C304.400024,199.350677 291.587006,200.359680 284.469879,207.102631 
	C277.671265,213.543808 275.871307,226.902466 280.581116,235.963348 
	C285.824219,246.050171 303.923065,250.262222 313.664001,243.593872 
	C314.334198,243.135071 314.934937,242.046524 314.948395,241.240463 
	C315.053375,234.958282 315.006439,228.673584 315.006439,222.257019 
	C309.143799,222.257019 303.759949,222.257019 298.266907,222.257019 
	C298.266907,224.356903 298.266907,226.129700 298.266907,228.125427 
	C301.323517,228.293564 304.195435,228.451553 306.977600,228.604599 
	C306.977600,232.314941 306.977600,235.419846 306.977600,238.425415 
	C293.986023,242.432785 285.780975,236.267273 286.537292,223.126678 
	C286.704254,220.226044 287.957947,217.387955 289.068817,213.822891 
M124.487198,136.890686 
	C122.741653,136.890686 120.996117,136.890686 118.971069,136.890686 
	C118.971069,146.951050 119.036507,156.266937 118.943329,165.581253 
	C118.897049,170.207108 117.075020,173.543823 111.982201,174.422546 
	C104.517731,175.710464 100.264046,172.517212 100.142273,164.960022 
	C99.992905,155.690796 100.106651,146.417313 100.106651,137.175262 
	C97.083031,137.175262 94.673195,137.175262 92.129913,137.175262 
	C92.056931,138.095215 91.961197,138.735779 91.962067,139.376205 
	C91.974236,148.375122 91.804268,157.379898 92.075172,166.371292 
	C92.361359,175.870224 98.611298,181.138306 109.088631,181.212769 
	C120.298309,181.292450 126.723251,176.120834 127.036072,166.274994 
	C127.316414,157.451141 127.182777,148.611801 127.074196,139.781250 
	C127.062309,138.814697 126.010201,137.860931 124.487198,136.890686 
M234.258774,172.741791 
	C234.995773,171.293152 235.612091,168.682816 236.490112,168.591599 
	C240.926804,168.130661 245.550690,167.733871 249.850098,168.599701 
	C251.427353,168.917343 252.541138,172.674271 253.435532,175.026169 
	C255.874954,181.440811 255.783981,181.475403 263.582581,180.003708 
	C258.384552,165.639160 253.213959,151.350357 248.019943,136.996841 
	C244.956787,136.996841 242.158295,136.996841 239.031189,136.996841 
	C233.768036,151.356339 228.504669,165.716370 223.183197,180.234955 
	C231.390167,181.120987 231.390167,181.120987 234.258774,172.741791 
M173.151871,241.575760 
	C171.884430,240.803497 170.649185,239.435654 169.343796,239.365067 
	C164.446564,239.100220 159.526413,239.258987 154.714783,239.258987 
	C154.714783,234.527710 154.714783,230.575134 154.714783,226.009079 
	C160.486923,226.009079 166.037430,226.009079 171.522232,226.009079 
	C171.522232,223.631302 171.522232,221.874985 171.522232,219.652405 
	C165.830185,219.652405 160.393173,219.652405 154.895920,219.652405 
	C154.895920,215.652328 154.895920,212.132111 154.895920,208.149048 
	C161.095261,208.149048 166.840240,208.149048 172.735428,208.149048 
	C172.735428,205.910095 172.735428,204.144669 172.735428,202.161346 
	C163.949234,202.161346 155.370987,202.161346 146.552887,202.161346 
	C146.552887,216.769302 146.552887,231.139420 146.552887,245.884491 
	C154.684464,245.884491 162.484695,246.005112 170.271317,245.734619 
	C171.265213,245.700119 172.188232,243.625656 173.151871,241.575760 
M331.901581,153.770157 
	C328.478119,152.660095 324.841827,151.557175 326.054199,146.772171 
	C327.136139,142.501877 330.848419,142.554672 334.150421,142.849777 
	C337.389557,143.139236 340.569855,144.086853 344.188629,144.830399 
	C344.879120,143.160553 345.606537,141.401459 346.491211,139.262054 
	C339.236450,135.891907 332.192383,134.877563 324.950806,137.439575 
	C320.108582,139.152695 317.428131,142.913818 317.277679,148.067123 
	C317.129181,153.153427 319.307495,157.132141 324.132477,159.184128 
	C327.020416,160.412338 330.060638,161.292267 333.055878,162.255905 
	C336.755615,163.446182 340.190430,164.941193 339.121338,169.783539 
	C338.078186,174.508392 334.115326,174.825928 330.439362,174.421295 
	C326.723907,174.012314 323.100616,172.765991 318.999542,171.781479 
	C318.412415,173.593079 317.783661,175.533142 317.119965,177.581024 
	C324.522308,181.499817 331.770264,182.359711 339.228485,179.974854 
	C344.476959,178.296585 347.489105,174.463348 347.738983,168.876343 
	C347.984070,163.395767 345.763275,159.158997 340.579651,156.889160 
	C338.007538,155.762848 335.308838,154.925690 331.901581,153.770157 
M64.947395,180.989288 
	C68.740547,180.738800 72.657333,181.000626 76.298836,180.121780 
	C82.262260,178.682571 85.080078,174.864365 85.474876,169.154633 
	C85.898254,163.031662 83.619240,159.124832 77.757202,156.560013 
	C74.720657,155.231415 71.537201,154.201080 68.355659,153.252014 
	C65.247131,152.324722 63.321892,150.675980 63.808655,147.191299 
	C64.318954,143.538086 67.170570,142.661789 70.072380,142.835739 
	C73.980362,143.070007 77.848785,143.964142 82.094078,144.631653 
	C82.710091,143.116241 83.430405,141.344254 84.231842,139.372681 
	C77.638947,135.917892 71.037796,135.155212 64.189468,136.992096 
	C58.741684,138.453323 55.606873,142.305130 55.147053,147.639099 
	C54.698040,152.847672 57.313778,157.219849 62.552891,159.463364 
	C65.292862,160.636673 68.203857,161.421997 71.060631,162.308350 
	C74.633774,163.416977 77.783966,164.939774 77.078178,169.483475 
	C76.365265,174.073120 72.634377,174.733917 69.100006,174.426056 
	C65.059021,174.074066 61.094234,172.847305 56.702541,171.917282 
	C56.177296,173.673752 55.626102,175.517029 54.888458,177.983795 
	C58.164185,179.019409 61.118641,179.953445 64.947395,180.989288 
M211.579407,275.608551 
	C185.436157,275.688538 159.292953,275.782257 133.149658,275.844635 
	C109.004509,275.902222 84.859146,275.902161 60.714317,276.019196 
	C59.110092,276.026947 57.509628,276.812012 55.907417,277.235535 
	C56.045799,277.811707 56.184181,278.387909 56.322563,278.964081 
	C123.336311,278.964081 190.350067,278.964081 257.071381,278.964081 
	C257.932892,280.870300 258.651672,282.460724 259.370483,284.051147 
	C259.943665,283.908386 260.516876,283.765625 261.090057,283.622833 
	C261.090057,279.868927 261.151550,276.112976 261.025238,272.363342 
	C261.005768,271.785919 260.167267,270.850922 259.626038,270.788574 
	C259.121490,270.730408 258.254364,271.507507 258.001007,272.108429 
	C257.595490,273.070221 257.565338,274.190247 257.311340,275.606964 
	C242.181747,275.606964 227.370941,275.606964 211.579407,275.608551 
M125.495773,245.867188 
	C129.771881,245.867188 134.048004,245.867188 138.536560,245.867188 
	C138.536560,243.373703 138.536560,241.511093 138.536560,239.207825 
	C132.309006,239.207825 126.393211,239.207825 120.314774,239.207825 
	C120.314774,234.696777 120.314774,230.634842 120.314774,226.121368 
	C125.961601,226.121368 131.372101,226.121368 136.902603,226.121368 
	C136.902603,223.781250 136.902603,221.899048 136.902603,219.563507 
	C131.197235,219.563507 125.786201,219.563507 120.311615,219.563507 
	C120.311615,215.692596 120.311615,212.284592 120.311615,208.413605 
	C126.296928,208.413605 132.042526,208.413605 138.068512,208.413605 
	C138.068512,206.070282 138.068512,204.192261 138.068512,202.229004 
	C129.379623,202.229004 120.822289,202.229004 112.254440,202.229004 
	C112.254440,216.870117 112.254440,231.218796 112.254440,245.867279 
	C116.571404,245.867279 120.538528,245.867279 125.495773,245.867188 
M278.263611,165.878998 
	C278.263611,170.650955 278.263611,175.422928 278.263611,180.413391 
	C281.265564,180.413391 283.663025,180.413391 286.530365,180.413391 
	C286.530365,177.528397 286.760590,174.883423 286.484558,172.292358 
	C285.820648,166.060501 287.493958,160.641891 290.896271,155.396652 
	C294.652008,149.606537 297.818817,143.434418 301.281342,137.359879 
	C295.320862,135.742813 291.706390,137.332352 289.461609,142.817886 
	C287.708984,147.100784 284.981018,150.984543 282.401001,155.550980 
	C279.757812,150.798279 277.090637,146.907364 275.345947,142.639313 
	C273.096039,137.135345 269.496246,135.651764 263.615540,137.465591 
	C266.163666,141.992188 268.745544,146.384872 271.136139,150.879318 
	C273.609314,155.529007 275.896790,160.277466 278.263611,165.878998 
M189.165848,216.514771 
	C189.165848,226.118179 189.165848,235.721603 189.165848,245.592209 
	C192.031708,245.592209 194.451187,245.592209 197.478561,245.592209 
	C197.478561,233.341461 197.478561,221.139648 197.478561,208.461823 
	C201.989899,208.461823 205.905609,208.461823 209.846786,208.461823 
	C209.846786,206.059860 209.846786,204.157745 209.846786,202.221268 
	C198.662201,202.221268 187.778458,202.221268 176.809570,202.221268 
	C176.809570,204.387344 176.809570,206.269409 176.809570,208.635818 
	C181.034286,208.635818 184.937515,208.635818 189.165894,208.635818 
	C189.165894,211.245743 189.165894,213.380432 189.165848,216.514771 
M223.702591,211.556381 
	C223.702591,208.444061 223.702591,205.331757 223.702591,202.144470 
	C220.676208,202.144470 218.247147,202.144470 215.675781,202.144470 
	C215.675781,216.766769 215.675781,231.139206 215.675781,245.623260 
	C218.419815,245.623260 220.826920,245.623260 223.702225,245.623260 
	C223.702225,234.407532 223.702225,223.473541 223.702591,211.556381 
M305.067444,149.294022 
	C304.813843,153.322266 306.838348,153.592926 309.940430,152.403442 
	C310.222473,147.266724 310.493744,142.326721 310.775269,137.199249 
	C308.449402,137.199249 306.564911,137.199249 304.398315,137.199249 
	C304.608887,141.144394 304.802368,144.769211 305.067444,149.294022 
M270.398407,280.117096 
	C267.429688,274.564819 274.740234,278.572235 274.522247,275.585968 
	C272.972168,274.832947 271.363861,274.051575 269.755524,273.270203 
	C271.465271,272.273895 273.175018,271.277557 275.826965,269.732178 
	C272.351685,269.732178 269.797394,269.732178 267.258087,269.732178 
	C267.258087,274.055878 267.258087,278.238861 267.258087,282.118896 
	C270.124481,282.118896 272.583557,282.118896 275.042633,282.118896 
	C275.066559,281.652466 275.090454,281.186035 275.114380,280.719574 
	C273.829987,280.584717 272.545624,280.449860 270.398407,280.117096 
M284.549103,275.872009 
	C282.852509,274.924866 281.155945,273.977722 279.459381,273.030579 
	C279.589050,272.571869 279.718719,272.113159 279.848389,271.654449 
	C281.576843,271.547882 283.305298,271.441284 285.345459,271.315491 
	C282.422394,268.758392 279.571716,268.265411 277.987854,270.318329 
	C273.053894,276.713623 282.601318,275.621765 283.172302,279.955780 
	C280.925446,280.149292 278.942993,280.320068 276.960541,280.490814 
	C276.975250,280.989899 276.989960,281.489014 277.004639,281.988098 
	C279.353271,281.988098 281.946014,282.572235 283.945404,281.736603 
	C284.915436,281.331177 284.773987,278.266266 284.549103,275.872009 
M311.647614,272.277008 
	C309.881958,275.427887 308.116302,278.578766 306.154327,282.079956 
	C309.032074,282.079956 311.580078,282.079956 314.128113,282.079956 
	C314.153809,281.807251 314.179474,281.534576 314.205170,281.261871 
	C312.972015,280.856720 311.738861,280.451538 310.335022,279.990295 
	C312.198914,276.637421 317.096649,274.150696 312.869995,270.056030 
	C310.811859,268.062164 308.394257,268.811249 305.640839,271.426422 
	C308.324219,271.569733 309.714630,271.643982 311.647614,272.277008 
M294.695709,271.527435 
	C295.376617,271.133209 296.057526,270.738983 297.473969,269.918915 
	C293.206299,269.918915 289.968140,269.918915 286.729980,269.918915 
	C294.226501,271.972290 287.043640,280.006195 292.409424,282.928223 
	C292.933289,278.834778 293.393860,275.235870 294.695709,271.527435 
z"/>
<path fill="#F7F5F4" opacity="1.000000" stroke="none" 
	d="
M64.133652,238.904480 
	C64.133423,241.360291 64.133423,243.329041 64.133423,245.586060 
	C61.664810,245.586060 59.591999,245.586060 57.166199,245.586060 
	C57.166199,231.189743 57.166199,216.808792 57.166199,202.476852 
	C57.557621,202.287552 57.835812,202.039719 58.120747,202.031693 
	C66.266838,201.802643 66.294075,201.795013 69.483383,209.293015 
	C72.801712,217.094299 76.060410,224.920959 79.655891,233.475815 
	C83.274429,224.923981 86.643066,216.994370 89.985748,209.053848 
	C93.233231,201.339447 93.221542,201.334534 102.236832,202.326401 
	C102.236832,216.578125 102.236832,230.857269 102.236832,245.503296 
	C99.957344,245.503296 97.750885,245.503296 95.072876,245.503296 
	C95.072876,235.309982 95.072876,225.127579 95.072876,214.945175 
	C94.806396,214.900284 94.539917,214.855408 94.273438,214.810532 
	C90.921150,223.051880 87.446198,231.246628 84.287849,239.561630 
	C83.279366,242.216644 81.771973,243.641556 79.192024,242.784805 
	C77.478905,242.215927 75.371994,240.919189 74.716438,239.398560 
	C71.196198,231.232880 68.075905,222.894791 64.133888,214.762985 
	C64.133888,222.647797 64.133888,230.532623 64.133652,238.904480 
z"/>
<path fill="#F1F0EF" opacity="1.000000" stroke="none" 
	d="
M240.778503,230.001343 
	C240.778473,235.454437 240.778473,240.409790 240.778473,245.620758 
	C238.220764,245.620758 236.120163,245.620758 233.619080,245.620758 
	C233.619080,231.311462 233.619080,216.956009 233.619080,202.265900 
	C238.434937,201.461731 242.315552,201.427612 245.374680,206.940613 
	C250.360779,215.926300 256.414764,224.319443 262.814636,234.191254 
	C262.814636,222.710861 262.814636,212.485809 262.814636,202.111969 
	C265.620605,202.111969 267.734741,202.111969 270.146179,202.111969 
	C270.146179,216.613663 270.146179,230.997543 270.146179,245.330750 
	C264.506836,247.134216 260.887390,245.524155 257.904022,240.314255 
	C252.904770,231.583984 247.135086,223.294891 240.778519,214.986237 
	C240.778519,219.825348 240.778519,224.664474 240.778503,230.001343 
z"/>
<path fill="#F2F1EF" opacity="1.000000" stroke="none" 
	d="
M173.284393,166.992325 
	C173.284393,171.639954 173.284393,175.789536 173.284393,179.865799 
	C165.894119,181.851868 165.141144,181.584000 161.348267,175.698502 
	C155.780319,167.058609 150.221069,158.413071 143.840210,148.499161 
	C143.840210,159.950897 143.840210,170.035095 143.840210,180.402832 
	C141.135147,180.402832 139.040817,180.402832 136.559708,180.402832 
	C136.559708,166.063126 136.559708,151.699417 136.559708,137.321030 
	C141.819275,135.907852 145.477234,136.894714 148.447906,142.115768 
	C153.499863,150.994736 159.445557,159.365189 165.745163,169.073532 
	C165.745163,157.669617 165.745163,147.634369 165.745163,137.231171 
	C168.280014,137.231171 170.484787,137.231171 173.284393,137.231171 
	C173.284393,146.975403 173.284393,156.734833 173.284393,166.992325 
z"/>
<path fill="#F4F3F1" opacity="1.000000" stroke="none" 
	d="
M182.674835,177.782715 
	C182.670563,164.008011 182.670563,150.714569 182.670563,136.477158 
	C190.118073,136.961914 197.309143,136.750290 204.221588,138.036392 
	C215.069290,140.054657 220.225677,147.407196 220.153580,158.913727 
	C220.083313,170.124863 214.495682,177.818451 203.886261,179.709839 
	C197.721832,180.808807 191.288712,180.478653 184.973694,180.552078 
	C184.217819,180.560883 183.444412,179.063309 182.674835,177.782715 
M190.849655,154.533112 
	C190.849655,160.966354 190.849655,167.399612 190.849655,173.955688 
	C198.499832,174.233047 205.932739,174.959259 209.851471,167.379547 
	C213.082947,161.129135 213.244308,154.217529 208.838089,148.444260 
	C204.364273,142.582413 197.553009,143.355392 190.849747,143.508026 
	C190.849747,147.236618 190.849747,150.392593 190.849655,154.533112 
z"/>
<path fill="#F3F2F0" opacity="1.000000" stroke="none" 
	d="
M288.890015,214.171982 
	C287.957947,217.387955 286.704254,220.226044 286.537292,223.126678 
	C285.780975,236.267273 293.986023,242.432785 306.977600,238.425415 
	C306.977600,235.419846 306.977600,232.314941 306.977600,228.604599 
	C304.195435,228.451553 301.323517,228.293564 298.266907,228.125427 
	C298.266907,226.129700 298.266907,224.356903 298.266907,222.257019 
	C303.759949,222.257019 309.143799,222.257019 315.006439,222.257019 
	C315.006439,228.673584 315.053375,234.958282 314.948395,241.240463 
	C314.934937,242.046524 314.334198,243.135071 313.664001,243.593872 
	C303.923065,250.262222 285.824219,246.050171 280.581116,235.963348 
	C275.871307,226.902466 277.671265,213.543808 284.469879,207.102631 
	C291.587006,200.359680 304.400024,199.350677 314.140198,204.997437 
	C313.394012,206.712067 312.628113,208.471985 311.734955,210.524368 
	C303.490723,207.641098 295.406860,205.407257 288.890015,214.171982 
z"/>
<path fill="#F7F6F5" opacity="1.000000" stroke="none" 
	d="
M124.963882,136.895966 
	C126.010201,137.860931 127.062309,138.814697 127.074196,139.781250 
	C127.182777,148.611801 127.316414,157.451141 127.036072,166.274994 
	C126.723251,176.120834 120.298309,181.292450 109.088631,181.212769 
	C98.611298,181.138306 92.361359,175.870224 92.075172,166.371292 
	C91.804268,157.379898 91.974236,148.375122 91.962067,139.376205 
	C91.961197,138.735779 92.056931,138.095215 92.129913,137.175262 
	C94.673195,137.175262 97.083031,137.175262 100.106651,137.175262 
	C100.106651,146.417313 99.992905,155.690796 100.142273,164.960022 
	C100.264046,172.517212 104.517731,175.710464 111.982201,174.422546 
	C117.075020,173.543823 118.897049,170.207108 118.943329,165.581253 
	C119.036507,156.266937 118.971069,146.951050 118.971069,136.890686 
	C120.996117,136.890686 122.741653,136.890686 124.963882,136.895966 
z"/>
<path fill="#F4F2F1" opacity="1.000000" stroke="none" 
	d="
M234.141632,173.124084 
	C231.390167,181.120987 231.390167,181.120987 223.183197,180.234955 
	C228.504669,165.716370 233.768036,151.356339 239.031189,136.996841 
	C242.158295,136.996841 244.956787,136.996841 248.019943,136.996841 
	C253.213959,151.350357 258.384552,165.639160 263.582581,180.003708 
	C255.783981,181.475403 255.874954,181.440811 253.435532,175.026169 
	C252.541138,172.674271 251.427353,168.917343 249.850098,168.599701 
	C245.550690,167.733871 240.926804,168.130661 236.490112,168.591599 
	C235.612091,168.682816 234.995773,171.293152 234.141632,173.124084 
M246.991272,155.483459 
	C245.941452,152.185822 244.891632,148.888184 243.541580,144.647446 
	C241.524017,150.965118 239.807816,156.339111 238.046585,161.854126 
	C241.958435,161.854126 245.318054,161.854126 248.950729,161.854126 
	C248.278015,159.718246 247.733566,157.989563 246.991272,155.483459 
z"/>
<path fill="#F1F0EF" opacity="1.000000" stroke="none" 
	d="
M173.147980,242.036011 
	C172.188232,243.625656 171.265213,245.700119 170.271317,245.734619 
	C162.484695,246.005112 154.684464,245.884491 146.552887,245.884491 
	C146.552887,231.139420 146.552887,216.769302 146.552887,202.161346 
	C155.370987,202.161346 163.949234,202.161346 172.735428,202.161346 
	C172.735428,204.144669 172.735428,205.910095 172.735428,208.149048 
	C166.840240,208.149048 161.095261,208.149048 154.895920,208.149048 
	C154.895920,212.132111 154.895920,215.652328 154.895920,219.652405 
	C160.393173,219.652405 165.830185,219.652405 171.522232,219.652405 
	C171.522232,221.874985 171.522232,223.631302 171.522232,226.009079 
	C166.037430,226.009079 160.486923,226.009079 154.714783,226.009079 
	C154.714783,230.575134 154.714783,234.527710 154.714783,239.258987 
	C159.526413,239.258987 164.446564,239.100220 169.343796,239.365067 
	C170.649185,239.435654 171.884430,240.803497 173.147980,242.036011 
z"/>
<path fill="#F0EFED" opacity="1.000000" stroke="none" 
	d="
M332.284485,153.863953 
	C335.308838,154.925690 338.007538,155.762848 340.579651,156.889160 
	C345.763275,159.158997 347.984070,163.395767 347.738983,168.876343 
	C347.489105,174.463348 344.476959,178.296585 339.228485,179.974854 
	C331.770264,182.359711 324.522308,181.499817 317.119965,177.581024 
	C317.783661,175.533142 318.412415,173.593079 318.999542,171.781479 
	C323.100616,172.765991 326.723907,174.012314 330.439362,174.421295 
	C334.115326,174.825928 338.078186,174.508392 339.121338,169.783539 
	C340.190430,164.941193 336.755615,163.446182 333.055878,162.255905 
	C330.060638,161.292267 327.020416,160.412338 324.132477,159.184128 
	C319.307495,157.132141 317.129181,153.153427 317.277679,148.067123 
	C317.428131,142.913818 320.108582,139.152695 324.950806,137.439575 
	C332.192383,134.877563 339.236450,135.891907 346.491211,139.262054 
	C345.606537,141.401459 344.879120,143.160553 344.188629,144.830399 
	C340.569855,144.086853 337.389557,143.139236 334.150421,142.849777 
	C330.848419,142.554672 327.136139,142.501877 326.054199,146.772171 
	C324.841827,151.557175 328.478119,152.660095 332.284485,153.863953 
z"/>
<path fill="#F2F1F0" opacity="1.000000" stroke="none" 
	d="
M64.510246,180.938385 
	C61.118641,179.953445 58.164185,179.019409 54.888458,177.983795 
	C55.626102,175.517029 56.177296,173.673752 56.702541,171.917282 
	C61.094234,172.847305 65.059021,174.074066 69.100006,174.426056 
	C72.634377,174.733917 76.365265,174.073120 77.078178,169.483475 
	C77.783966,164.939774 74.633774,163.416977 71.060631,162.308350 
	C68.203857,161.421997 65.292862,160.636673 62.552891,159.463364 
	C57.313778,157.219849 54.698040,152.847672 55.147053,147.639099 
	C55.606873,142.305130 58.741684,138.453323 64.189468,136.992096 
	C71.037796,135.155212 77.638947,135.917892 84.231842,139.372681 
	C83.430405,141.344254 82.710091,143.116241 82.094078,144.631653 
	C77.848785,143.964142 73.980362,143.070007 70.072380,142.835739 
	C67.170570,142.661789 64.318954,143.538086 63.808655,147.191299 
	C63.321892,150.675980 65.247131,152.324722 68.355659,153.252014 
	C71.537201,154.201080 74.720657,155.231415 77.757202,156.560013 
	C83.619240,159.124832 85.898254,163.031662 85.474876,169.154633 
	C85.080078,174.864365 82.262260,178.682571 76.298836,180.121780 
	C72.657333,181.000626 68.740547,180.738800 64.510246,180.938385 
z"/>
<path fill="#F3F0EF" opacity="1.000000" stroke="none" 
	d="
M212.069763,275.607758 
	C227.370941,275.606964 242.181747,275.606964 257.311340,275.606964 
	C257.565338,274.190247 257.595490,273.070221 258.001007,272.108429 
	C258.254364,271.507507 259.121490,270.730408 259.626038,270.788574 
	C260.167267,270.850922 261.005768,271.785919 261.025238,272.363342 
	C261.151550,276.112976 261.090057,279.868927 261.090057,283.622833 
	C260.516876,283.765625 259.943665,283.908386 259.370483,284.051147 
	C258.651672,282.460724 257.932892,280.870300 257.071381,278.964081 
	C190.350067,278.964081 123.336311,278.964081 56.322563,278.964081 
	C56.184181,278.387909 56.045799,277.811707 55.907417,277.235535 
	C57.509628,276.812012 59.110092,276.026947 60.714317,276.019196 
	C84.859146,275.902161 109.004509,275.902222 133.149658,275.844635 
	C159.292953,275.782257 185.436157,275.688538 212.069763,275.607758 
z"/>
<path fill="#F6F5F4" opacity="1.000000" stroke="none" 
	d="
M125.000717,245.867233 
	C120.538528,245.867279 116.571404,245.867279 112.254440,245.867279 
	C112.254440,231.218796 112.254440,216.870117 112.254440,202.229004 
	C120.822289,202.229004 129.379623,202.229004 138.068512,202.229004 
	C138.068512,204.192261 138.068512,206.070282 138.068512,208.413605 
	C132.042526,208.413605 126.296928,208.413605 120.311615,208.413605 
	C120.311615,212.284592 120.311615,215.692596 120.311615,219.563507 
	C125.786201,219.563507 131.197235,219.563507 136.902603,219.563507 
	C136.902603,221.899048 136.902603,223.781250 136.902603,226.121368 
	C131.372101,226.121368 125.961601,226.121368 120.314774,226.121368 
	C120.314774,230.634842 120.314774,234.696777 120.314774,239.207825 
	C126.393211,239.207825 132.309006,239.207825 138.536560,239.207825 
	C138.536560,241.511093 138.536560,243.373703 138.536560,245.867188 
	C134.048004,245.867188 129.771881,245.867188 125.000717,245.867233 
z"/>
<path fill="#F0EFEE" opacity="1.000000" stroke="none" 
	d="
M278.264526,165.430862 
	C275.896790,160.277466 273.609314,155.529007 271.136139,150.879318 
	C268.745544,146.384872 266.163666,141.992188 263.615540,137.465591 
	C269.496246,135.651764 273.096039,137.135345 275.345947,142.639313 
	C277.090637,146.907364 279.757812,150.798279 282.401001,155.550980 
	C284.981018,150.984543 287.708984,147.100784 289.461609,142.817886 
	C291.706390,137.332352 295.320862,135.742813 301.281342,137.359879 
	C297.818817,143.434418 294.652008,149.606537 290.896271,155.396652 
	C287.493958,160.641891 285.820648,166.060501 286.484558,172.292358 
	C286.760590,174.883423 286.530365,177.528397 286.530365,180.413391 
	C283.663025,180.413391 281.265564,180.413391 278.263611,180.413391 
	C278.263611,175.422928 278.263611,170.650955 278.264526,165.430862 
z"/>
<path fill="#F5F4F2" opacity="1.000000" stroke="none" 
	d="
M189.165863,216.014938 
	C189.165894,213.380432 189.165894,211.245743 189.165894,208.635818 
	C184.937515,208.635818 181.034286,208.635818 176.809570,208.635818 
	C176.809570,206.269409 176.809570,204.387344 176.809570,202.221268 
	C187.778458,202.221268 198.662201,202.221268 209.846786,202.221268 
	C209.846786,204.157745 209.846786,206.059860 209.846786,208.461823 
	C205.905609,208.461823 201.989899,208.461823 197.478561,208.461823 
	C197.478561,221.139648 197.478561,233.341461 197.478561,245.592209 
	C194.451187,245.592209 192.031708,245.592209 189.165848,245.592209 
	C189.165848,235.721603 189.165848,226.118179 189.165863,216.014938 
z"/>
<path fill="#E4E3E2" opacity="1.000000" stroke="none" 
	d="
M223.702408,212.047974 
	C223.702225,223.473541 223.702225,234.407532 223.702225,245.623260 
	C220.826920,245.623260 218.419815,245.623260 215.675781,245.623260 
	C215.675781,231.139206 215.675781,216.766769 215.675781,202.144470 
	C218.247147,202.144470 220.676208,202.144470 223.702591,202.144470 
	C223.702591,205.331757 223.702591,208.444061 223.702408,212.047974 
z"/>
<path fill="#D3CFCE" opacity="1.000000" stroke="none" 
	d="
M332.354431,280.362000 
	C333.831238,280.403900 335.936127,281.084137 336.665497,280.366455 
	C338.738586,278.326538 340.250366,275.716217 341.983124,273.330444 
	C340.447662,272.467499 338.912231,271.604553 336.807861,270.421875 
	C338.857452,268.763763 341.363190,268.078949 343.390045,270.224213 
	C347.503052,274.577454 341.975739,276.742218 340.573303,280.211487 
	C341.931732,280.545197 343.245422,280.867920 344.559143,281.190643 
	C344.531982,281.432037 344.504791,281.673462 344.477631,281.914856 
	C338.781799,281.914856 333.085999,281.914856 326.469940,281.914856 
	C327.949585,280.031860 329.149353,278.753601 330.050537,277.291351 
	C331.037567,275.689728 331.748993,273.918213 332.580566,272.220734 
	C330.964081,271.889709 329.347595,271.558685 327.731110,271.227692 
	C327.650085,270.796783 327.569031,270.365875 327.488007,269.934967 
	C329.528168,269.882599 332.087982,269.074890 333.448303,270.010712 
	C334.589325,270.795715 334.771759,273.670288 334.538635,275.513489 
	C334.381226,276.757812 332.764587,277.817627 331.467712,279.439941 
	C331.541290,280.067261 331.947876,280.214630 332.354431,280.362000 
z"/>
<path fill="#ECEBE9" opacity="1.000000" stroke="none" 
	d="
M305.031616,148.844025 
	C304.802368,144.769211 304.608887,141.144394 304.398315,137.199249 
	C306.564911,137.199249 308.449402,137.199249 310.775269,137.199249 
	C310.493744,142.326721 310.222473,147.266724 309.940430,152.403442 
	C306.838348,153.592926 304.813843,153.322266 305.031616,148.844025 
z"/>
<path fill="#C8C3C3" opacity="1.000000" stroke="none" 
	d="
M270.829834,280.216064 
	C272.545624,280.449860 273.829987,280.584717 275.114380,280.719574 
	C275.090454,281.186035 275.066559,281.652466 275.042633,282.118896 
	C272.583557,282.118896 270.124481,282.118896 267.258087,282.118896 
	C267.258087,278.238861 267.258087,274.055878 267.258087,269.732178 
	C269.797394,269.732178 272.351685,269.732178 275.826965,269.732178 
	C273.175018,271.277557 271.465271,272.273895 269.755524,273.270203 
	C271.363861,274.051575 272.972168,274.832947 274.522247,275.585968 
	C274.740234,278.572235 267.429688,274.564819 270.829834,280.216064 
z"/>
<path fill="#D3CFCE" opacity="1.000000" stroke="none" 
	d="
M284.842407,276.138672 
	C284.773987,278.266266 284.915436,281.331177 283.945404,281.736603 
	C281.946014,282.572235 279.353271,281.988098 277.004639,281.988098 
	C276.989960,281.489014 276.975250,280.989899 276.960541,280.490814 
	C278.942993,280.320068 280.925446,280.149292 283.172302,279.955780 
	C282.601318,275.621765 273.053894,276.713623 277.987854,270.318329 
	C279.571716,268.265411 282.422394,268.758392 285.345459,271.315491 
	C283.305298,271.441284 281.576843,271.547882 279.848389,271.654449 
	C279.718719,272.113159 279.589050,272.571869 279.459381,273.030579 
	C281.155945,273.977722 282.852509,274.924866 284.842407,276.138672 
z"/>
<path fill="#D3CFCE" opacity="1.000000" stroke="none" 
	d="
M311.376312,271.997620 
	C309.714630,271.643982 308.324219,271.569733 305.640839,271.426422 
	C308.394257,268.811249 310.811859,268.062164 312.869995,270.056030 
	C317.096649,274.150696 312.198914,276.637421 310.335022,279.990295 
	C311.738861,280.451538 312.972015,280.856720 314.205170,281.261871 
	C314.179474,281.534576 314.153809,281.807251 314.128113,282.079956 
	C311.580078,282.079956 309.032074,282.079956 306.154327,282.079956 
	C308.116302,278.578766 309.881958,275.427887 311.376312,271.997620 
z"/>
<path fill="#E4E3E2" opacity="1.000000" stroke="none" 
	d="
M322.989288,270.902618 
	C325.393494,273.016968 326.277496,279.450073 324.107788,281.216156 
	C322.997559,282.119843 321.058990,282.630829 319.641571,282.403625 
	C316.573181,281.911774 314.936127,277.360443 316.152252,273.213898 
	C317.187286,269.684814 319.365570,268.412323 322.724548,270.980652 
	C318.955109,271.639832 317.275818,274.565247 318.859833,278.541901 
	C319.206757,279.412781 320.292694,279.989288 321.038300,280.701355 
	C321.688293,279.870270 322.802155,279.089569 322.898987,278.198395 
	C323.160431,275.791595 322.988983,273.337769 322.989288,270.902618 
z"/>
<path fill="#C8C3C3" opacity="1.000000" stroke="none" 
	d="
M294.275085,271.582214 
	C293.393860,275.235870 292.933289,278.834778 292.409424,282.928223 
	C287.043640,280.006195 294.226501,271.972290 286.729980,269.918915 
	C289.968140,269.918915 293.206299,269.918915 297.473969,269.918915 
	C296.057526,270.738983 295.376617,271.133209 294.275085,271.582214 
z"/>
<path fill="#0F0707" opacity="1.000000" stroke="none" 
	d="
M190.849701,154.040833 
	C190.849747,150.392593 190.849747,147.236618 190.849747,143.508026 
	C197.553009,143.355392 204.364273,142.582413 208.838089,148.444260 
	C213.244308,154.217529 213.082947,161.129135 209.851471,167.379547 
	C205.932739,174.959259 198.499832,174.233047 190.849655,173.955688 
	C190.849655,167.399612 190.849655,160.966354 190.849701,154.040833 
z"/>
<path fill="#181514" opacity="1.000000" stroke="none" 
	d="
M247.090179,155.872162 
	C247.733566,157.989563 248.278015,159.718246 248.950729,161.854126 
	C245.318054,161.854126 241.958435,161.854126 238.046585,161.854126 
	C239.807816,156.339111 241.524017,150.965118 243.541580,144.647446 
	C244.891632,148.888184 245.941452,152.185822 247.090179,155.872162 
z"/>
<path fill="#0E0506" opacity="1.000000" stroke="none" 
	d="
M332.120636,280.136597 
	C331.947876,280.214630 331.541290,280.067261 331.261414,279.707581 
	C331.554321,279.633942 331.720581,279.772614 332.120636,280.136597 
z"/>
<path fill="#181514" opacity="1.000000" stroke="none" 
	d="
M322.974426,270.935852 
	C322.988983,273.337769 323.160431,275.791595 322.898987,278.198395 
	C322.802155,279.089569 321.688293,279.870270 321.038300,280.701355 
	C320.292694,279.989288 319.206757,279.412781 318.859833,278.541901 
	C317.275818,274.565247 318.955109,271.639832 322.810852,271.323425 
	C323.019928,270.938934 322.959534,270.969086 322.974426,270.935852 
z"/>
</svg>