<svg version="1.1" id="Layer_1" xmlns="http://www.w3.org/2000/svg" xmlns:xlink="http://www.w3.org/1999/xlink" x="0px" y="0px"
	 width="100%" viewBox="0 0 1500 500" enable-background="new 0 0 1500 500" xml:space="preserve">
<path fill="#000000" opacity="1.000000" stroke="none" 
	d="
M988.000000,501.000000 
	C658.707703,501.000000 329.915466,501.000000 1.061593,501.000000 
	C1.061593,334.395233 1.061593,167.790421 1.061593,1.092811 
	C500.875671,1.092811 1000.751404,1.092811 1500.813477,1.092811 
	C1500.813477,167.666504 1500.813477,334.333221 1500.813477,501.000000 
	C1330.123657,501.000000 1159.311768,501.000000 988.000000,501.000000 
M432.559967,372.095398 
	C429.607635,372.095398 426.655304,372.095398 423.557068,372.095398 
	C423.557068,406.033417 423.557068,439.411102 423.557068,472.841919 
	C644.137512,472.841919 864.355408,472.841919 1084.681885,472.841919 
	C1084.681885,439.191132 1084.681885,405.811157 1084.681885,372.095398 
	C867.409729,372.095398 650.475830,372.095398 432.559967,372.095398 
M960.308167,201.833572 
	C980.511353,195.746078 998.711487,185.926804 1014.881287,172.384750 
	C1042.366333,149.366211 1060.900757,120.023994 1074.418701,87.267021 
	C1078.449097,77.500427 1081.594482,67.368599 1085.170288,57.334339 
	C1062.707275,46.559185 1041.016846,36.154659 1019.017517,25.601955 
	C1018.507935,27.091812 1018.147705,28.153383 1017.781738,29.212965 
	C1013.442261,41.776081 1009.699585,54.586262 1004.625793,66.845512 
	C996.442505,86.617691 984.859070,104.228607 967.707947,117.550552 
	C945.425537,134.858170 919.873108,139.318420 892.582031,135.564072 
	C855.020630,130.396881 821.695435,114.111427 789.801147,94.746605 
	C762.497681,78.169098 736.088501,60.128216 706.881531,46.816311 
	C674.344604,31.986664 640.805603,21.081141 604.766479,19.576075 
	C553.983948,17.455296 511.150787,34.915546 476.594208,72.256134 
	C451.431366,99.446251 435.559357,131.847672 424.115631,166.699371 
	C423.210480,169.455994 424.234283,170.482773 426.560608,171.584869 
	C438.442566,177.213898 450.223450,183.055862 462.087646,188.722977 
	C471.061554,193.009460 480.107452,197.145157 489.203400,201.386230 
	C489.586823,200.562271 489.852814,200.152451 489.975677,199.703461 
	C496.564941,175.625687 505.546661,152.601471 520.238342,132.177460 
	C530.828857,117.454750 544.010498,105.576958 560.750916,98.322914 
	C580.936890,89.575844 602.026428,88.631790 623.505371,92.405731 
	C657.022766,98.294876 687.079041,112.762550 715.958191,129.953918 
	C733.977722,140.680679 751.314880,152.568832 769.469604,163.050171 
	C807.677063,185.108658 847.789490,202.177444 892.196838,207.200516 
	C914.989868,209.778702 937.430542,208.261902 960.308167,201.833572 
M1003.500000,321.931549 
	C1030.584595,321.931549 1057.669189,321.931549 1084.636475,321.931549 
	C1084.636475,300.459930 1084.636475,279.733337 1084.636475,259.213135 
	C864.021057,259.213135 643.806213,259.213135 423.466919,259.213135 
	C423.466919,280.178589 423.466919,300.764374 423.466919,321.931549 
	C616.666199,321.931549 809.583130,321.931549 1003.500000,321.931549 
z"/>
<path fill="#FEFEFE" opacity="1.000000" stroke="none" 
	d="
M433.050964,372.095398 
	C650.475830,372.095398 867.409729,372.095398 1084.681885,372.095398 
	C1084.681885,405.811157 1084.681885,439.191132 1084.681885,472.841919 
	C864.355408,472.841919 644.137512,472.841919 423.557068,472.841919 
	C423.557068,439.411102 423.557068,406.033417 423.557068,372.095398 
	C426.655304,372.095398 429.607635,372.095398 433.050964,372.095398 
z"/>
<path fill="#FDFDFD" opacity="1.000000" stroke="none" 
	d="
M959.918091,201.931427 
	C937.430542,208.261902 914.989868,209.778702 892.196838,207.200516 
	C847.789490,202.177444 807.677063,185.108658 769.469604,163.050171 
	C751.314880,152.568832 733.977722,140.680679 715.958191,129.953918 
	C687.079041,112.762550 657.022766,98.294876 623.505371,92.405731 
	C602.026428,88.631790 580.936890,89.575844 560.750916,98.322914 
	C544.010498,105.576958 530.828857,117.454750 520.238342,132.177460 
	C505.546661,152.601471 496.564941,175.625687 489.975677,199.703461 
	C489.852814,200.152451 489.586823,200.562271 489.203400,201.386230 
	C480.107452,197.145157 471.061554,193.009460 462.087646,188.722977 
	C450.223450,183.055862 438.442566,177.213898 426.560608,171.584869 
	C424.234283,170.482773 423.210480,169.455994 424.115631,166.699371 
	C435.559357,131.847672 451.431366,99.446251 476.594208,72.256134 
	C511.150787,34.915546 553.983948,17.455296 604.766479,19.576075 
	C640.805603,21.081141 674.344604,31.986664 706.881531,46.816311 
	C736.088501,60.128216 762.497681,78.169098 789.801147,94.746605 
	C821.695435,114.111427 855.020630,130.396881 892.582031,135.564072 
	C919.873108,139.318420 945.425537,134.858170 967.707947,117.550552 
	C984.859070,104.228607 996.442505,86.617691 1004.625793,66.845512 
	C1009.699585,54.586262 1013.442261,41.776081 1017.781738,29.212965 
	C1018.147705,28.153383 1018.507935,27.091812 1019.017517,25.601955 
	C1041.016846,36.154659 1062.707275,46.559185 1085.170288,57.334339 
	C1081.594482,67.368599 1078.449097,77.500427 1074.418701,87.267021 
	C1060.900757,120.023994 1042.366333,149.366211 1014.881287,172.384750 
	C998.711487,185.926804 980.511353,195.746078 959.918091,201.931427 
z"/>
<path fill="#FDFDFD" opacity="1.000000" stroke="none" 
	d="
M1003.000000,321.931549 
	C809.583130,321.931549 616.666199,321.931549 423.466919,321.931549 
	C423.466919,300.764374 423.466919,280.178589 423.466919,259.213135 
	C643.806213,259.213135 864.021057,259.213135 1084.636475,259.213135 
	C1084.636475,279.733337 1084.636475,300.459930 1084.636475,321.931549 
	C1057.669189,321.931549 1030.584595,321.931549 1003.000000,321.931549 
z"/>
</svg>