<svg version="1.1" id="Layer_1" xmlns="http://www.w3.org/2000/svg" xmlns:xlink="http://www.w3.org/1999/xlink" x="0px" y="0px"
	 width="100%" viewBox="0 0 400 212" enable-background="new 0 0 400 212" xml:space="preserve">
<path fill="#0D0304" opacity="1.000000" stroke="none" 
	d="
M273.000000,213.000000 
	C182.000015,213.000000 91.500023,213.000000 1.000024,213.000000 
	C1.000016,142.333359 1.000016,71.666702 1.000008,1.000043 
	C134.333298,1.000029 267.666595,1.000029 400.999939,1.000014 
	C400.999939,71.666618 400.999939,142.333237 400.999969,212.999939 
	C358.500000,213.000000 316.000000,213.000000 273.000000,213.000000 
M361.015259,22.228041 
	C360.658997,20.185810 360.302734,18.143579 359.070557,15.758219 
	C358.406830,15.719019 357.743103,15.645560 357.079376,15.645469 
	C255.041122,15.631347 153.002853,15.618384 50.964596,15.634016 
	C47.992981,15.634471 45.021412,15.939413 41.284664,16.447929 
	C41.862125,17.479115 39.003761,20.461597 42.984726,20.184116 
	C43.010078,21.272219 43.035427,22.360321 41.986347,23.113258 
	C41.683788,25.006893 41.118649,26.900288 41.116920,28.794195 
	C41.069115,81.314323 41.077488,133.834503 41.083603,186.354675 
	C41.083775,187.848419 41.052181,189.359467 41.285271,190.822647 
	C41.337597,191.151108 42.440853,191.312149 43.019974,191.849899 
	C43.006725,192.052185 43.020111,192.252686 42.042007,192.088669 
	C41.762562,193.345291 41.483116,194.601913 41.033012,196.538727 
	C42.829762,197.227570 44.625946,198.517548 46.423340,198.519226 
	C149.354797,198.615753 252.286346,198.610367 355.217865,198.561554 
	C356.932312,198.560745 358.646454,197.904343 360.721436,196.491959 
	C360.154297,196.247330 359.587128,196.002701 359.152191,195.597443 
	C359.152191,195.597443 359.016113,195.440079 358.998383,195.145676 
	C359.013763,194.947586 358.994965,194.752792 360.173004,194.613800 
	C359.762390,193.888504 359.351807,193.163193 359.016846,191.968262 
	C358.991119,191.494492 358.965393,191.020721 359.939545,190.961884 
	C360.266235,189.925583 360.878479,188.889343 360.878662,187.852951 
	C360.889130,132.919846 360.847931,77.986740 361.015259,22.228041 
z"/>
<path fill="#0E0506" opacity="1.000000" stroke="none" 
	d="
M358.942017,194.561310 
	C358.994965,194.752792 359.013763,194.947586 358.583923,195.514465 
	C356.513245,195.964371 354.856995,196.116241 353.200775,196.116486 
	C252.205002,196.130829 151.209229,196.133987 50.213467,196.128159 
	C47.883900,196.128021 45.554340,196.013367 43.182198,195.515411 
	C43.113121,194.202942 43.086628,193.327179 43.060135,192.451431 
	C43.020111,192.252686 43.006725,192.052185 43.063225,191.198364 
	C43.091244,134.847366 43.076012,79.147896 43.060780,23.448423 
	C43.035427,22.360321 43.010078,21.272219 43.097687,19.547886 
	C43.170479,18.700722 43.130310,18.489788 43.513096,18.073257 
	C44.763577,17.817814 45.591087,17.724436 46.418617,17.724298 
	C149.121567,17.707205 251.824509,17.694530 354.527466,17.710985 
	C355.989044,17.711218 357.450531,18.080633 358.843262,18.669247 
	C358.862946,20.378269 358.951447,21.695787 358.971619,23.476780 
	C358.915405,79.475815 358.927521,135.011383 358.939636,190.546951 
	C358.965393,191.020721 358.991119,191.494492 358.960022,192.733826 
	C358.916107,193.853348 358.929047,194.207336 358.942017,194.561310 
M332.301727,184.354294 
	C332.949402,183.605469 334.044525,182.916779 334.154846,182.095749 
	C334.412628,180.177399 334.980438,177.533707 334.006165,176.381088 
	C332.144257,174.178329 329.529449,174.692505 326.913300,176.882080 
	C329.273315,177.500504 330.950256,177.939911 332.627167,178.379333 
	C331.647339,180.173035 330.668701,181.967407 329.686707,183.759949 
	C329.457703,184.178009 329.217407,184.589890 328.311066,185.064346 
	C327.239716,185.376404 326.168396,185.688477 325.226746,185.194000 
	C325.169586,184.050140 324.972626,182.892700 325.082336,181.765076 
	C325.371613,178.791733 325.005981,176.011810 321.622559,175.307846 
	C318.124023,174.579926 316.707214,177.112961 315.135345,179.924927 
	C314.902222,179.901978 314.669067,179.879028 314.418182,179.158173 
	C312.703796,174.340271 309.989838,173.671570 306.857666,177.243210 
	C308.425232,177.568878 310.019257,177.900040 311.613251,178.231186 
	C310.793854,179.914154 310.097565,181.673141 309.118958,183.257782 
	C308.215210,184.721283 307.008759,185.997833 305.548889,187.846436 
	C307.539490,188.316528 308.771454,188.607468 310.016754,189.592880 
	C310.377167,190.202225 310.737579,190.811569 311.098022,191.420929 
	C311.397766,190.583481 311.697540,189.746048 312.480530,188.710205 
	C312.817627,188.750168 313.154724,188.790131 314.186951,188.946152 
	C315.769470,188.796432 317.351959,188.646698 319.481171,188.412521 
	C319.664795,188.395554 319.848389,188.378586 320.522278,188.670578 
	C320.904602,188.701202 321.286896,188.731827 321.818878,188.613907 
	C321.818878,188.613907 322.010529,188.701843 322.095276,189.422607 
	C322.828796,189.860947 323.693207,190.806335 324.274872,190.656204 
	C328.382477,189.596054 332.432068,188.310883 336.815338,187.818939 
	C339.363281,188.105957 341.911224,188.392975 344.459167,188.679993 
	C344.512238,188.209076 344.565338,187.738144 344.618439,187.267212 
	C343.309998,186.918472 342.001526,186.569733 340.623077,186.202316 
	C345.475464,179.028366 345.916199,177.193054 342.756836,175.881134 
	C341.101471,175.193710 338.852661,175.935471 336.871857,176.031799 
	C337.000610,176.408829 337.129364,176.785873 337.258087,177.162903 
	C338.809875,177.621338 340.361664,178.079788 341.913452,178.538223 
	C341.135010,180.080200 340.482300,181.705185 339.536957,183.136978 
	C338.823700,184.217255 337.735962,185.050293 336.073425,185.990662 
	C334.717072,185.665176 333.360687,185.339676 332.301727,184.354294 
M277.732300,188.168304 
	C280.268494,187.680954 282.804688,187.193619 285.340881,186.706268 
	C284.716614,184.766922 284.092316,182.827560 283.747131,179.946014 
	C283.831421,179.296982 283.915680,178.647949 284.657806,177.664932 
	C283.643188,174.558609 282.630646,174.353882 276.829224,176.119537 
	C276.271423,176.078201 275.713593,176.036880 274.610413,175.436707 
	C272.169525,175.436707 269.728638,175.436707 266.748962,175.436707 
	C266.748962,178.077744 266.748962,180.535355 266.221802,183.101212 
	C266.399017,183.736542 266.576233,184.371872 266.867645,185.828812 
	C268.332642,191.476227 272.243988,187.818100 275.765900,188.005295 
	C276.180115,188.002518 276.594299,187.999756 277.732300,188.168304 
M64.133415,143.438858 
	C64.133415,135.889694 64.133415,128.340530 64.133415,120.791367 
	C68.082901,128.917206 71.429497,137.160141 74.534004,145.493240 
	C75.506561,148.103790 76.916916,149.011444 79.679512,148.998108 
	C82.346741,148.985199 83.379776,147.825806 84.269844,145.536301 
	C87.491074,137.250366 90.925018,129.047104 94.278687,120.812653 
	C94.544930,120.856262 94.811172,120.899879 95.077415,120.943489 
	C95.077415,131.122803 95.077415,141.302124 95.077415,151.496521 
	C97.748154,151.496521 99.950943,151.496521 102.236572,151.496521 
	C102.236572,136.847763 102.236572,122.573425 102.236572,108.326134 
	C93.240303,107.347580 93.247612,107.350670 89.995186,115.052521 
	C86.644836,122.986282 83.278267,130.913193 79.659996,139.453979 
	C76.067635,130.911880 72.815018,123.091240 69.491974,115.300644 
	C66.291641,107.797752 66.259560,107.807579 58.139114,108.029030 
	C57.852940,108.036835 57.573082,108.276306 57.151039,108.472542 
	C57.151039,122.787941 57.151039,137.164276 57.151039,151.592804 
	C59.561363,151.592804 61.634331,151.592804 64.133728,151.592804 
	C64.133728,149.010468 64.133728,146.713043 64.133415,143.438858 
M270.446960,129.500366 
	C270.446960,122.401649 270.446960,115.302933 270.446960,108.135834 
	C267.691101,108.135834 265.581055,108.135834 262.837463,108.135834 
	C262.837463,118.587105 262.837463,128.864594 262.837463,140.273788 
	C256.620575,130.634506 250.841217,122.271988 245.729538,113.519531 
	C242.747589,108.413719 239.164505,106.594826 233.574066,108.460915 
	C233.574066,122.859039 233.574066,137.246567 233.574066,151.652756 
	C236.041077,151.652756 238.155014,151.652756 240.815094,151.652756 
	C240.815094,141.288010 240.815094,131.141968 240.815094,120.995911 
	C247.124817,129.287628 252.900269,137.575348 257.892242,146.310791 
	C260.877075,151.533844 264.497131,153.138657 270.448334,151.247101 
	C270.448334,144.436035 270.448334,137.468079 270.446960,129.500366 
M165.961670,69.085541 
	C165.961670,70.749168 165.961670,72.412796 165.961670,75.467117 
	C159.465439,65.448822 153.437088,57.042099 148.414764,48.072102 
	C145.414673,42.713852 141.686996,42.104847 136.447296,43.307327 
	C136.447296,57.632298 136.447296,71.858688 136.447296,86.323715 
	C138.901321,86.323715 141.097931,86.323715 143.550323,86.323715 
	C143.550323,75.798126 143.550323,65.621521 143.550323,54.043816 
	C149.886047,63.881863 155.883194,72.402077 160.989517,81.426353 
	C163.955978,86.668900 167.617630,87.615036 172.933228,86.209312 
	C172.933228,71.835327 172.933228,57.486809 172.933228,43.108696 
	C170.498474,43.108696 168.409866,43.108696 165.934128,43.108696 
	C165.934128,51.629269 165.934128,59.906948 165.961670,69.085541 
M191.520248,86.689079 
	C195.340622,86.469742 199.221558,86.604706 202.969849,85.963814 
	C213.672745,84.133781 219.864868,76.708176 220.150696,65.854767 
	C220.470688,53.703102 215.348190,46.122398 204.152100,44.026180 
	C197.246506,42.733261 190.056458,42.959476 182.914398,42.498516 
	C182.914398,57.746651 182.914398,72.010574 182.914398,86.689209 
	C185.644302,86.689209 188.108276,86.689209 191.520248,86.689079 
M309.834290,116.035446 
	C311.440674,114.559006 313.047058,113.082558 315.035156,111.255257 
	C307.424500,107.013153 300.590912,106.560295 293.599548,108.164505 
	C284.106384,110.342789 278.174744,118.546211 278.033112,129.299179 
	C277.879059,140.991898 283.012909,149.865738 292.613464,151.313019 
	C299.081604,152.288101 305.965515,150.659653 312.636597,149.945374 
	C313.509857,149.851868 314.877106,148.285675 314.905579,147.367157 
	C315.104431,140.958633 315.010712,134.541016 315.010712,128.193298 
	C309.031006,128.193298 303.766754,128.193298 298.352051,128.193298 
	C298.352051,130.335449 298.352051,132.212509 298.352051,134.536407 
	C301.402069,134.536407 304.156952,134.536407 306.916626,134.536407 
	C306.916626,138.237213 306.916626,141.477570 306.916626,144.721298 
	C300.184052,146.351379 293.942780,146.999847 289.381866,140.863220 
	C285.485443,135.620621 285.554932,124.916229 289.284760,119.505585 
	C293.225494,113.788986 299.828003,112.544907 309.834290,116.035446 
M91.947319,51.540749 
	C91.973213,58.540180 91.835922,65.545059 92.069191,72.537575 
	C92.321320,80.095238 96.494576,84.935883 103.793396,86.716545 
	C115.573952,89.590591 126.180977,84.140488 126.828049,74.099991 
	C127.487816,63.862442 126.973976,53.549255 126.973976,43.144703 
	C124.260178,43.144703 121.857391,43.144703 119.012123,43.144703 
	C119.012123,45.198048 119.015816,46.993446 119.011490,48.788830 
	C118.993004,56.454792 119.116272,64.124702 118.905899,71.785431 
	C118.741920,77.756721 115.686768,80.546928 109.811203,80.688911 
	C103.380646,80.844307 100.210014,77.716522 100.130112,70.774139 
	C100.023560,61.516865 100.103775,52.257442 100.103775,43.234482 
	C96.962318,43.234482 94.550652,43.234482 91.947639,43.234482 
	C91.947639,45.919899 91.947639,48.238331 91.947319,51.540749 
M224.112030,83.447311 
	C223.890045,84.364441 223.668076,85.281563 223.437866,86.232674 
	C231.430389,87.236092 231.384827,87.219940 233.891678,80.148666 
	C234.592911,78.170631 235.420120,74.851036 236.583130,74.669586 
	C240.965546,73.985893 245.630630,73.748528 249.930740,74.621117 
	C251.500412,74.939644 252.585114,78.732773 253.477188,81.096924 
	C255.896988,87.509857 255.844788,87.561531 263.574524,85.954048 
	C258.373474,71.600716 253.195267,57.310463 248.005096,42.987171 
	C244.870972,42.987171 242.068893,42.987171 239.063553,42.987171 
	C234.157166,56.281509 229.274429,69.511772 224.112030,83.447311 
M163.383286,114.401482 
	C166.455994,114.401482 169.528702,114.401482 172.701050,114.401482 
	C172.701050,111.839325 172.701050,110.084709 172.701050,108.195084 
	C163.890274,108.195084 155.322739,108.195084 146.574463,108.195084 
	C146.574463,122.833817 146.574463,137.195053 146.574463,151.603851 
	C155.525452,151.603851 164.105270,151.603851 172.896042,151.603851 
	C172.896042,149.419266 172.896042,147.524933 172.896042,145.186920 
	C166.707031,145.186920 160.787628,145.186920 154.771667,145.186920 
	C154.771667,140.680069 154.771667,136.623383 154.771667,132.114044 
	C160.473785,132.114044 165.896103,132.114044 171.476929,132.114044 
	C171.476929,129.775772 171.476929,127.897415 171.476929,125.565643 
	C165.739868,125.565643 160.313416,125.565643 154.754822,125.565643 
	C154.754822,121.700447 154.754822,118.294136 154.754822,114.402367 
	C157.505508,114.402367 159.953217,114.402367 163.383286,114.401482 
M317.299896,56.033749 
	C318.128571,61.122974 321.078644,64.398117 325.913025,66.013603 
	C328.430084,66.854729 330.978760,67.600815 333.508942,68.403168 
	C336.881714,69.472733 339.821564,70.973282 339.235016,75.277367 
	C338.611115,79.855804 335.020844,80.762238 331.455505,80.467934 
	C327.403687,80.133484 323.428162,78.874382 318.963531,77.919731 
	C318.427643,79.557808 317.790833,81.504471 317.120209,83.554367 
	C324.318481,87.445892 331.413513,88.294624 338.727478,86.132729 
	C344.440613,84.444016 347.493622,80.365242 347.773651,74.908813 
	C348.061951,69.290848 345.606445,65.132362 340.149780,62.697975 
	C336.982452,61.284927 333.655151,60.186737 330.326630,59.191856 
	C327.413391,58.321121 325.575012,56.795479 325.875732,53.563396 
	C326.209778,49.973499 328.837036,48.725357 331.836975,48.881405 
	C335.896942,49.092594 339.924164,49.933132 344.361481,50.559589 
	C344.945374,49.049469 345.629089,47.281113 346.916718,43.950771 
	C340.357880,43.356522 334.673615,42.101151 329.113739,42.515537 
	C321.255493,43.101212 318.053772,47.144577 317.299896,56.033749 
M79.910606,43.391228 
	C74.828720,43.222462 69.654495,42.379559 64.688896,43.059742 
	C58.805283,43.865669 55.649990,48.078396 55.149357,53.608810 
	C54.666100,58.947186 57.460308,63.439888 62.938385,65.664848 
	C65.852425,66.848412 68.903725,67.706047 71.919540,68.623802 
	C75.294601,69.650879 77.636322,71.489822 77.108360,75.381020 
	C76.571167,79.340225 73.547333,80.646347 70.215065,80.376953 
	C65.842583,80.023460 61.529812,78.931366 56.697971,78.068855 
	C56.208817,79.708488 55.625320,81.664345 55.013157,83.716286 
	C62.299076,87.289932 69.355263,88.323074 76.695877,86.105804 
	C81.976715,84.510704 85.090553,80.992439 85.488197,75.303825 
	C85.905289,69.336891 83.833687,65.394806 78.360374,62.860039 
	C75.212929,61.402412 71.866119,60.331806 68.538345,59.319363 
	C65.262794,58.322803 63.162670,56.629673 63.862675,52.904690 
	C64.540657,49.296894 67.499687,48.634636 70.349915,48.826084 
	C74.237503,49.087219 78.081779,49.993301 82.103516,50.648762 
	C82.758797,49.072289 83.446854,47.416973 84.257896,45.465790 
	C82.956413,44.832397 81.804329,44.271713 79.910606,43.391228 
M135.500000,185.118652 
	C176.112610,185.118652 216.725204,185.118652 257.148712,185.118652 
	C257.915070,186.845657 258.626770,188.449478 259.338470,190.053314 
	C259.928345,189.909866 260.518219,189.766418 261.108093,189.622955 
	C261.108093,185.886703 261.169312,182.148422 261.045349,178.416290 
	C261.025665,177.823151 260.172913,177.257660 259.705322,176.679398 
	C259.096802,177.283981 258.296478,177.792267 257.931519,178.519135 
	C257.534546,179.309738 257.541992,180.303421 257.335052,181.412704 
	C255.906723,181.412704 254.751190,181.409012 253.595688,181.413223 
	C214.294586,181.556259 174.993546,181.718369 135.692368,181.837082 
	C110.712585,181.912537 85.732506,181.900909 60.752975,182.016296 
	C59.131634,182.023788 57.513783,182.786102 55.894306,183.197296 
	C56.021122,183.838348 56.147938,184.479416 56.274750,185.120468 
	C82.349831,185.120468 108.424919,185.120468 135.500000,185.118652 
M120.072525,122.300644 
	C120.072525,119.842247 120.072525,117.383850 120.072525,114.286545 
	C126.326691,114.286545 132.204407,114.286545 138.206940,114.286545 
	C138.206940,111.876709 138.206940,110.110855 138.206940,108.189774 
	C129.487473,108.189774 120.919411,108.189774 112.219925,108.189774 
	C112.219925,122.794373 112.219925,137.147217 112.219925,151.585297 
	C121.114319,151.585297 129.690659,151.585297 138.558548,151.585297 
	C138.558548,149.427399 138.558548,147.564163 138.558548,145.250793 
	C132.346313,145.250793 126.424469,145.250793 120.302452,145.250793 
	C120.302452,140.734940 120.302452,136.670441 120.302452,132.147125 
	C125.940598,132.147125 131.353867,132.147125 136.908051,132.147125 
	C136.908051,129.796280 136.908051,127.914604 136.908051,125.727234 
	C132.158585,125.727234 127.685493,125.889320 123.239738,125.612442 
	C122.138191,125.543839 121.125267,124.052094 120.072525,122.300644 
M288.691589,65.531792 
	C292.849823,58.198994 297.008057,50.866192 301.265656,43.358147 
	C295.795013,41.980473 292.045349,42.660110 289.798981,48.227375 
	C287.984467,52.724407 285.096771,56.788422 282.386810,61.571129 
	C279.661194,56.604858 277.258881,52.245235 274.873260,47.876484 
	C271.717651,42.097603 270.844025,41.754887 263.797516,43.749783 
	C270.489258,57.328236 282.533478,69.025444 277.700989,86.418869 
	C281.251129,86.418869 283.651398,86.418869 286.546997,86.418869 
	C286.546997,83.363045 286.340424,80.556175 286.596741,77.792236 
	C286.957153,73.905312 287.661072,70.050232 288.691589,65.531792 
M176.480225,113.010674 
	C177.881119,113.507881 179.255905,114.315231 180.688492,114.435768 
	C183.415665,114.665215 186.175842,114.502289 189.304962,114.502289 
	C189.304962,127.297699 189.304962,139.375458 189.304962,151.614914 
	C192.130859,151.614914 194.538391,151.614914 197.411072,151.614914 
	C197.411072,139.285873 197.411072,127.204041 197.411072,114.429245 
	C201.873947,114.429245 205.904465,114.429245 209.950897,114.429245 
	C209.950897,111.947571 209.950897,110.175041 209.950897,108.173424 
	C198.842056,108.173424 187.936478,108.173424 176.733810,108.173424 
	C176.640259,109.590240 176.555328,110.876503 176.480225,113.010674 
M215.349472,115.610268 
	C215.349472,127.535965 215.349472,139.461670 215.349472,151.645920 
	C218.311890,151.645920 220.719086,151.645920 223.425232,151.645920 
	C223.425232,137.083588 223.425232,122.716606 223.425232,108.120071 
	C220.745102,108.120071 218.316895,108.120071 215.346466,108.120071 
	C215.346466,110.398628 215.346466,112.521736 215.349472,115.610268 
M305.010742,43.134846 
	C305.010742,48.279999 305.010742,53.425152 305.010742,58.639771 
	C307.051331,58.639771 308.410553,58.639771 309.934784,58.639771 
	C310.216858,53.297329 310.482330,48.269081 310.764801,42.919060 
	C308.775085,42.919060 307.314026,42.919060 305.010742,43.134846 
M295.462677,177.484833 
	C295.564117,176.824173 295.665588,176.163498 295.767059,175.502838 
	C292.721497,175.502838 289.675934,175.502838 286.630371,175.502838 
	C286.346008,175.994614 286.061646,176.486404 285.777313,176.978180 
	C291.222046,177.002121 290.043304,180.407990 290.200745,183.227631 
	C290.301758,185.036102 290.738159,186.825851 291.024200,188.623993 
	C291.685913,188.524948 292.347626,188.425903 293.009338,188.326859 
	C293.009338,186.216507 292.806732,184.079788 293.076660,182.004532 
	C293.274750,180.481476 294.092316,179.038971 295.462677,177.484833 
M269.145508,172.593338 
	C268.670044,172.288879 268.194550,171.984421 267.719086,171.679947 
	C267.648438,171.942520 267.477905,172.413528 267.522736,172.435013 
	C267.916901,172.623795 268.349396,172.732498 269.145508,172.593338 
M331.513947,193.433136 
	C331.513947,193.433136 331.561890,193.521362 331.513947,193.433136 
M263.566925,181.513885 
	C263.566925,181.513885 263.478973,181.561630 263.566925,181.513885 
z"/>
<path fill="#ABA4A5" opacity="1.000000" stroke="none" 
	d="
M43.224777,195.952118 
	C45.554340,196.013367 47.883900,196.128021 50.213467,196.128159 
	C151.209229,196.133987 252.205002,196.130829 353.200775,196.116486 
	C354.856995,196.116241 356.513245,195.964371 358.592773,195.661667 
	C359.016113,195.440079 359.152191,195.597443 359.227844,196.032684 
	C359.655914,196.829910 360.008331,197.191879 360.360718,197.553848 
	C358.646454,197.904343 356.932312,198.560745 355.217865,198.561554 
	C252.286346,198.610367 149.354797,198.615753 46.423340,198.519226 
	C44.625946,198.517548 42.829762,197.227570 41.622963,196.250183 
	C42.550205,195.958450 42.887489,195.955292 43.224777,195.952118 
z"/>
<path fill="#D5D1D0" opacity="1.000000" stroke="none" 
	d="
M358.912079,18.277744 
	C357.450531,18.080633 355.989044,17.711218 354.527466,17.710985 
	C251.824509,17.694530 149.121567,17.707205 46.418617,17.724298 
	C45.591087,17.724436 44.763577,17.817814 43.434303,17.780022 
	C42.638313,17.162386 42.344067,16.632385 42.049824,16.102385 
	C45.021412,15.939413 47.992981,15.634471 50.964596,15.634016 
	C153.002853,15.618384 255.041122,15.631347 357.079376,15.645469 
	C357.743103,15.645560 358.406830,15.719019 359.386475,16.207932 
	C359.438965,17.197678 359.175537,17.737711 358.912079,18.277744 
z"/>
<path fill="#D8D4D3" opacity="1.000000" stroke="none" 
	d="
M359.439575,190.754425 
	C358.927521,135.011383 358.915405,79.475815 359.267151,23.467033 
	C360.024689,23.013752 360.418427,23.033689 360.812134,23.053627 
	C360.847931,77.986740 360.889130,132.919846 360.878662,187.852951 
	C360.878479,188.889343 360.266235,189.925583 359.439575,190.754425 
z"/>
<path fill="#D8D4D3" opacity="1.000000" stroke="none" 
	d="
M42.523563,23.280842 
	C43.076012,79.147896 43.091244,134.847366 43.083385,191.048553 
	C42.440853,191.312149 41.337597,191.151108 41.285271,190.822647 
	C41.052181,189.359467 41.083775,187.848419 41.083603,186.354675 
	C41.077488,133.834503 41.069115,81.314323 41.116920,28.794195 
	C41.118649,26.900288 41.683788,25.006893 42.523563,23.280842 
z"/>
<path fill="#ABA4A5" opacity="1.000000" stroke="none" 
	d="
M360.913696,22.640835 
	C360.418427,23.033689 360.024689,23.013752 359.335449,23.003563 
	C358.951447,21.695787 358.862946,20.378269 358.843262,18.669247 
	C359.175537,17.737711 359.438965,17.197678 359.824463,16.379498 
	C360.302734,18.143579 360.658997,20.185810 360.913696,22.640835 
z"/>
<path fill="#ABA4A5" opacity="1.000000" stroke="none" 
	d="
M41.667244,16.275158 
	C42.344067,16.632385 42.638313,17.162386 43.011345,17.985620 
	C43.130310,18.489788 43.170479,18.700722 43.123123,19.221304 
	C39.003761,20.461597 41.862125,17.479115 41.667244,16.275158 
z"/>
<path fill="#D8D4D3" opacity="1.000000" stroke="none" 
	d="
M43.182198,195.515411 
	C42.887489,195.955292 42.550205,195.958450 41.708294,195.910080 
	C41.483116,194.601913 41.762562,193.345291 42.551071,192.270050 
	C43.086628,193.327179 43.113121,194.202942 43.182198,195.515411 
z"/>
<path fill="#D8D4D3" opacity="1.000000" stroke="none" 
	d="
M359.557495,194.587555 
	C358.929047,194.207336 358.916107,193.853348 358.922180,192.968628 
	C359.351807,193.163193 359.762390,193.888504 359.557495,194.587555 
z"/>
<path fill="#D8D4D3" opacity="1.000000" stroke="none" 
	d="
M360.541077,197.022903 
	C360.008331,197.191879 359.655914,196.829910 359.161743,196.113007 
	C359.587128,196.002701 360.154297,196.247330 360.541077,197.022903 
z"/>
<path fill="#F6F5F4" opacity="1.000000" stroke="none" 
	d="
M64.133575,143.927231 
	C64.133728,146.713043 64.133728,149.010468 64.133728,151.592804 
	C61.634331,151.592804 59.561363,151.592804 57.151039,151.592804 
	C57.151039,137.164276 57.151039,122.787941 57.151039,108.472542 
	C57.573082,108.276306 57.852940,108.036835 58.139114,108.029030 
	C66.259560,107.807579 66.291641,107.797752 69.491974,115.300644 
	C72.815018,123.091240 76.067635,130.911880 79.659996,139.453979 
	C83.278267,130.913193 86.644836,122.986282 89.995186,115.052521 
	C93.247612,107.350670 93.240303,107.347580 102.236572,108.326134 
	C102.236572,122.573425 102.236572,136.847763 102.236572,151.496521 
	C99.950943,151.496521 97.748154,151.496521 95.077415,151.496521 
	C95.077415,141.302124 95.077415,131.122803 95.077415,120.943489 
	C94.811172,120.899879 94.544930,120.856262 94.278687,120.812653 
	C90.925018,129.047104 87.491074,137.250366 84.269844,145.536301 
	C83.379776,147.825806 82.346741,148.985199 79.679512,148.998108 
	C76.916916,149.011444 75.506561,148.103790 74.534004,145.493240 
	C71.429497,137.160141 68.082901,128.917206 64.133415,120.791367 
	C64.133415,128.340530 64.133415,135.889694 64.133575,143.927231 
z"/>
<path fill="#F1F0EE" opacity="1.000000" stroke="none" 
	d="
M270.447632,130.000244 
	C270.448334,137.468079 270.448334,144.436035 270.448334,151.247101 
	C264.497131,153.138657 260.877075,151.533844 257.892242,146.310791 
	C252.900269,137.575348 247.124817,129.287628 240.815094,120.995911 
	C240.815094,131.141968 240.815094,141.288010 240.815094,151.652756 
	C238.155014,151.652756 236.041077,151.652756 233.574066,151.652756 
	C233.574066,137.246567 233.574066,122.859039 233.574066,108.460915 
	C239.164505,106.594826 242.747589,108.413719 245.729538,113.519531 
	C250.841217,122.271988 256.620575,130.634506 262.837463,140.273788 
	C262.837463,128.864594 262.837463,118.587105 262.837463,108.135834 
	C265.581055,108.135834 267.691101,108.135834 270.446960,108.135834 
	C270.446960,115.302933 270.446960,122.401649 270.447632,130.000244 
z"/>
<path fill="#F8F7F5" opacity="1.000000" stroke="none" 
	d="
M165.947906,68.635086 
	C165.934128,59.906948 165.934128,51.629269 165.934128,43.108696 
	C168.409866,43.108696 170.498474,43.108696 172.933228,43.108696 
	C172.933228,57.486809 172.933228,71.835327 172.933228,86.209312 
	C167.617630,87.615036 163.955978,86.668900 160.989517,81.426353 
	C155.883194,72.402077 149.886047,63.881863 143.550323,54.043816 
	C143.550323,65.621521 143.550323,75.798126 143.550323,86.323715 
	C141.097931,86.323715 138.901321,86.323715 136.447296,86.323715 
	C136.447296,71.858688 136.447296,57.632298 136.447296,43.307327 
	C141.686996,42.104847 145.414673,42.713852 148.414764,48.072102 
	C153.437088,57.042099 159.465439,65.448822 165.961670,75.467117 
	C165.961670,72.412796 165.961670,70.749168 165.947906,68.635086 
z"/>
<path fill="#F4F3F1" opacity="1.000000" stroke="none" 
	d="
M191.046249,86.689148 
	C188.108276,86.689209 185.644302,86.689209 182.914398,86.689209 
	C182.914398,72.010574 182.914398,57.746651 182.914398,42.498516 
	C190.056458,42.959476 197.246506,42.733261 204.152100,44.026180 
	C215.348190,46.122398 220.470688,53.703102 220.150696,65.854767 
	C219.864868,76.708176 213.672745,84.133781 202.969849,85.963814 
	C199.221558,86.604706 195.340622,86.469742 191.046249,86.689148 
M195.422607,80.089027 
	C201.790451,80.261696 207.699280,79.008812 210.338577,72.467239 
	C212.873550,66.184235 213.155380,59.441940 208.518158,54.008556 
	C203.947479,48.653172 197.367752,49.302296 190.853836,49.522606 
	C190.853836,59.138130 190.978592,68.129066 190.785248,77.113159 
	C190.718796,80.200294 192.307083,80.277191 195.422607,80.089027 
z"/>
<path fill="#F2F1EF" opacity="1.000000" stroke="none" 
	d="
M309.490295,115.899307 
	C299.828003,112.544907 293.225494,113.788986 289.284760,119.505585 
	C285.554932,124.916229 285.485443,135.620621 289.381866,140.863220 
	C293.942780,146.999847 300.184052,146.351379 306.916626,144.721298 
	C306.916626,141.477570 306.916626,138.237213 306.916626,134.536407 
	C304.156952,134.536407 301.402069,134.536407 298.352051,134.536407 
	C298.352051,132.212509 298.352051,130.335449 298.352051,128.193298 
	C303.766754,128.193298 309.031006,128.193298 315.010712,128.193298 
	C315.010712,134.541016 315.104431,140.958633 314.905579,147.367157 
	C314.877106,148.285675 313.509857,149.851868 312.636597,149.945374 
	C305.965515,150.659653 299.081604,152.288101 292.613464,151.313019 
	C283.012909,149.865738 277.879059,140.991898 278.033112,129.299179 
	C278.174744,118.546211 284.106384,110.342789 293.599548,108.164505 
	C300.590912,106.560295 307.424500,107.013153 315.035156,111.255257 
	C313.047058,113.082558 311.440674,114.559006 309.490295,115.899307 
z"/>
<path fill="#F7F6F5" opacity="1.000000" stroke="none" 
	d="
M91.947479,51.048756 
	C91.947639,48.238331 91.947639,45.919899 91.947639,43.234482 
	C94.550652,43.234482 96.962318,43.234482 100.103775,43.234482 
	C100.103775,52.257442 100.023560,61.516865 100.130112,70.774139 
	C100.210014,77.716522 103.380646,80.844307 109.811203,80.688911 
	C115.686768,80.546928 118.741920,77.756721 118.905899,71.785431 
	C119.116272,64.124702 118.993004,56.454792 119.011490,48.788830 
	C119.015816,46.993446 119.012123,45.198048 119.012123,43.144703 
	C121.857391,43.144703 124.260178,43.144703 126.973976,43.144703 
	C126.973976,53.549255 127.487816,63.862442 126.828049,74.099991 
	C126.180977,84.140488 115.573952,89.590591 103.793396,86.716545 
	C96.494576,84.935883 92.321320,80.095238 92.069191,72.537575 
	C91.835922,65.545059 91.973213,58.540180 91.947479,51.048756 
z"/>
<path fill="#F3F1F0" opacity="1.000000" stroke="none" 
	d="
M224.251862,83.094673 
	C229.274429,69.511772 234.157166,56.281509 239.063553,42.987171 
	C242.068893,42.987171 244.870972,42.987171 248.005096,42.987171 
	C253.195267,57.310463 258.373474,71.600716 263.574524,85.954048 
	C255.844788,87.561531 255.896988,87.509857 253.477188,81.096924 
	C252.585114,78.732773 251.500412,74.939644 249.930740,74.621117 
	C245.630630,73.748528 240.965546,73.985893 236.583130,74.669586 
	C235.420120,74.851036 234.592911,78.170631 233.891678,80.148666 
	C231.384827,87.219940 231.430389,87.236092 223.437866,86.232674 
	C223.668076,85.281563 223.890045,84.364441 224.251862,83.094673 
M240.502029,60.021591 
	C239.739349,62.611237 238.976669,65.200882 238.151459,68.002853 
	C242.015564,68.002853 245.297485,68.002853 249.005783,68.002853 
	C247.221191,62.330025 245.535370,56.971210 243.550705,50.662403 
	C242.401154,54.250298 241.593933,56.769703 240.502029,60.021591 
z"/>
<path fill="#F1F0EF" opacity="1.000000" stroke="none" 
	d="
M162.892120,114.401924 
	C159.953217,114.402367 157.505508,114.402367 154.754822,114.402367 
	C154.754822,118.294136 154.754822,121.700447 154.754822,125.565643 
	C160.313416,125.565643 165.739868,125.565643 171.476929,125.565643 
	C171.476929,127.897415 171.476929,129.775772 171.476929,132.114044 
	C165.896103,132.114044 160.473785,132.114044 154.771667,132.114044 
	C154.771667,136.623383 154.771667,140.680069 154.771667,145.186920 
	C160.787628,145.186920 166.707031,145.186920 172.896042,145.186920 
	C172.896042,147.524933 172.896042,149.419266 172.896042,151.603851 
	C164.105270,151.603851 155.525452,151.603851 146.574463,151.603851 
	C146.574463,137.195053 146.574463,122.833817 146.574463,108.195084 
	C155.322739,108.195084 163.890274,108.195084 172.701050,108.195084 
	C172.701050,110.084709 172.701050,111.839325 172.701050,114.401482 
	C169.528702,114.401482 166.455994,114.401482 162.892120,114.401924 
z"/>
<path fill="#F1EFEE" opacity="1.000000" stroke="none" 
	d="
M317.248901,55.641281 
	C318.053772,47.144577 321.255493,43.101212 329.113739,42.515537 
	C334.673615,42.101151 340.357880,43.356522 346.916718,43.950771 
	C345.629089,47.281113 344.945374,49.049469 344.361481,50.559589 
	C339.924164,49.933132 335.896942,49.092594 331.836975,48.881405 
	C328.837036,48.725357 326.209778,49.973499 325.875732,53.563396 
	C325.575012,56.795479 327.413391,58.321121 330.326630,59.191856 
	C333.655151,60.186737 336.982452,61.284927 340.149780,62.697975 
	C345.606445,65.132362 348.061951,69.290848 347.773651,74.908813 
	C347.493622,80.365242 344.440613,84.444016 338.727478,86.132729 
	C331.413513,88.294624 324.318481,87.445892 317.120209,83.554367 
	C317.790833,81.504471 318.427643,79.557808 318.963531,77.919731 
	C323.428162,78.874382 327.403687,80.133484 331.455505,80.467934 
	C335.020844,80.762238 338.611115,79.855804 339.235016,75.277367 
	C339.821564,70.973282 336.881714,69.472733 333.508942,68.403168 
	C330.978760,67.600815 328.430084,66.854729 325.913025,66.013603 
	C321.078644,64.398117 318.128571,61.122974 317.248901,55.641281 
z"/>
<path fill="#F2F1EF" opacity="1.000000" stroke="none" 
	d="
M80.281425,43.551125 
	C81.804329,44.271713 82.956413,44.832397 84.257896,45.465790 
	C83.446854,47.416973 82.758797,49.072289 82.103516,50.648762 
	C78.081779,49.993301 74.237503,49.087219 70.349915,48.826084 
	C67.499687,48.634636 64.540657,49.296894 63.862675,52.904690 
	C63.162670,56.629673 65.262794,58.322803 68.538345,59.319363 
	C71.866119,60.331806 75.212929,61.402412 78.360374,62.860039 
	C83.833687,65.394806 85.905289,69.336891 85.488197,75.303825 
	C85.090553,80.992439 81.976715,84.510704 76.695877,86.105804 
	C69.355263,88.323074 62.299076,87.289932 55.013157,83.716286 
	C55.625320,81.664345 56.208817,79.708488 56.697971,78.068855 
	C61.529812,78.931366 65.842583,80.023460 70.215065,80.376953 
	C73.547333,80.646347 76.571167,79.340225 77.108360,75.381020 
	C77.636322,71.489822 75.294601,69.650879 71.919540,68.623802 
	C68.903725,67.706047 65.852425,66.848412 62.938385,65.664848 
	C57.460308,63.439888 54.666100,58.947186 55.149357,53.608810 
	C55.649990,48.078396 58.805283,43.865669 64.688896,43.059742 
	C69.654495,42.379559 74.828720,43.222462 80.281425,43.551125 
z"/>
<path fill="#F2F0EE" opacity="1.000000" stroke="none" 
	d="
M135.000000,185.119568 
	C108.424919,185.120468 82.349831,185.120468 56.274750,185.120468 
	C56.147938,184.479416 56.021122,183.838348 55.894306,183.197296 
	C57.513783,182.786102 59.131634,182.023788 60.752975,182.016296 
	C85.732506,181.900909 110.712585,181.912537 135.692368,181.837082 
	C174.993546,181.718369 214.294586,181.556259 253.595688,181.413223 
	C254.751190,181.409012 255.906723,181.412704 257.335052,181.412704 
	C257.541992,180.303421 257.534546,179.309738 257.931519,178.519135 
	C258.296478,177.792267 259.096802,177.283981 259.705322,176.679382 
	C260.172913,177.257660 261.025665,177.823151 261.045349,178.416290 
	C261.169312,182.148422 261.108093,185.886703 261.108093,189.622955 
	C260.518219,189.766418 259.928345,189.909866 259.338470,190.053314 
	C258.626770,188.449478 257.915070,186.845657 257.148712,185.118652 
	C216.725204,185.118652 176.112610,185.118652 135.000000,185.119568 
z"/>
<path fill="#F6F4F4" opacity="1.000000" stroke="none" 
	d="
M120.072067,122.757584 
	C121.125267,124.052094 122.138191,125.543839 123.239738,125.612442 
	C127.685493,125.889320 132.158585,125.727234 136.908051,125.727234 
	C136.908051,127.914604 136.908051,129.796280 136.908051,132.147125 
	C131.353867,132.147125 125.940598,132.147125 120.302452,132.147125 
	C120.302452,136.670441 120.302452,140.734940 120.302452,145.250793 
	C126.424469,145.250793 132.346313,145.250793 138.558548,145.250793 
	C138.558548,147.564163 138.558548,149.427399 138.558548,151.585297 
	C129.690659,151.585297 121.114319,151.585297 112.219925,151.585297 
	C112.219925,137.147217 112.219925,122.794373 112.219925,108.189774 
	C120.919411,108.189774 129.487473,108.189774 138.206940,108.189774 
	C138.206940,110.110855 138.206940,111.876709 138.206940,114.286545 
	C132.204407,114.286545 126.326691,114.286545 120.072525,114.286545 
	C120.072525,117.383850 120.072525,119.842247 120.072067,122.757584 
z"/>
<path fill="#EFEEED" opacity="1.000000" stroke="none" 
	d="
M288.454865,65.856667 
	C287.661072,70.050232 286.957153,73.905312 286.596741,77.792236 
	C286.340424,80.556175 286.546997,83.363045 286.546997,86.418869 
	C283.651398,86.418869 281.251129,86.418869 277.700989,86.418869 
	C282.533478,69.025444 270.489258,57.328236 263.797516,43.749783 
	C270.844025,41.754887 271.717651,42.097603 274.873260,47.876484 
	C277.258881,52.245235 279.661194,56.604858 282.386810,61.571129 
	C285.096771,56.788422 287.984467,52.724407 289.798981,48.227375 
	C292.045349,42.660110 295.795013,41.980473 301.265656,43.358147 
	C297.008057,50.866192 292.849823,58.198994 288.454865,65.856667 
z"/>
<path fill="#F5F4F2" opacity="1.000000" stroke="none" 
	d="
M176.475311,112.586716 
	C176.555328,110.876503 176.640259,109.590240 176.733810,108.173424 
	C187.936478,108.173424 198.842056,108.173424 209.950897,108.173424 
	C209.950897,110.175041 209.950897,111.947571 209.950897,114.429245 
	C205.904465,114.429245 201.873947,114.429245 197.411072,114.429245 
	C197.411072,127.204041 197.411072,139.285873 197.411072,151.614914 
	C194.538391,151.614914 192.130859,151.614914 189.304962,151.614914 
	C189.304962,139.375458 189.304962,127.297699 189.304962,114.502289 
	C186.175842,114.502289 183.415665,114.665215 180.688492,114.435768 
	C179.255905,114.315231 177.881119,113.507881 176.475311,112.586716 
z"/>
<path fill="#E4E3E1" opacity="1.000000" stroke="none" 
	d="
M215.347961,115.127548 
	C215.346466,112.521736 215.346466,110.398628 215.346466,108.120071 
	C218.316895,108.120071 220.745102,108.120071 223.425232,108.120071 
	C223.425232,122.716606 223.425232,137.083588 223.425232,151.645920 
	C220.719086,151.645920 218.311890,151.645920 215.349472,151.645920 
	C215.349472,139.461670 215.349472,127.535965 215.347961,115.127548 
z"/>
<path fill="#EBE9E8" opacity="1.000000" stroke="none" 
	d="
M305.431854,43.026955 
	C307.314026,42.919060 308.775085,42.919060 310.764801,42.919060 
	C310.482330,48.269081 310.216858,53.297329 309.934784,58.639771 
	C308.410553,58.639771 307.051331,58.639771 305.010742,58.639771 
	C305.010742,53.425152 305.010742,48.279999 305.431854,43.026955 
z"/>
<path fill="#C6C2C2" opacity="1.000000" stroke="none" 
	d="
M275.144562,188.004761 
	C272.243988,187.818100 268.332642,191.476227 266.875305,185.084137 
	C266.838287,183.890610 266.793640,183.441788 266.748962,182.992950 
	C266.748962,180.535355 266.748962,178.077744 266.748962,175.436707 
	C269.728638,175.436707 272.169525,175.436707 274.739014,176.083755 
	C273.162018,177.541901 271.456360,178.352997 269.750702,179.164093 
	C271.243958,179.808929 272.746307,180.434418 274.217346,181.126495 
	C274.376373,181.201309 274.353882,181.661942 274.478973,182.232925 
	C273.952301,182.426819 273.353027,182.566788 272.836090,182.854553 
	C271.767853,183.449173 270.743500,184.122528 269.701111,184.763519 
	C270.701965,185.285156 271.726440,185.766907 272.696594,186.340439 
	C273.544312,186.841568 274.330933,187.445984 275.144562,188.004761 
z"/>
<path fill="#D5D1D0" opacity="1.000000" stroke="none" 
	d="
M277.658386,176.249710 
	C282.630646,174.353882 283.643188,174.558609 283.915222,177.619049 
	C282.000031,177.735458 280.827362,177.897766 279.654724,178.060074 
	C279.628113,178.574265 279.601501,179.088455 279.574860,179.602646 
	C280.872589,180.031158 282.170288,180.459686 283.468018,180.888214 
	C284.092316,182.827560 284.716614,184.766922 285.340881,186.706268 
	C282.804688,187.193619 280.268494,187.680954 277.363037,187.659302 
	C279.024536,186.629135 281.055267,186.107956 283.567841,185.463120 
	C281.590759,181.906494 273.971680,182.467239 277.658386,176.249710 
z"/>
<path fill="#D5D1D0" opacity="1.000000" stroke="none" 
	d="
M336.814911,185.993362 
	C337.735962,185.050293 338.823700,184.217255 339.536957,183.136978 
	C340.482300,181.705185 341.135010,180.080200 341.913452,178.538223 
	C340.361664,178.079788 338.809875,177.621338 337.258087,177.162903 
	C337.129364,176.785873 337.000610,176.408829 336.871857,176.031799 
	C338.852661,175.935471 341.101471,175.193710 342.756836,175.881134 
	C345.916199,177.193054 345.475464,179.028366 340.623077,186.202316 
	C342.001526,186.569733 343.309998,186.918472 344.618439,187.267212 
	C344.565338,187.738144 344.512238,188.209076 344.459167,188.679993 
	C341.911224,188.392975 339.363281,188.105957 336.775024,187.193176 
	C336.761444,186.376068 336.788177,186.184723 336.814911,185.993362 
z"/>
<path fill="#D5D1D0" opacity="1.000000" stroke="none" 
	d="
M313.491821,188.830093 
	C313.154724,188.790131 312.817627,188.750168 311.916107,188.675629 
	C310.902283,188.726852 310.452850,188.812637 310.003448,188.898438 
	C308.771454,188.607468 307.539490,188.316528 305.548889,187.846436 
	C307.008759,185.997833 308.215210,184.721283 309.118958,183.257782 
	C310.097565,181.673141 310.793854,179.914154 311.613281,178.231201 
	C310.019257,177.900040 308.425232,177.568878 306.857666,177.243210 
	C309.989838,173.671570 312.703796,174.340271 314.267120,179.806900 
	C312.878113,182.288300 311.640137,184.120987 310.775238,185.401398 
	C311.762878,186.647919 312.627350,187.739014 313.491821,188.830093 
z"/>
<path fill="#E4E3E1" opacity="1.000000" stroke="none" 
	d="
M322.010529,188.701843 
	C322.010529,188.701843 321.818878,188.613907 321.522614,188.459137 
	C320.828247,188.323456 320.430115,188.342545 320.032013,188.361618 
	C319.848389,188.378586 319.664795,188.395554 318.897217,188.229034 
	C317.487091,185.361679 316.660919,182.677811 315.834778,179.993958 
	C316.707214,177.112961 318.124023,174.579926 321.622559,175.307846 
	C325.005981,176.011810 325.371613,178.791733 325.082336,181.765076 
	C324.972626,182.892700 325.169586,184.050140 324.872681,185.686081 
	C323.682587,187.019394 322.846558,187.860611 322.010529,188.701843 
M322.105133,177.810486 
	C317.885925,177.945724 317.180786,180.924561 320.115295,187.139862 
	C324.563782,185.201935 322.762207,181.555496 322.105133,177.810486 
z"/>
<path fill="#120A0B" opacity="1.000000" stroke="none" 
	d="
M277.243805,176.184631 
	C273.971680,182.467239 281.590759,181.906494 283.567841,185.463120 
	C281.055267,186.107956 279.024536,186.629135 277.001160,187.573654 
	C276.594299,187.999756 276.180115,188.002518 275.455231,188.005035 
	C274.330933,187.445984 273.544312,186.841568 272.696594,186.340439 
	C271.726440,185.766907 270.701965,185.285156 269.701111,184.763519 
	C270.743500,184.122528 271.767853,183.449173 272.836090,182.854553 
	C273.353027,182.566788 273.952301,182.426819 274.478973,182.232925 
	C274.353882,181.661942 274.376373,181.201309 274.217346,181.126495 
	C272.746307,180.434418 271.243958,179.808929 269.750702,179.164093 
	C271.456360,178.352997 273.162018,177.541901 275.011719,176.363174 
	C275.713593,176.036880 276.271423,176.078201 277.243805,176.184631 
z"/>
<path fill="#C6C2C2" opacity="1.000000" stroke="none" 
	d="
M295.048248,177.522705 
	C294.092316,179.038971 293.274750,180.481476 293.076660,182.004532 
	C292.806732,184.079788 293.009338,186.216507 293.009338,188.326859 
	C292.347626,188.425903 291.685913,188.524948 291.024200,188.623993 
	C290.738159,186.825851 290.301758,185.036102 290.200745,183.227631 
	C290.043304,180.407990 291.222046,177.002121 285.777313,176.978180 
	C286.061646,176.486404 286.346008,175.994614 286.630371,175.502838 
	C289.675934,175.502838 292.721497,175.502838 295.767059,175.502838 
	C295.665588,176.163498 295.564117,176.824173 295.048248,177.522705 
z"/>
<path fill="#120A0B" opacity="1.000000" stroke="none" 
	d="
M322.052917,189.062225 
	C322.846558,187.860611 323.682587,187.019394 324.807861,186.089355 
	C326.168396,185.688477 327.239716,185.376404 329.023041,185.080536 
	C330.491455,185.069229 331.247894,185.041702 332.004333,185.014175 
	C333.360687,185.339676 334.717072,185.665176 336.444153,185.992004 
	C336.788177,186.184723 336.761444,186.376068 336.617432,186.832458 
	C332.432068,188.310883 328.382477,189.596054 324.274872,190.656204 
	C323.693207,190.806335 322.828796,189.860947 322.052917,189.062225 
M327.562195,187.510208 
	C327.562195,187.510208 327.473297,187.557785 327.562195,187.510208 
z"/>
<path fill="#D8D4D3" opacity="1.000000" stroke="none" 
	d="
M332.153015,184.684235 
	C331.247894,185.041702 330.491455,185.069229 329.358643,185.050674 
	C329.217407,184.589890 329.457703,184.178009 329.686707,183.759949 
	C330.668701,181.967407 331.647339,180.173035 332.627167,178.379333 
	C330.950256,177.939911 329.273315,177.500504 326.913300,176.882080 
	C329.529449,174.692505 332.144257,174.178329 334.006165,176.381088 
	C334.980438,177.533707 334.412628,180.177399 334.154846,182.095749 
	C334.044525,182.916779 332.949402,183.605469 332.153015,184.684235 
z"/>
<path fill="#120A0B" opacity="1.000000" stroke="none" 
	d="
M315.485046,179.959442 
	C316.660919,182.677811 317.487091,185.361679 318.623840,188.271240 
	C317.351959,188.646698 315.769470,188.796432 313.839386,188.888123 
	C312.627350,187.739014 311.762878,186.647919 310.775238,185.401398 
	C311.640137,184.120987 312.878113,182.288300 314.276001,180.155853 
	C314.669067,179.879028 314.902222,179.901978 315.485046,179.959442 
z"/>
<path fill="#120A0B" opacity="1.000000" stroke="none" 
	d="
M283.607574,180.417114 
	C282.170288,180.459686 280.872589,180.031158 279.574860,179.602646 
	C279.601501,179.088455 279.628113,178.574265 279.654724,178.060074 
	C280.827362,177.897766 282.000031,177.735458 283.586304,177.786041 
	C283.915680,178.647949 283.831421,179.296982 283.607574,180.417114 
z"/>
<path fill="#120A0B" opacity="1.000000" stroke="none" 
	d="
M310.010101,189.245667 
	C310.452850,188.812637 310.902283,188.726852 311.674500,188.774841 
	C311.697540,189.746048 311.397766,190.583481 311.098022,191.420929 
	C310.737579,190.811569 310.377167,190.202225 310.010101,189.245667 
z"/>
<path fill="#120A0B" opacity="1.000000" stroke="none" 
	d="
M268.958008,172.729126 
	C268.349396,172.732498 267.916901,172.623795 267.522736,172.435013 
	C267.477905,172.413528 267.648438,171.942520 267.719086,171.679947 
	C268.194550,171.984421 268.670044,172.288879 268.958008,172.729126 
z"/>
<path fill="#120A0B" opacity="1.000000" stroke="none" 
	d="
M266.485382,183.047089 
	C266.793640,183.441788 266.838287,183.890610 266.818176,184.673325 
	C266.576233,184.371872 266.399017,183.736542 266.485382,183.047089 
z"/>
<path fill="#120A0B" opacity="1.000000" stroke="none" 
	d="
M320.277161,188.516098 
	C320.430115,188.342545 320.828247,188.323456 321.447784,188.533417 
	C321.286896,188.731827 320.904602,188.701202 320.277161,188.516098 
z"/>
<path fill="#120A0B" opacity="1.000000" stroke="none" 
	d="
M331.537903,193.477249 
	C331.561890,193.521362 331.513947,193.433136 331.537903,193.477249 
z"/>
<path fill="#120A0B" opacity="1.000000" stroke="none" 
	d="
M263.522949,181.537750 
	C263.478973,181.561630 263.566925,181.513885 263.522949,181.537750 
z"/>
<path fill="#0F0708" opacity="1.000000" stroke="none" 
	d="
M194.953522,80.087402 
	C192.307083,80.277191 190.718796,80.200294 190.785248,77.113159 
	C190.978592,68.129066 190.853836,59.138130 190.853836,49.522606 
	C197.367752,49.302296 203.947479,48.653172 208.518158,54.008556 
	C213.155380,59.441940 212.873550,66.184235 210.338577,72.467239 
	C207.699280,79.008812 201.790451,80.261696 194.953522,80.087402 
z"/>
<path fill="#181614" opacity="1.000000" stroke="none" 
	d="
M240.644379,59.655350 
	C241.593933,56.769703 242.401154,54.250298 243.550705,50.662403 
	C245.535370,56.971210 247.221191,62.330025 249.005783,68.002853 
	C245.297485,68.002853 242.015564,68.002853 238.151459,68.002853 
	C238.976669,65.200882 239.739349,62.611237 240.644379,59.655350 
z"/>
<path fill="#181614" opacity="1.000000" stroke="none" 
	d="
M322.361847,178.121185 
	C322.762207,181.555496 324.563782,185.201935 320.115295,187.139862 
	C317.180786,180.924561 317.885925,177.945724 322.361847,178.121185 
z"/>
<path fill="#0E0506" opacity="1.000000" stroke="none" 
	d="
M327.517761,187.533997 
	C327.473297,187.557785 327.562195,187.510208 327.517761,187.533997 
z"/>
</svg>