<svg version="1.1" id="Layer_1" xmlns="http://www.w3.org/2000/svg" xmlns:xlink="http://www.w3.org/1999/xlink" x="0px" y="0px"
	 width="100%" viewBox="0 0 828 828" enable-background="new 0 0 828 828" xml:space="preserve">
<path fill="#020003" opacity="1.000000" stroke="none" 
	d="
M439.000000,829.000000 
	C292.666718,829.000000 146.833420,829.000000 1.000098,829.000000 
	C1.000065,553.000122 1.000065,277.000244 1.000033,1.000283 
	C276.999786,1.000189 552.999573,1.000189 828.999512,1.000094 
	C828.999695,276.999725 828.999695,552.999451 828.999878,828.999573 
	C699.166687,829.000000 569.333313,829.000000 439.000000,829.000000 
M525.044312,167.611130 
	C523.805298,167.121979 522.558044,166.652496 521.328369,166.140808 
	C474.725128,146.748535 426.335297,140.534378 376.449799,147.614960 
	C320.364502,155.575500 270.945404,178.476624 229.019821,216.669754 
	C176.294907,264.700775 146.479843,324.592316 139.219086,395.437195 
	C134.460220,441.870575 141.487549,486.756989 159.752060,529.795105 
	C183.634048,586.070007 221.864059,630.002197 274.506195,660.897461 
	C328.245361,692.436523 386.427765,704.459351 448.362915,697.067322 
	C498.584076,691.073486 544.219849,673.030090 584.006653,641.757690 
	C648.695129,590.912720 684.689392,524.194336 691.367126,442.043884 
	C695.169373,395.267090 687.050842,350.361542 667.563782,307.758881 
	C638.064941,243.268555 590.391968,196.903244 525.044312,167.611130 
z"/>
<path fill="#F3F1F3" opacity="1.000000" stroke="none" 
	d="
M525.396851,167.753021 
	C590.391968,196.903244 638.064941,243.268555 667.563782,307.758881 
	C687.050842,350.361542 695.169373,395.267090 691.367126,442.043884 
	C684.689392,524.194336 648.695129,590.912720 584.006653,641.757690 
	C544.219849,673.030090 498.584076,691.073486 448.362915,697.067322 
	C386.427765,704.459351 328.245361,692.436523 274.506195,660.897461 
	C221.864059,630.002197 183.634048,586.070007 159.752060,529.795105 
	C141.487549,486.756989 134.460220,441.870575 139.219086,395.437195 
	C146.479843,324.592316 176.294907,264.700775 229.019821,216.669754 
	C270.945404,178.476624 320.364502,155.575500 376.449799,147.614960 
	C426.335297,140.534378 474.725128,146.748535 521.328369,166.140808 
	C522.558044,166.652496 523.805298,167.121979 525.396851,167.753021 
M681.995605,422.492828 
	C682.139160,378.846344 672.061462,337.599121 651.939941,298.971466 
	C629.364136,255.632462 597.301086,220.760422 555.595520,195.168701 
	C503.286346,163.070312 446.466980,150.023575 385.385620,156.903580 
	C325.260284,163.675888 273.150299,188.062790 229.687515,230.151794 
	C182.489365,275.858063 155.853668,331.824707 149.276886,397.103912 
	C145.276520,436.810303 150.424759,475.575256 164.166321,513.094849 
	C184.799469,569.431030 220.318512,614.197083 270.722656,646.497803 
	C324.373932,680.879395 383.272186,694.445557 446.749725,686.992920 
	C497.864227,680.991699 543.762878,661.931335 583.275391,629.156982 
	C647.490479,575.892517 680.235657,506.993164 681.995605,422.492828 
z"/>
<path fill="#060306" opacity="1.000000" stroke="none" 
	d="
M681.994934,422.988983 
	C680.235657,506.993164 647.490479,575.892517 583.275391,629.156982 
	C543.762878,661.931335 497.864227,680.991699 446.749725,686.992920 
	C383.272186,694.445557 324.373932,680.879395 270.722656,646.497803 
	C220.318512,614.197083 184.799469,569.431030 164.166321,513.094849 
	C150.424759,475.575256 145.276520,436.810303 149.276886,397.103912 
	C155.853668,331.824707 182.489365,275.858063 229.687515,230.151794 
	C273.150299,188.062790 325.260284,163.675888 385.385620,156.903580 
	C446.466980,150.023575 503.286346,163.070312 555.595520,195.168701 
	C597.301086,220.760422 629.364136,255.632462 651.939941,298.971466 
	C672.061462,337.599121 682.139160,378.846344 681.994934,422.988983 
M543.473083,350.872406 
	C552.123474,330.129089 545.923218,307.104309 527.523254,292.140076 
	C517.614868,284.081848 506.940216,279.285736 493.397308,279.613037 
	C461.092285,280.393707 428.755585,279.864777 396.431702,279.864777 
	C394.667664,279.864777 392.903625,279.864777 391.202454,279.864777 
	C391.202454,295.196075 391.202454,309.899689 391.202454,324.889618 
	C393.436615,324.889618 395.248840,324.889679 397.061066,324.889587 
	C424.719666,324.888489 452.378265,324.872253 480.036774,324.918579 
	C481.986298,324.921844 484.170990,324.906494 485.840332,325.726410 
	C491.088348,328.304047 493.718048,334.934204 492.159698,340.666046 
	C490.567841,346.521088 486.609100,349.396027 480.009949,349.396179 
	C443.187439,349.397003 406.364899,349.372345 369.542419,349.399933 
	C367.399292,349.401520 365.121613,349.384247 363.134918,350.053589 
	C347.971802,355.162079 335.512512,363.907471 327.277435,377.899506 
	C326.006378,380.059082 325.264923,382.872559 325.260437,385.385376 
	C325.148010,448.700012 325.167084,512.014893 325.163025,575.329712 
	C325.162903,577.230957 325.163025,579.132141 325.163025,580.884644 
	C343.735626,580.884644 361.460876,580.884644 379.334015,580.884644 
	C379.334015,578.630615 379.331543,576.801025 379.334351,574.971497 
	C379.427490,514.658875 379.516724,454.346313 379.619812,394.033722 
	C379.634460,385.469971 381.331207,383.784180 389.778351,383.783203 
	C427.267395,383.778870 464.756470,383.788452 502.245483,383.749634 
	C504.383331,383.747406 506.729553,383.861572 508.625427,383.072571 
	C523.879272,376.724365 536.160889,367.022644 543.473083,350.872406 
M474.494415,477.491760 
	C446.716003,477.491760 418.937561,477.491760 391.027557,477.491760 
	C391.027557,490.981659 391.027557,503.890350 391.027557,517.191345 
	C393.087494,517.191345 394.890076,517.175293 396.692291,517.193848 
	C419.678131,517.430420 442.664490,517.631531 465.649414,517.937256 
	C472.353302,518.026428 476.901489,522.956665 476.893280,529.753479 
	C476.885040,536.571106 471.745697,541.914062 465.143188,541.915710 
	C442.316315,541.921265 419.489441,541.910339 396.662567,541.905762 
	C394.873535,541.905396 393.084503,541.905762 391.124634,541.905762 
	C391.124634,555.272278 391.124634,568.136597 391.124634,581.076233 
	C392.139282,581.172180 392.787903,581.287048 393.436523,581.287170 
	C425.260895,581.295410 457.085297,581.310486 488.909546,581.248718 
	C490.687622,581.245239 492.710999,581.027710 494.198608,580.174561 
	C500.238892,576.710327 506.704193,573.650513 511.940979,569.184753 
	C528.005859,555.485168 535.302856,538.329468 529.835449,517.104553 
	C526.579224,504.463287 518.723755,495.013580 508.517517,487.196259 
	C498.705200,479.680664 487.921417,475.891571 474.494415,477.491760 
M454.500000,406.997559 
	C450.000061,406.997559 445.500092,406.995544 441.000153,406.997925 
	C426.000488,407.005859 411.000824,407.033325 396.001221,407.009674 
	C392.868134,407.004730 390.087738,407.534851 390.145508,411.414032 
	C390.301453,421.885529 390.678558,432.353638 390.858734,442.824951 
	C390.915924,446.150391 392.595001,447.023132 395.621155,447.019257 
	C435.786987,446.967529 475.953033,447.022461 516.118347,446.865540 
	C518.132751,446.857666 520.878723,445.709778 522.031555,444.160614 
	C529.442627,434.201538 536.560547,424.021362 543.619263,413.806305 
	C544.673950,412.280060 544.911194,410.188934 545.526550,408.359100 
	C543.683838,407.905029 541.842224,407.060852 539.998169,407.055359 
	C511.832306,406.971588 483.666107,406.997345 454.500000,406.997559 
M611.256897,526.826477 
	C609.952148,529.295654 608.897461,531.941284 607.300476,534.204285 
	C599.284607,545.563110 591.207214,556.880981 582.967712,568.078064 
	C580.642151,571.238403 580.481018,573.640869 583.707947,576.107239 
	C586.802551,578.472412 588.998230,578.113281 591.705261,575.039673 
	C608.541260,555.923706 621.401672,534.387817 631.073425,510.926025 
	C639.654541,490.109833 645.965088,468.582092 646.888489,445.990601 
	C647.612854,428.269379 648.364014,410.337158 646.506836,392.773224 
	C643.867004,367.808319 636.426025,343.963806 625.391052,321.099731 
	C615.183289,299.949432 602.100647,281.055023 586.670044,263.591339 
	C586.019958,262.855591 584.633850,262.141571 583.779541,262.320343 
	C579.319824,263.253357 576.991028,269.437408 579.727356,272.970795 
	C585.913696,280.959259 592.751404,288.508392 598.287720,296.918488 
	C605.165466,307.366272 611.808716,318.126801 617.051697,329.447662 
	C622.249756,340.671692 626.404907,352.546478 629.510803,364.526459 
	C632.904968,377.618256 635.840515,391.074707 636.722473,404.520020 
	C638.478882,431.294556 637.141602,458.117126 628.678223,483.850555 
	C623.936584,498.267670 617.348572,512.077515 611.256897,526.826477 
M206.470078,313.955841 
	C205.318817,316.338287 204.183914,318.728790 203.013779,321.101959 
	C189.554382,348.398987 182.203781,377.409973 180.248428,407.626678 
	C178.743134,430.888672 180.019089,454.225372 186.379684,476.772736 
	C190.854309,492.634552 195.890228,508.547882 202.795425,523.456360 
	C209.993927,538.997986 218.456375,554.178772 230.329681,566.983521 
	C232.100327,568.893127 232.961853,572.778625 236.670624,569.691467 
	C239.664536,567.199341 242.472321,564.919006 238.895096,560.287781 
	C233.563324,553.385071 229.042587,545.862305 224.002701,538.726318 
	C212.389526,522.283142 205.287582,503.748169 200.114517,484.592072 
	C196.372711,470.736023 193.952011,456.449341 191.963303,442.212036 
	C189.327347,423.340942 190.244583,404.267670 193.888733,385.687256 
	C196.897354,370.347137 201.676056,355.259827 206.810867,340.456085 
	C212.627853,323.685608 221.219528,308.141968 231.734283,293.787537 
	C236.725296,286.973938 242.178238,280.495300 247.509567,273.936188 
	C249.557632,271.416473 249.407059,269.221924 247.320816,266.843628 
	C243.783569,262.811157 241.786057,262.901306 237.441818,268.226379 
	C225.921158,282.348114 214.916916,296.840179 206.470078,313.955841 
M345.968353,206.641541 
	C346.676483,203.196091 348.363739,203.032166 350.780243,205.185028 
	C356.476868,210.260178 362.070435,215.461868 367.962830,220.299072 
	C369.516174,221.574249 372.483795,222.741058 373.928467,222.071884 
	C375.322540,221.426147 376.369812,218.284790 376.218292,216.345306 
	C375.479828,206.892761 374.304626,197.473755 373.250549,188.046631 
	C372.741821,183.496780 372.159393,178.955139 371.548889,173.900986 
	C368.517731,174.900360 366.100861,175.697235 363.482727,176.560440 
	C364.565033,186.736740 365.591736,196.390320 366.767181,207.442505 
	C360.595398,201.959229 355.445465,197.352615 350.260376,192.785919 
	C344.968323,188.125015 342.446136,188.797653 340.478760,195.398148 
	C339.433990,198.903336 338.524414,202.448730 337.489410,205.956985 
	C336.552277,209.133331 335.527740,212.283859 334.180603,216.603806 
	C329.148285,206.635162 324.757141,197.936661 320.288849,189.085297 
	C317.463043,189.889465 314.982178,190.595474 312.026245,191.436676 
	C318.541046,204.498215 324.670013,217.021164 331.091431,229.392334 
	C331.993652,231.130524 334.434235,233.285019 335.968262,233.143188 
	C337.543365,232.997589 339.606384,230.500092 340.191498,228.635162 
	C342.378632,221.664139 344.047638,214.530563 345.968353,206.641541 
M307.010956,605.056213 
	C314.256409,609.633789 321.501892,614.211304 329.038635,618.972900 
	C330.735748,616.264099 332.094116,614.095947 333.565826,611.746948 
	C322.327881,604.679504 311.570923,597.914551 300.530731,590.971436 
	C297.493652,595.847046 294.582062,600.093994 292.113831,604.584534 
	C288.486847,611.183289 289.960541,616.671387 296.325623,620.949219 
	C300.739349,623.915527 305.194550,626.848450 309.820190,629.461853 
	C313.398590,631.483521 314.529968,633.500732 312.050995,637.319702 
	C309.413330,641.383179 306.888336,640.359009 303.787537,638.163940 
	C300.804504,636.052429 297.646149,634.186279 294.542450,632.248108 
	C289.825562,629.302551 285.089355,626.387817 280.171783,623.342590 
	C278.498840,625.951904 277.179871,628.009155 275.644501,630.403931 
	C284.236542,635.864868 292.456238,641.178955 300.767517,646.345642 
	C308.610352,651.221252 314.232727,649.536621 319.812439,640.844055 
	C324.149414,634.087524 322.626892,627.641602 315.485962,622.973022 
	C310.615936,619.789185 305.640198,616.767334 300.758820,613.600525 
	C297.491760,611.481018 298.937408,609.163696 300.607574,606.849365 
	C302.050873,604.849304 302.877686,601.380188 307.010956,605.056213 
M299.341858,242.879135 
	C295.021301,245.561386 290.700714,248.243622 286.440216,250.888565 
	C280.105194,242.795563 280.200073,242.267166 288.079468,237.432892 
	C292.189972,234.910919 296.401611,232.515289 300.295349,229.687775 
	C305.546997,225.874146 306.736755,219.608215 303.647797,214.182434 
	C299.048767,206.104004 293.217407,202.733780 287.324005,205.869873 
	C278.710114,210.453659 270.530853,215.854233 261.908112,221.062653 
	C263.568695,223.806580 264.907471,226.018784 266.369873,228.435257 
	C273.834381,223.802109 280.948853,219.515274 287.915985,215.001068 
	C290.887115,213.075989 292.866760,213.105606 294.855377,216.358292 
	C296.801880,219.542130 297.436127,221.844940 293.489777,224.035675 
	C288.552856,226.776306 283.830444,229.914948 279.093689,233.001831 
	C272.902557,237.036484 271.360870,242.422226 274.846863,248.892578 
	C277.353485,253.545105 280.364319,257.925964 283.411224,262.849792 
	C295.626709,255.225967 307.520874,247.802658 319.761688,240.162994 
	C318.075958,237.519669 316.703003,235.366791 315.192230,232.997803 
	C309.812408,236.367004 304.894531,239.446884 299.341858,242.879135 
M538.941040,601.772217 
	C532.988403,601.095154 527.047974,600.228821 521.076538,599.845032 
	C519.023865,599.713196 515.499878,600.303040 515.113464,601.417786 
	C514.473694,603.263245 515.179016,606.306641 516.459595,607.961975 
	C522.668701,615.988281 529.245483,623.730957 535.719910,631.550964 
	C537.900330,634.184509 540.163086,636.749939 542.550842,639.536194 
	C544.829651,637.611206 546.700867,636.030457 548.888855,634.182190 
	C542.091370,625.875671 535.507202,617.829956 528.284119,609.003357 
	C536.675476,609.909607 544.035522,610.661682 551.384399,611.510681 
	C558.159851,612.293396 564.910400,613.333069 571.701904,613.902405 
	C573.211487,614.028870 575.509766,613.060608 576.234375,611.863525 
	C576.938843,610.699890 576.715088,608.095764 575.825256,606.981689 
	C567.017334,595.953613 557.986145,585.103882 548.798523,573.936768 
	C546.436829,575.812500 544.413818,577.419250 542.172119,579.199646 
	C549.007568,587.558533 555.565674,595.578308 562.944275,604.601440 
	C554.312073,603.577087 547.076843,602.718506 538.941040,601.772217 
M418.499420,210.176575 
	C414.007690,210.254013 409.498505,210.581604 405.033813,210.270813 
	C403.507782,210.164566 400.861511,208.504440 400.821411,207.472794 
	C400.482086,198.748428 400.627716,190.005203 400.627716,180.576218 
	C411.873230,180.576218 422.783234,180.576218 433.672119,180.576218 
	C433.672119,177.302719 433.672119,174.753174 433.672119,172.316864 
	C421.136871,172.316864 409.010681,172.304169 396.884583,172.324860 
	C393.402893,172.330795 391.721802,174.134216 391.765381,177.626160 
	C391.891998,187.775986 391.828918,197.931396 392.159332,208.074219 
	C392.350433,213.938705 396.294189,218.508484 402.089050,218.748383 
	C412.820496,219.192642 423.583435,218.875565 434.281616,218.875565 
	C434.281616,215.577927 434.281616,212.997940 434.281616,210.171631 
	C429.099823,210.171631 424.298126,210.171631 418.499420,210.176575 
M555.175537,222.633102 
	C549.938354,229.304733 544.649414,235.936630 539.480225,242.660522 
	C535.336609,248.050476 535.519043,254.637817 540.431396,258.798309 
	C548.388184,265.537170 556.688538,271.870361 565.179749,278.642792 
	C567.029602,276.186340 568.577209,274.131317 570.313232,271.826050 
	C562.625000,265.734039 555.237793,259.837555 547.796204,254.010468 
	C545.600159,252.290878 544.076843,250.517288 546.217041,247.806885 
	C551.457764,241.169937 556.734070,234.561066 562.228638,227.648254 
	C571.170715,234.655334 579.872986,241.474487 588.903259,248.550659 
	C590.692749,246.221817 592.259155,244.183212 594.032959,241.874771 
	C584.978516,234.696274 576.258911,227.800400 567.558838,220.879959 
	C561.291565,215.894730 560.784241,215.932907 555.175537,222.633102 
M413.508362,661.525269 
	C413.508362,654.134460 413.508362,646.743652 413.508362,639.084839 
	C424.258942,638.486572 435.136993,637.881287 446.289886,637.260681 
	C446.154449,634.233704 446.045898,631.807861 445.920227,628.999878 
	C432.968933,629.619751 420.370331,630.175476 407.778625,630.858032 
	C404.582947,631.031250 403.720062,633.351013 403.843140,636.150940 
	C404.281555,646.122070 404.580231,656.103821 405.272949,666.057800 
	C405.686096,671.995056 409.317261,676.511230 414.727020,676.614807 
	C425.771393,676.826538 436.832947,676.140808 448.183929,675.816284 
	C448.015167,672.456665 447.887024,669.905701 447.808746,668.347107 
	C438.045624,668.347107 429.075531,668.102661 420.128143,668.447815 
	C415.487335,668.626831 413.028473,667.465698 413.508362,661.525269 
M472.422089,630.274475 
	C482.410980,626.431274 492.399902,622.588135 502.611450,618.659363 
	C501.436340,615.718018 500.525726,613.438660 499.506561,610.887695 
	C487.589630,615.359009 475.898010,619.565491 464.414246,624.278442 
	C462.947388,624.880371 461.359985,628.520508 461.874481,630.076660 
	C465.156738,640.004761 468.834625,649.815063 472.752747,659.514465 
	C474.761169,664.486267 480.141052,667.398560 485.008545,665.820435 
	C495.377380,662.458618 505.544647,658.474976 516.131958,654.623413 
	C514.888367,651.617920 513.905457,649.242493 512.839233,646.665649 
	C503.660614,650.128601 495.018646,653.539185 486.244812,656.567627 
	C484.568481,657.146301 480.974396,656.767883 480.632721,655.899475 
	C477.383057,647.640076 474.644470,639.179626 472.422089,630.274475 
M344.500000,279.031097 
	C336.368225,278.823944 328.233490,278.385925 320.105713,278.490082 
	C314.604279,278.560577 309.600281,279.483124 306.518585,285.525360 
	C303.690887,291.069641 299.334564,295.828308 295.707275,300.972229 
	C291.132172,307.460236 286.629272,313.999054 282.062653,320.493042 
	C280.165466,323.190948 280.905823,324.826721 284.015381,325.426819 
	C285.629761,325.738373 287.299042,325.888397 288.944458,325.895691 
	C298.766144,325.939331 308.592194,326.086731 318.408142,325.846558 
	C322.830170,325.738342 324.215118,327.385101 324.115112,331.688629 
	C323.879272,341.838013 323.977661,351.997223 324.102814,362.150482 
	C324.121338,363.653473 325.020081,365.145599 325.511597,366.642761 
	C327.034485,365.887146 328.937866,365.485779 330.021973,364.321564 
	C342.104645,351.346436 357.330048,345.036163 374.596710,342.933228 
	C377.954681,342.524231 380.065735,341.269318 380.037476,337.292542 
	C379.913269,319.813873 379.930237,302.333466 380.027527,284.854401 
	C380.051575,280.535980 378.156860,278.931549 373.966095,278.991547 
	C364.479156,279.127441 354.988892,279.032349 344.500000,279.031097 
M504.884247,239.115540 
	C506.791595,238.311707 508.949463,237.843140 510.558807,236.640518 
	C515.213135,233.162430 519.671570,229.419144 524.161499,225.724792 
	C531.688110,219.531769 539.179565,213.296005 546.805176,206.979401 
	C539.342896,202.160980 539.342346,202.160339 533.228394,207.149445 
	C525.708374,213.285889 518.189331,219.423553 510.669891,225.560715 
	C510.113739,225.415237 509.557617,225.269775 509.001495,225.124313 
	C509.001495,215.228043 509.040405,205.331589 508.988586,195.435593 
	C508.950409,188.141525 507.863129,187.026047 501.451477,186.275421 
	C501.451477,201.935257 501.362091,217.713547 501.572357,233.487854 
	C501.596741,235.317291 503.282928,237.124557 504.884247,239.115540 
M359.393555,643.760681 
	C357.300964,651.763672 355.208374,659.766724 352.984375,668.272217 
	C355.824066,668.967773 358.303650,669.575073 361.154785,670.273376 
	C364.449341,657.894104 367.629944,645.942932 370.916809,633.592407 
	C377.104126,635.139343 382.820404,636.568542 388.904572,638.089722 
	C389.632202,635.264954 390.265991,632.804626 390.993988,629.978455 
	C376.026489,626.054688 361.634674,622.281860 346.807220,618.394836 
	C346.045563,621.378662 345.417328,623.839722 344.748199,626.460999 
	C350.921783,628.212036 356.584747,629.818298 362.476776,631.489502 
	C361.479034,635.600769 360.581665,639.298523 359.393555,643.760681 
M454.936920,213.778107 
	C454.342224,212.836151 453.195770,211.854279 453.260468,210.960037 
	C453.426971,208.658340 454.145569,206.398682 454.615753,204.116516 
	C456.521667,194.866165 458.417145,185.613663 460.371796,176.092239 
	C457.418457,175.424423 455.040985,174.886841 452.224823,174.250046 
	C449.214325,188.421356 446.181488,202.196579 443.520111,216.043198 
	C443.269104,217.349152 445.101196,220.179962 446.393707,220.483734 
	C458.968079,223.439026 471.633667,226.006317 484.537079,228.740082 
	C485.178375,225.754364 485.689941,223.372650 486.283539,220.609131 
	C475.835297,218.311752 465.799866,216.105118 454.936920,213.778107 
M257.634766,259.884308 
	C262.033142,264.772888 266.431488,269.661469 271.006653,274.746552 
	C273.351379,272.566833 275.236847,270.814056 277.275726,268.918671 
	C266.765167,257.214783 256.599091,245.894470 246.158524,234.268494 
	C241.974457,238.014313 238.203796,241.390015 234.149689,245.019455 
	C236.188095,247.309280 237.884247,249.214645 239.683121,251.235397 
	C241.882904,249.459518 243.620529,248.056732 245.558502,246.492203 
	C249.608887,250.995895 253.375305,255.183823 257.634766,259.884308 
M277.549774,594.049805 
	C281.983368,589.870605 286.416962,585.691406 290.565582,581.780762 
	C286.338287,577.264404 282.875214,573.564575 279.735687,570.210388 
	C277.481049,572.068115 275.500916,573.699646 273.509827,575.340210 
	C275.429688,577.597351 276.891998,579.316589 278.822235,581.585999 
	C269.757202,590.597839 260.966644,599.336853 252.411346,607.841980 
	C254.152267,609.659973 255.927429,611.513733 258.442596,614.140259 
	C264.679443,607.556641 270.852661,601.040161 277.549774,594.049805 
M567.924927,256.524872 
	C569.874878,257.982422 571.824829,259.439941 574.060181,261.110809 
	C575.892029,258.829346 577.509888,256.814362 579.351990,254.520081 
	C572.214783,248.895294 565.398315,243.523331 558.298096,237.927719 
	C556.405273,240.398834 554.852295,242.426300 553.106140,244.705872 
	C558.090332,248.674850 562.734192,252.372803 567.924927,256.524872 
M430.496307,194.614670 
	C429.782501,193.425980 429.099915,191.227051 428.350098,191.203857 
	C420.287811,190.954620 412.214935,191.048584 404.104187,191.048584 
	C404.104187,194.438278 404.104187,196.995316 404.104187,199.668610 
	C412.945007,199.668610 421.454773,199.668610 430.207428,199.668610 
	C430.320801,198.053864 430.411285,196.764893 430.496307,194.614670 
M427.134369,657.323975 
	C432.386505,657.323975 437.638672,657.323975 443.345001,657.323975 
	C443.177368,653.618225 443.061371,651.054138 442.928436,648.115662 
	C433.932007,648.568481 425.401123,648.997803 416.465637,649.447571 
	C416.599731,652.508728 416.712372,655.079834 416.839294,657.977661 
	C420.278259,657.748718 423.245422,657.551208 427.134369,657.323975 
M503.625122,638.946655 
	C507.525360,635.476685 502.931946,633.320557 502.630554,630.085876 
	C494.206940,633.262085 486.204010,636.279724 477.835266,639.435242 
	C478.820496,642.293640 479.653992,644.711731 480.619965,647.514221 
	C488.356110,644.605408 495.607880,641.878662 503.625122,638.946655 
z"/>
<path fill="#FCFCFC" opacity="1.000000" stroke="none" 
	d="
M543.299194,351.213623 
	C536.160889,367.022644 523.879272,376.724365 508.625427,383.072571 
	C506.729553,383.861572 504.383331,383.747406 502.245483,383.749634 
	C464.756470,383.788452 427.267395,383.778870 389.778351,383.783203 
	C381.331207,383.784180 379.634460,385.469971 379.619812,394.033722 
	C379.516724,454.346313 379.427490,514.658875 379.334351,574.971497 
	C379.331543,576.801025 379.334015,578.630615 379.334015,580.884644 
	C361.460876,580.884644 343.735626,580.884644 325.163025,580.884644 
	C325.163025,579.132141 325.162903,577.230957 325.163025,575.329712 
	C325.167084,512.014893 325.148010,448.700012 325.260437,385.385376 
	C325.264923,382.872559 326.006378,380.059082 327.277435,377.899506 
	C335.512512,363.907471 347.971802,355.162079 363.134918,350.053589 
	C365.121613,349.384247 367.399292,349.401520 369.542419,349.399933 
	C406.364899,349.372345 443.187439,349.397003 480.009949,349.396179 
	C486.609100,349.396027 490.567841,346.521088 492.159698,340.666046 
	C493.718048,334.934204 491.088348,328.304047 485.840332,325.726410 
	C484.170990,324.906494 481.986298,324.921844 480.036774,324.918579 
	C452.378265,324.872253 424.719666,324.888489 397.061066,324.889587 
	C395.248840,324.889679 393.436615,324.889618 391.202454,324.889618 
	C391.202454,309.899689 391.202454,295.196075 391.202454,279.864777 
	C392.903625,279.864777 394.667664,279.864777 396.431702,279.864777 
	C428.755585,279.864777 461.092285,280.393707 493.397308,279.613037 
	C506.940216,279.285736 517.614868,284.081848 527.523254,292.140076 
	C545.923218,307.104309 552.123474,330.129089 543.299194,351.213623 
z"/>
<path fill="#FCFCFC" opacity="1.000000" stroke="none" 
	d="
M474.992737,477.492310 
	C487.921417,475.891571 498.705200,479.680664 508.517517,487.196259 
	C518.723755,495.013580 526.579224,504.463287 529.835449,517.104553 
	C535.302856,538.329468 528.005859,555.485168 511.940979,569.184753 
	C506.704193,573.650513 500.238892,576.710327 494.198608,580.174561 
	C492.710999,581.027710 490.687622,581.245239 488.909546,581.248718 
	C457.085297,581.310486 425.260895,581.295410 393.436523,581.287170 
	C392.787903,581.287048 392.139282,581.172180 391.124634,581.076233 
	C391.124634,568.136597 391.124634,555.272278 391.124634,541.905762 
	C393.084503,541.905762 394.873535,541.905396 396.662567,541.905762 
	C419.489441,541.910339 442.316315,541.921265 465.143188,541.915710 
	C471.745697,541.914062 476.885040,536.571106 476.893280,529.753479 
	C476.901489,522.956665 472.353302,518.026428 465.649414,517.937256 
	C442.664490,517.631531 419.678131,517.430420 396.692291,517.193848 
	C394.890076,517.175293 393.087494,517.191345 391.027557,517.191345 
	C391.027557,503.890350 391.027557,490.981659 391.027557,477.491760 
	C418.937561,477.491760 446.716003,477.491760 474.992737,477.492310 
z"/>
<path fill="#7C0205" opacity="1.000000" stroke="none" 
	d="
M455.000000,406.997559 
	C483.666107,406.997345 511.832306,406.971588 539.998169,407.055359 
	C541.842224,407.060852 543.683838,407.905029 545.526550,408.359100 
	C544.911194,410.188934 544.673950,412.280060 543.619263,413.806305 
	C536.560547,424.021362 529.442627,434.201538 522.031555,444.160614 
	C520.878723,445.709778 518.132751,446.857666 516.118347,446.865540 
	C475.953033,447.022461 435.786987,446.967529 395.621155,447.019257 
	C392.595001,447.023132 390.915924,446.150391 390.858734,442.824951 
	C390.678558,432.353638 390.301453,421.885529 390.145508,411.414032 
	C390.087738,407.534851 392.868134,407.004730 396.001221,407.009674 
	C411.000824,407.033325 426.000488,407.005859 441.000153,406.997925 
	C445.500092,406.995544 450.000061,406.997559 455.000000,406.997559 
z"/>
<path fill="#6F0609" opacity="1.000000" stroke="none" 
	d="
M611.424683,526.493774 
	C617.348572,512.077515 623.936584,498.267670 628.678223,483.850555 
	C637.141602,458.117126 638.478882,431.294556 636.722473,404.520020 
	C635.840515,391.074707 632.904968,377.618256 629.510803,364.526459 
	C626.404907,352.546478 622.249756,340.671692 617.051697,329.447662 
	C611.808716,318.126801 605.165466,307.366272 598.287720,296.918488 
	C592.751404,288.508392 585.913696,280.959259 579.727356,272.970795 
	C576.991028,269.437408 579.319824,263.253357 583.779541,262.320343 
	C584.633850,262.141571 586.019958,262.855591 586.670044,263.591339 
	C602.100647,281.055023 615.183289,299.949432 625.391052,321.099731 
	C636.426025,343.963806 643.867004,367.808319 646.506836,392.773224 
	C648.364014,410.337158 647.612854,428.269379 646.888489,445.990601 
	C645.965088,468.582092 639.654541,490.109833 631.073425,510.926025 
	C621.401672,534.387817 608.541260,555.923706 591.705261,575.039673 
	C588.998230,578.113281 586.802551,578.472412 583.707947,576.107239 
	C580.481018,573.640869 580.642151,571.238403 582.967712,568.078064 
	C591.207214,556.880981 599.284607,545.563110 607.300476,534.204285 
	C608.897461,531.941284 609.952148,529.295654 611.424683,526.493774 
z"/>
<path fill="#6F0609" opacity="1.000000" stroke="none" 
	d="
M206.661438,313.635742 
	C214.916916,296.840179 225.921158,282.348114 237.441818,268.226379 
	C241.786057,262.901306 243.783569,262.811157 247.320816,266.843628 
	C249.407059,269.221924 249.557632,271.416473 247.509567,273.936188 
	C242.178238,280.495300 236.725296,286.973938 231.734283,293.787537 
	C221.219528,308.141968 212.627853,323.685608 206.810867,340.456085 
	C201.676056,355.259827 196.897354,370.347137 193.888733,385.687256 
	C190.244583,404.267670 189.327347,423.340942 191.963303,442.212036 
	C193.952011,456.449341 196.372711,470.736023 200.114517,484.592072 
	C205.287582,503.748169 212.389526,522.283142 224.002701,538.726318 
	C229.042587,545.862305 233.563324,553.385071 238.895096,560.287781 
	C242.472321,564.919006 239.664536,567.199341 236.670624,569.691467 
	C232.961853,572.778625 232.100327,568.893127 230.329681,566.983521 
	C218.456375,554.178772 209.993927,538.997986 202.795425,523.456360 
	C195.890228,508.547882 190.854309,492.634552 186.379684,476.772736 
	C180.019089,454.225372 178.743134,430.888672 180.248428,407.626678 
	C182.203781,377.409973 189.554382,348.398987 203.013779,321.101959 
	C204.183914,318.728790 205.318817,316.338287 206.661438,313.635742 
z"/>
<path fill="#F1EFF1" opacity="1.000000" stroke="none" 
	d="
M345.939667,207.049744 
	C344.047638,214.530563 342.378632,221.664139 340.191498,228.635162 
	C339.606384,230.500092 337.543365,232.997589 335.968262,233.143188 
	C334.434235,233.285019 331.993652,231.130524 331.091431,229.392334 
	C324.670013,217.021164 318.541046,204.498215 312.026245,191.436676 
	C314.982178,190.595474 317.463043,189.889465 320.288849,189.085297 
	C324.757141,197.936661 329.148285,206.635162 334.180603,216.603806 
	C335.527740,212.283859 336.552277,209.133331 337.489410,205.956985 
	C338.524414,202.448730 339.433990,198.903336 340.478760,195.398148 
	C342.446136,188.797653 344.968323,188.125015 350.260376,192.785919 
	C355.445465,197.352615 360.595398,201.959229 366.767181,207.442505 
	C365.591736,196.390320 364.565033,186.736740 363.482727,176.560440 
	C366.100861,175.697235 368.517731,174.900360 371.548889,173.900986 
	C372.159393,178.955139 372.741821,183.496780 373.250549,188.046631 
	C374.304626,197.473755 375.479828,206.892761 376.218292,216.345306 
	C376.369812,218.284790 375.322540,221.426147 373.928467,222.071884 
	C372.483795,222.741058 369.516174,221.574249 367.962830,220.299072 
	C362.070435,215.461868 356.476868,210.260178 350.780243,205.185028 
	C348.363739,203.032166 346.676483,203.196091 345.939667,207.049744 
z"/>
<path fill="#EFEDEF" opacity="1.000000" stroke="none" 
	d="
M306.663940,604.864868 
	C302.877686,601.380188 302.050873,604.849304 300.607574,606.849365 
	C298.937408,609.163696 297.491760,611.481018 300.758820,613.600525 
	C305.640198,616.767334 310.615936,619.789185 315.485962,622.973022 
	C322.626892,627.641602 324.149414,634.087524 319.812439,640.844055 
	C314.232727,649.536621 308.610352,651.221252 300.767517,646.345642 
	C292.456238,641.178955 284.236542,635.864868 275.644501,630.403931 
	C277.179871,628.009155 278.498840,625.951904 280.171783,623.342590 
	C285.089355,626.387817 289.825562,629.302551 294.542450,632.248108 
	C297.646149,634.186279 300.804504,636.052429 303.787537,638.163940 
	C306.888336,640.359009 309.413330,641.383179 312.050995,637.319702 
	C314.529968,633.500732 313.398590,631.483521 309.820190,629.461853 
	C305.194550,626.848450 300.739349,623.915527 296.325623,620.949219 
	C289.960541,616.671387 288.486847,611.183289 292.113831,604.584534 
	C294.582062,600.093994 297.493652,595.847046 300.530731,590.971436 
	C311.570923,597.914551 322.327881,604.679504 333.565826,611.746948 
	C332.094116,614.095947 330.735748,616.264099 329.038635,618.972900 
	C321.501892,614.211304 314.256409,609.633789 306.663940,604.864868 
z"/>
<path fill="#EFEDEF" opacity="1.000000" stroke="none" 
	d="
M299.659241,242.702942 
	C304.894531,239.446884 309.812408,236.367004 315.192230,232.997803 
	C316.703003,235.366791 318.075958,237.519669 319.761688,240.162994 
	C307.520874,247.802658 295.626709,255.225967 283.411224,262.849792 
	C280.364319,257.925964 277.353485,253.545105 274.846863,248.892578 
	C271.360870,242.422226 272.902557,237.036484 279.093689,233.001831 
	C283.830444,229.914948 288.552856,226.776306 293.489777,224.035675 
	C297.436127,221.844940 296.801880,219.542130 294.855377,216.358292 
	C292.866760,213.105606 290.887115,213.075989 287.915985,215.001068 
	C280.948853,219.515274 273.834381,223.802109 266.369873,228.435257 
	C264.907471,226.018784 263.568695,223.806580 261.908112,221.062653 
	C270.530853,215.854233 278.710114,210.453659 287.324005,205.869873 
	C293.217407,202.733780 299.048767,206.104004 303.647797,214.182434 
	C306.736755,219.608215 305.546997,225.874146 300.295349,229.687775 
	C296.401611,232.515289 292.189972,234.910919 288.079468,237.432892 
	C280.200073,242.267166 280.105194,242.795563 286.440216,250.888565 
	C290.700714,248.243622 295.021301,245.561386 299.659241,242.702942 
z"/>
<path fill="#F0EEF0" opacity="1.000000" stroke="none" 
	d="
M539.391296,601.816040 
	C547.076843,602.718506 554.312073,603.577087 562.944275,604.601440 
	C555.565674,595.578308 549.007568,587.558533 542.172119,579.199646 
	C544.413818,577.419250 546.436829,575.812500 548.798523,573.936768 
	C557.986145,585.103882 567.017334,595.953613 575.825256,606.981689 
	C576.715088,608.095764 576.938843,610.699890 576.234375,611.863525 
	C575.509766,613.060608 573.211487,614.028870 571.701904,613.902405 
	C564.910400,613.333069 558.159851,612.293396 551.384399,611.510681 
	C544.035522,610.661682 536.675476,609.909607 528.284119,609.003357 
	C535.507202,617.829956 542.091370,625.875671 548.888855,634.182190 
	C546.700867,636.030457 544.829651,637.611206 542.550842,639.536194 
	C540.163086,636.749939 537.900330,634.184509 535.719910,631.550964 
	C529.245483,623.730957 522.668701,615.988281 516.459595,607.961975 
	C515.179016,606.306641 514.473694,603.263245 515.113464,601.417786 
	C515.499878,600.303040 519.023865,599.713196 521.076538,599.845032 
	C527.047974,600.228821 532.988403,601.095154 539.391296,601.816040 
z"/>
<path fill="#EFEDEF" opacity="1.000000" stroke="none" 
	d="
M418.997925,210.174103 
	C424.298126,210.171631 429.099823,210.171631 434.281616,210.171631 
	C434.281616,212.997940 434.281616,215.577927 434.281616,218.875565 
	C423.583435,218.875565 412.820496,219.192642 402.089050,218.748383 
	C396.294189,218.508484 392.350433,213.938705 392.159332,208.074219 
	C391.828918,197.931396 391.891998,187.775986 391.765381,177.626160 
	C391.721802,174.134216 393.402893,172.330795 396.884583,172.324860 
	C409.010681,172.304169 421.136871,172.316864 433.672119,172.316864 
	C433.672119,174.753174 433.672119,177.302719 433.672119,180.576218 
	C422.783234,180.576218 411.873230,180.576218 400.627716,180.576218 
	C400.627716,190.005203 400.482086,198.748428 400.821411,207.472794 
	C400.861511,208.504440 403.507782,210.164566 405.033813,210.270813 
	C409.498505,210.581604 414.007690,210.254013 418.997925,210.174103 
z"/>
<path fill="#EFEDF0" opacity="1.000000" stroke="none" 
	d="
M555.409546,222.363739 
	C560.784241,215.932907 561.291565,215.894730 567.558838,220.879959 
	C576.258911,227.800400 584.978516,234.696274 594.032959,241.874771 
	C592.259155,244.183212 590.692749,246.221817 588.903259,248.550659 
	C579.872986,241.474487 571.170715,234.655334 562.228638,227.648254 
	C556.734070,234.561066 551.457764,241.169937 546.217041,247.806885 
	C544.076843,250.517288 545.600159,252.290878 547.796204,254.010468 
	C555.237793,259.837555 562.625000,265.734039 570.313232,271.826050 
	C568.577209,274.131317 567.029602,276.186340 565.179749,278.642792 
	C556.688538,271.870361 548.388184,265.537170 540.431396,258.798309 
	C535.519043,254.637817 535.336609,248.050476 539.480225,242.660522 
	C544.649414,235.936630 549.938354,229.304733 555.409546,222.363739 
z"/>
<path fill="#EFEDF0" opacity="1.000000" stroke="none" 
	d="
M413.543243,661.995117 
	C413.028473,667.465698 415.487335,668.626831 420.128143,668.447815 
	C429.075531,668.102661 438.045624,668.347107 447.808746,668.347107 
	C447.887024,669.905701 448.015167,672.456665 448.183929,675.816284 
	C436.832947,676.140808 425.771393,676.826538 414.727020,676.614807 
	C409.317261,676.511230 405.686096,671.995056 405.272949,666.057800 
	C404.580231,656.103821 404.281555,646.122070 403.843140,636.150940 
	C403.720062,633.351013 404.582947,631.031250 407.778625,630.858032 
	C420.370331,630.175476 432.968933,629.619751 445.920227,628.999878 
	C446.045898,631.807861 446.154449,634.233704 446.289886,637.260681 
	C435.136993,637.881287 424.258942,638.486572 413.508362,639.084839 
	C413.508362,646.743652 413.508362,654.134460 413.543243,661.995117 
z"/>
<path fill="#EFEEF0" opacity="1.000000" stroke="none" 
	d="
M472.090515,630.525757 
	C474.644470,639.179626 477.383057,647.640076 480.632721,655.899475 
	C480.974396,656.767883 484.568481,657.146301 486.244812,656.567627 
	C495.018646,653.539185 503.660614,650.128601 512.839233,646.665649 
	C513.905457,649.242493 514.888367,651.617920 516.131958,654.623413 
	C505.544647,658.474976 495.377380,662.458618 485.008545,665.820435 
	C480.141052,667.398560 474.761169,664.486267 472.752747,659.514465 
	C468.834625,649.815063 465.156738,640.004761 461.874481,630.076660 
	C461.359985,628.520508 462.947388,624.880371 464.414246,624.278442 
	C475.898010,619.565491 487.589630,615.359009 499.506561,610.887695 
	C500.525726,613.438660 501.436340,615.718018 502.611450,618.659363 
	C492.399902,622.588135 482.410980,626.431274 472.090515,630.525757 
z"/>
<path fill="#59080B" opacity="1.000000" stroke="none" 
	d="
M345.000000,279.031128 
	C354.988892,279.032349 364.479156,279.127441 373.966095,278.991547 
	C378.156860,278.931549 380.051575,280.535980 380.027527,284.854401 
	C379.930237,302.333466 379.913269,319.813873 380.037476,337.292542 
	C380.065735,341.269318 377.954681,342.524231 374.596710,342.933228 
	C357.330048,345.036163 342.104645,351.346436 330.021973,364.321564 
	C328.937866,365.485779 327.034485,365.887146 325.511597,366.642761 
	C325.020081,365.145599 324.121338,363.653473 324.102814,362.150482 
	C323.977661,351.997223 323.879272,341.838013 324.115112,331.688629 
	C324.215118,327.385101 322.830170,325.738342 318.408142,325.846558 
	C308.592194,326.086731 298.766144,325.939331 288.944458,325.895691 
	C287.299042,325.888397 285.629761,325.738373 284.015381,325.426819 
	C280.905823,324.826721 280.165466,323.190948 282.062653,320.493042 
	C286.629272,313.999054 291.132172,307.460236 295.707275,300.972229 
	C299.334564,295.828308 303.690887,291.069641 306.518585,285.525360 
	C309.600281,279.483124 314.604279,278.560577 320.105713,278.490082 
	C328.233490,278.385925 336.368225,278.823944 345.000000,279.031128 
M336.591370,353.980927 
	C337.776154,353.406067 339.113983,353.024445 340.121765,352.226135 
	C349.071106,345.137115 359.938812,342.619385 370.628387,340.354370 
	C375.869202,339.243866 377.149567,337.357880 377.084778,332.588104 
	C376.894714,318.592529 377.016907,304.592712 377.008026,290.594574 
	C377.002655,282.132080 376.867767,281.921967 368.245941,282.007080 
	C351.775970,282.169617 335.298248,282.817261 318.843262,282.431610 
	C314.034088,282.318939 311.400055,283.419861 309.203796,287.352325 
	C307.461945,290.471191 305.290771,293.360229 303.200775,296.272736 
	C297.959137,303.577209 292.696228,310.867279 287.357391,318.100800 
	C285.073303,321.195465 286.058899,322.893585 289.540802,322.943420 
	C299.536133,323.086487 309.541412,323.163605 319.530457,322.860596 
	C324.719269,322.703186 326.950989,324.150604 326.978241,329.204865 
	C327.025879,338.036774 326.937073,346.869843 327.046204,355.700684 
	C327.067596,357.430176 327.727814,359.151764 328.294495,361.825989 
	C331.534760,358.753693 333.792816,356.612671 336.591370,353.980927 
z"/>
<path fill="#EFEDF0" opacity="1.000000" stroke="none" 
	d="
M504.541443,239.028824 
	C503.282928,237.124557 501.596741,235.317291 501.572357,233.487854 
	C501.362091,217.713547 501.451477,201.935257 501.451477,186.275421 
	C507.863129,187.026047 508.950409,188.141525 508.988586,195.435593 
	C509.040405,205.331589 509.001495,215.228043 509.001495,225.124313 
	C509.557617,225.269775 510.113739,225.415237 510.669891,225.560715 
	C518.189331,219.423553 525.708374,213.285889 533.228394,207.149445 
	C539.342346,202.160339 539.342896,202.160980 546.805176,206.979401 
	C539.179565,213.296005 531.688110,219.531769 524.161499,225.724792 
	C519.671570,229.419144 515.213135,233.162430 510.558807,236.640518 
	C508.949463,237.843140 506.791595,238.311707 504.541443,239.028824 
z"/>
<path fill="#F0EEF1" opacity="1.000000" stroke="none" 
	d="
M359.538940,643.378418 
	C360.581665,639.298523 361.479034,635.600769 362.476776,631.489502 
	C356.584747,629.818298 350.921783,628.212036 344.748199,626.460999 
	C345.417328,623.839722 346.045563,621.378662 346.807220,618.394836 
	C361.634674,622.281860 376.026489,626.054688 390.993988,629.978455 
	C390.265991,632.804626 389.632202,635.264954 388.904572,638.089722 
	C382.820404,636.568542 377.104126,635.139343 370.916809,633.592407 
	C367.629944,645.942932 364.449341,657.894104 361.154785,670.273376 
	C358.303650,669.575073 355.824066,668.967773 352.984375,668.272217 
	C355.208374,659.766724 357.300964,651.763672 359.538940,643.378418 
z"/>
<path fill="#F0EEF0" opacity="1.000000" stroke="none" 
	d="
M455.350677,213.838303 
	C465.799866,216.105118 475.835297,218.311752 486.283539,220.609131 
	C485.689941,223.372650 485.178375,225.754364 484.537079,228.740082 
	C471.633667,226.006317 458.968079,223.439026 446.393707,220.483734 
	C445.101196,220.179962 443.269104,217.349152 443.520111,216.043198 
	C446.181488,202.196579 449.214325,188.421356 452.224823,174.250046 
	C455.040985,174.886841 457.418457,175.424423 460.371796,176.092239 
	C458.417145,185.613663 456.521667,194.866165 454.615753,204.116516 
	C454.145569,206.398682 453.426971,208.658340 453.260468,210.960037 
	C453.195770,211.854279 454.342224,212.836151 455.350677,213.838303 
z"/>
<path fill="#EDEBEE" opacity="1.000000" stroke="none" 
	d="
M257.388245,259.628052 
	C253.375305,255.183823 249.608887,250.995895 245.558502,246.492203 
	C243.620529,248.056732 241.882904,249.459518 239.683121,251.235397 
	C237.884247,249.214645 236.188095,247.309280 234.149689,245.019455 
	C238.203796,241.390015 241.974457,238.014313 246.158524,234.268494 
	C256.599091,245.894470 266.765167,257.214783 277.275726,268.918671 
	C275.236847,270.814056 273.351379,272.566833 271.006653,274.746552 
	C266.431488,269.661469 262.033142,264.772888 257.388245,259.628052 
z"/>
<path fill="#EDECEE" opacity="1.000000" stroke="none" 
	d="
M277.287842,594.286743 
	C270.852661,601.040161 264.679443,607.556641 258.442596,614.140259 
	C255.927429,611.513733 254.152267,609.659973 252.411346,607.841980 
	C260.966644,599.336853 269.757202,590.597839 278.822235,581.585999 
	C276.891998,579.316589 275.429688,577.597351 273.509827,575.340210 
	C275.500916,573.699646 277.481049,572.068115 279.735687,570.210388 
	C282.875214,573.564575 286.338287,577.264404 290.565582,581.780762 
	C286.416962,585.691406 281.983368,589.870605 277.287842,594.286743 
z"/>
<path fill="#EBEAEC" opacity="1.000000" stroke="none" 
	d="
M567.651489,256.297821 
	C562.734192,252.372803 558.090332,248.674850 553.106140,244.705872 
	C554.852295,242.426300 556.405273,240.398834 558.298096,237.927719 
	C565.398315,243.523331 572.214783,248.895294 579.351990,254.520081 
	C577.509888,256.814362 575.892029,258.829346 574.060181,261.110809 
	C571.824829,259.439941 569.874878,257.982422 567.651489,256.297821 
z"/>
<path fill="#EBEAEC" opacity="1.000000" stroke="none" 
	d="
M430.499023,195.045288 
	C430.411285,196.764893 430.320801,198.053864 430.207428,199.668610 
	C421.454773,199.668610 412.945007,199.668610 404.104187,199.668610 
	C404.104187,196.995316 404.104187,194.438278 404.104187,191.048584 
	C412.214935,191.048584 420.287811,190.954620 428.350098,191.203857 
	C429.099915,191.227051 429.782501,193.425980 430.499023,195.045288 
z"/>
<path fill="#EFEDEF" opacity="1.000000" stroke="none" 
	d="
M426.673492,657.338867 
	C423.245422,657.551208 420.278259,657.748718 416.839294,657.977661 
	C416.712372,655.079834 416.599731,652.508728 416.465637,649.447571 
	C425.401123,648.997803 433.932007,648.568481 442.928436,648.115662 
	C443.061371,651.054138 443.177368,653.618225 443.345001,657.323975 
	C437.638672,657.323975 432.386505,657.323975 426.673492,657.338867 
z"/>
<path fill="#EDECEE" opacity="1.000000" stroke="none" 
	d="
M503.242401,639.049316 
	C495.607880,641.878662 488.356110,644.605408 480.619965,647.514221 
	C479.653992,644.711731 478.820496,642.293640 477.835266,639.435242 
	C486.204010,636.279724 494.206940,633.262085 502.630554,630.085876 
	C502.931946,633.320557 507.525360,635.476685 503.242401,639.049316 
z"/>
<path fill="#810103" opacity="1.000000" stroke="none" 
	d="
M336.321106,354.226318 
	C333.792816,356.612671 331.534760,358.753693 328.294495,361.825989 
	C327.727814,359.151764 327.067596,357.430176 327.046204,355.700684 
	C326.937073,346.869843 327.025879,338.036774 326.978241,329.204865 
	C326.950989,324.150604 324.719269,322.703186 319.530457,322.860596 
	C309.541412,323.163605 299.536133,323.086487 289.540802,322.943420 
	C286.058899,322.893585 285.073303,321.195465 287.357391,318.100800 
	C292.696228,310.867279 297.959137,303.577209 303.200775,296.272736 
	C305.290771,293.360229 307.461945,290.471191 309.203796,287.352325 
	C311.400055,283.419861 314.034088,282.318939 318.843262,282.431610 
	C335.298248,282.817261 351.775970,282.169617 368.245941,282.007080 
	C376.867767,281.921967 377.002655,282.132080 377.008026,290.594574 
	C377.016907,304.592712 376.894714,318.592529 377.084778,332.588104 
	C377.149567,337.357880 375.869202,339.243866 370.628387,340.354370 
	C359.938812,342.619385 349.071106,345.137115 340.121765,352.226135 
	C339.113983,353.024445 337.776154,353.406067 336.321106,354.226318 
z"/>
</svg>