<svg version="1.1" id="Layer_1" xmlns="http://www.w3.org/2000/svg" xmlns:xlink="http://www.w3.org/1999/xlink" x="0px" y="0px"
	 width="100%" viewBox="0 0 586 586" enable-background="new 0 0 586 586" xml:space="preserve">
<path fill="#030104" opacity="1.000000" stroke="none" 
	d="
M1.000000,211.000000 
	C1.000000,140.666687 1.000000,70.833374 1.000000,1.000047 
	C196.333252,1.000031 391.666504,1.000031 586.999817,1.000016 
	C586.999878,196.333191 586.999878,391.666382 586.999939,586.999634 
	C391.666870,586.999756 196.333725,586.999756 1.000293,586.999878 
	C1.000000,461.833344 1.000000,336.666656 1.000000,211.000000 
M114.833115,509.640747 
	C138.888016,529.621094 165.600952,544.966858 194.941254,555.794495 
	C238.960342,572.039124 284.257172,577.069031 330.641632,570.413879 
	C377.500732,563.690674 420.243317,546.422729 458.061829,517.725037 
	C511.742615,476.990570 546.653076,423.681671 561.730713,358.100159 
	C576.605164,293.402496 569.329529,230.638702 539.077576,171.471024 
	C499.775146,94.602089 437.259613,46.001209 353.420288,26.007666 
	C295.666931,12.234960 238.714859,17.101345 184.130478,40.815319 
	C98.150925,78.168816 43.933674,143.094452 21.507639,233.893753 
	C10.616700,277.989349 11.839766,322.468506 23.547386,366.488983 
	C38.740875,423.616272 69.098007,471.121002 114.833115,509.640747 
z"/>
<path fill="#F0EEF1" opacity="1.000000" stroke="none" 
	d="
M114.566017,509.407227 
	C69.098007,471.121002 38.740875,423.616272 23.547386,366.488983 
	C11.839766,322.468506 10.616700,277.989349 21.507639,233.893753 
	C43.933674,143.094452 98.150925,78.168816 184.130478,40.815319 
	C238.714859,17.101345 295.666931,12.234960 353.420288,26.007666 
	C437.259613,46.001209 499.775146,94.602089 539.077576,171.471024 
	C569.329529,230.638702 576.605164,293.402496 561.730713,358.100159 
	C546.653076,423.681671 511.742615,476.990570 458.061829,517.725037 
	C420.243317,546.422729 377.500732,563.690674 330.641632,570.413879 
	C284.257172,577.069031 238.960342,572.039124 194.941254,555.794495 
	C165.600952,544.966858 138.888016,529.621094 114.566017,509.407227 
M156.407745,65.816551 
	C95.365791,102.670944 54.412922,155.240005 34.719017,223.723953 
	C20.419014,273.451080 21.065445,323.451141 36.119663,373.068970 
	C52.523975,427.136627 82.844948,471.905090 127.564636,506.406281 
	C184.927353,550.661499 249.968582,569.082703 322.048401,561.041077 
	C381.283844,554.432434 432.948639,530.537292 475.662140,488.992645 
	C538.980469,427.407135 565.818359,351.992706 556.452271,264.262695 
	C550.879272,212.061554 530.338562,165.732361 496.725830,125.390083 
	C462.554657,84.377571 419.838440,56.099659 368.709137,40.564983 
	C328.958984,28.487652 288.608887,26.057030 247.664673,32.764313 
	C215.435669,38.043915 185.329025,49.236385 156.407745,65.816551 
z"/>
<path fill="#050306" opacity="1.000000" stroke="none" 
	d="
M156.716400,65.618866 
	C185.329025,49.236385 215.435669,38.043915 247.664673,32.764313 
	C288.608887,26.057030 328.958984,28.487652 368.709137,40.564983 
	C419.838440,56.099659 462.554657,84.377571 496.725830,125.390083 
	C530.338562,165.732361 550.879272,212.061554 556.452271,264.262695 
	C565.818359,351.992706 538.980469,427.407135 475.662140,488.992645 
	C432.948639,530.537292 381.283844,554.432434 322.048401,561.041077 
	C249.968582,569.082703 184.927353,550.661499 127.564636,506.406281 
	C82.844948,471.905090 52.523975,427.136627 36.119663,373.068970 
	C21.065445,323.451141 20.419014,273.451080 34.719017,223.723953 
	C54.412922,155.240005 95.365791,102.670944 156.716400,65.618866 
M365.921936,203.823853 
	C366.521881,204.553040 367.121796,205.282211 368.233734,206.662094 
	C368.350220,209.101456 368.466736,211.540802 367.908356,214.191757 
	C367.670685,215.282349 367.433014,216.372925 367.172089,218.126953 
	C365.109253,219.743881 363.046387,221.360825 360.600739,222.483383 
	C359.726440,222.693436 358.852112,222.903473 357.073090,223.368195 
	C323.150818,223.368057 289.228302,223.430634 255.306366,223.323105 
	C246.968216,223.296677 238.691910,223.101273 231.034271,226.365952 
	C231.973648,225.204620 232.697998,223.388107 233.890121,222.996872 
	C238.711441,221.414536 243.613464,219.896515 248.603729,219.052567 
	C256.282104,217.754013 257.981110,216.153275 257.984344,208.455338 
	C257.991089,192.468765 257.988312,176.482178 257.987335,160.495605 
	C257.986847,152.437820 255.997726,150.680603 247.887589,150.998825 
	C236.827744,151.432831 225.761734,151.861313 214.695953,151.936340 
	C208.077286,151.981232 201.456863,151.197388 194.831772,151.070816 
	C190.593948,150.989883 186.604691,151.979401 183.854568,155.724579 
	C181.110077,159.462112 178.270584,163.129745 175.512405,166.857376 
	C170.400040,173.766663 165.255920,180.653992 160.257355,187.645065 
	C158.722778,189.791351 157.285721,192.125122 156.394119,194.586777 
	C154.919540,198.658035 157.649597,201.364594 161.939087,201.251358 
	C172.252213,200.979141 182.576874,200.943741 192.893112,201.085907 
	C197.090500,201.143738 199.353836,203.097763 199.127625,208.014282 
	C198.714783,216.987732 198.795532,226.002228 199.148514,234.980789 
	C199.246582,237.475571 201.026871,239.904251 202.035385,242.363251 
	C204.115067,241.313705 206.385162,240.524185 208.239120,239.166428 
	C214.070419,234.895859 219.717194,230.374344 225.493347,226.026962 
	C228.150574,224.027054 228.993561,225.503601 228.650665,228.664658 
	C222.983994,232.769562 217.317307,236.874466 210.967834,240.970749 
	C210.302444,241.944916 209.637070,242.919083 208.782349,244.556549 
	C205.733612,249.209961 201.676743,253.150208 201.689713,259.516754 
	C201.818420,322.671265 201.765060,385.826111 201.763184,448.980865 
	C201.763138,450.917145 201.763184,452.853394 201.763184,454.926025 
	C220.086304,454.926025 237.794434,454.926025 255.919235,454.926025 
	C255.919235,452.746155 255.917419,450.947113 255.919464,449.148071 
	C255.988495,388.660889 256.054688,328.173737 256.131104,267.686554 
	C256.141327,259.574493 257.944305,257.793823 266.165161,257.791382 
	C303.658112,257.780212 341.151031,257.791138 378.643982,257.767120 
	C380.632324,257.765869 382.827911,258.023529 384.576752,257.306396 
	C402.140625,250.103882 416.009827,238.813782 421.684998,220.056000 
	C428.256805,198.334564 419.709961,176.829346 400.005402,162.992432 
	C391.382996,156.937607 382.337555,153.450974 371.287872,153.648590 
	C338.471222,154.235535 305.637329,153.854126 272.810181,153.868088 
	C271.064423,153.868835 269.318726,154.024490 267.597351,154.106873 
	C267.597351,169.272018 267.597351,183.848679 267.597351,198.888092 
	C269.736572,198.888092 271.536194,198.888229 273.335785,198.888077 
	C300.997223,198.885712 328.658875,198.841614 356.319794,198.957825 
	C358.600555,198.967392 360.876678,200.064682 363.128876,201.374313 
	C364.027130,201.941101 364.925415,202.507889 365.938873,203.062698 
	C365.938873,203.062698 365.926971,203.177917 365.921936,203.823853 
M97.003525,431.784027 
	C96.495018,435.603149 98.765205,437.189941 102.607841,438.318909 
	C103.490898,439.662628 104.170235,441.220581 105.305092,442.299469 
	C106.976067,443.888062 109.080025,446.432526 110.809319,446.288330 
	C116.375015,445.824188 119.341583,438.542267 116.199127,433.819366 
	C110.916092,425.879303 105.504211,418.023743 100.045372,410.203278 
	C99.369072,409.234344 98.075577,408.696228 96.989716,407.524902 
	C96.989716,407.524902 96.923164,407.089386 96.933815,406.429047 
	C96.297997,405.618927 95.662170,404.808807 94.907196,403.408478 
	C94.862801,403.009644 94.818398,402.610779 94.909584,401.454681 
	C93.631500,399.954926 92.353409,398.455170 90.931938,396.304718 
	C90.560989,395.261444 90.190033,394.218140 89.926666,392.389191 
	C88.300148,389.586182 86.673622,386.783203 84.966827,383.377502 
	C84.921577,382.974792 84.876335,382.572052 84.895210,381.465637 
	C84.223915,380.307159 83.552612,379.148682 82.847794,377.385864 
	C82.838577,376.982513 82.829361,376.579132 82.931786,375.382874 
	C81.584961,372.251709 80.238136,369.120514 78.863213,365.383453 
	C78.853310,364.979218 78.843407,364.574982 78.881546,363.391510 
	C77.563370,359.925323 76.245186,356.459167 74.873306,352.386627 
	C74.857895,351.981110 74.842476,351.575562 74.946243,350.311371 
	C74.617447,348.195770 74.379646,346.061249 73.943703,343.967957 
	C72.277336,335.966461 70.547226,327.978241 68.847946,319.223511 
	C68.837090,318.208496 68.826225,317.193451 68.943550,315.310120 
	C68.374779,313.175110 67.806007,311.040131 67.153572,307.987976 
	C67.185341,303.012848 67.217102,298.037750 67.877365,293.024384 
	C68.422470,292.580597 68.967575,292.136780 69.512680,291.692932 
	C68.762840,291.440399 68.013000,291.187836 67.153648,290.070190 
	C67.186859,287.746765 67.220070,285.423370 67.933151,282.857025 
	C67.997757,280.577850 68.062370,278.298706 68.084846,275.234711 
	C68.140450,274.190369 68.196053,273.145996 68.930733,271.865265 
	C69.926445,268.091156 70.966415,264.328064 71.909767,260.540924 
	C75.070564,247.851776 77.330956,234.853958 81.595032,222.549225 
	C85.387032,211.606766 91.670341,201.553589 96.338776,190.882492 
	C102.448753,176.916260 111.608879,165.101166 121.206779,153.502960 
	C123.172607,151.127441 125.003250,148.453644 126.125122,145.612839 
	C127.561378,141.975967 125.331787,139.328110 122.449692,137.265701 
	C119.496391,135.152359 117.056046,136.430603 114.957306,138.618530 
	C113.012535,140.645935 111.165771,142.796448 109.501724,145.058899 
	C103.066841,153.807831 96.243729,162.322647 90.480644,171.499557 
	C84.887009,180.406631 80.013000,189.831207 75.572090,199.377014 
	C71.602959,207.908752 68.035721,216.736221 65.420364,225.760452 
	C62.402359,236.174042 60.185062,246.874649 58.429241,257.583282 
	C56.746845,267.844086 55.328266,278.265137 55.197418,288.633484 
	C55.036800,301.361023 56.000877,314.136414 57.128860,326.833374 
	C57.765957,334.004791 59.721798,341.057739 61.054432,348.169495 
	C61.416660,350.102509 61.672886,352.055359 61.458771,354.470490 
	C62.299721,356.318451 63.140671,358.166443 63.993191,360.838043 
	C66.542023,368.639313 69.002342,376.471069 71.673218,384.230347 
	C73.250412,388.812317 74.887131,393.412354 76.996964,397.761810 
	C79.200058,402.303467 82.151337,406.476410 84.498810,410.955566 
	C86.542747,414.855499 88.201042,418.957550 90.080200,423.664764 
	C92.380280,425.781952 94.680359,427.899139 96.997307,430.502594 
	C96.997307,430.502594 97.010712,430.989288 97.003525,431.784027 
M485.055206,191.637833 
	C485.703888,192.426193 486.352539,193.214569 487.093262,194.723953 
	C489.695801,199.937836 492.870514,204.951614 494.779022,210.408234 
	C498.489777,221.017639 501.860352,231.780212 504.661499,242.662186 
	C506.706451,250.606476 507.614105,258.843506 509.007690,267.767761 
	C508.521179,271.727936 508.072510,275.681274 511.029236,279.930237 
	C511.036591,282.589844 510.806885,285.277313 511.114960,287.901611 
	C511.452789,290.779297 512.843811,293.609863 512.787598,296.441315 
	C512.672729,302.228699 511.961761,308.009796 511.360992,313.779419 
	C511.098969,316.295868 510.342834,318.761658 510.093231,321.278442 
	C509.542725,326.829498 509.384949,332.426331 508.659058,337.950897 
	C508.082275,342.340759 506.900024,346.651062 505.255493,351.089264 
	C504.147552,352.882904 502.661713,354.548737 502.003815,356.494537 
	C500.159973,361.947632 498.657959,367.516266 497.023590,373.779175 
	C497.016388,374.519043 497.009186,375.258911 496.280426,376.084808 
	C492.317780,378.009674 491.999023,381.265350 493.015533,385.748444 
	C492.345856,387.166565 491.676178,388.584686 490.358002,390.092896 
	C489.907379,391.396881 489.456757,392.700897 488.939941,394.681702 
	C488.296967,396.121246 487.653992,397.560791 486.287323,399.088654 
	C485.191132,401.391632 484.094971,403.694580 482.785400,406.515594 
	C482.523590,407.010010 482.261810,407.504395 481.302399,408.075287 
	C478.840912,410.159149 474.366425,411.148285 476.987671,416.721313 
	C476.005371,417.821533 475.023102,418.921783 473.269897,420.007782 
	C467.099670,419.483215 470.576904,424.781891 468.742188,427.656250 
	C466.497375,430.438721 464.252594,433.221191 461.277496,436.009766 
	C460.189453,437.015930 459.101440,438.022064 458.007538,439.512970 
	C458.007538,439.512970 457.993164,439.997498 457.307800,440.115540 
	C456.876709,441.085724 456.445618,442.055908 456.007812,443.848206 
	C455.219238,448.863831 458.125519,451.642517 462.145844,453.492981 
	C466.240967,455.377747 468.198822,452.482727 470.036957,449.537628 
	C470.381287,448.985901 471.028809,448.627533 471.394653,448.084473 
	C474.577454,443.359436 477.727936,438.612640 480.958435,433.447296 
	C480.958435,433.447296 481.032532,433.022858 481.726776,432.939636 
	C482.615265,432.026031 483.682800,431.228119 484.360992,430.178619 
	C487.144714,425.870605 490.050018,421.614960 492.472443,417.104736 
	C498.990753,404.968506 505.287964,392.713501 511.651703,380.494537 
	C511.872131,380.071289 511.840759,379.523193 511.968719,379.044525 
	C513.311829,374.019928 514.066956,368.737183 516.124756,364.023560 
	C522.273682,349.938324 524.109375,335.089905 525.732666,319.864624 
	C526.821716,316.034424 528.895142,312.184357 528.818298,308.377686 
	C528.571960,296.163910 529.410278,284.009369 527.468079,271.680267 
	C525.919373,261.848938 525.497925,251.848175 522.190247,242.329483 
	C521.767151,241.111938 520.739990,240.104279 519.906738,238.275970 
	C518.603394,234.608704 517.243896,230.960190 516.013733,227.268539 
	C514.940308,224.047287 514.148560,220.728165 512.991760,217.539581 
	C510.739746,211.332321 508.319214,205.186203 506.461029,198.617111 
	C505.302185,197.080292 504.143311,195.543488 502.503540,193.664078 
	C502.333496,193.110565 502.163483,192.557068 502.528687,191.528351 
	C501.583374,187.250290 501.429871,182.555359 499.461243,178.816055 
	C497.637604,175.352203 493.872864,172.910278 490.365356,169.697617 
	C489.778564,168.905731 489.209442,168.100006 488.602264,167.324066 
	C481.108490,157.747650 474.035034,147.796448 465.965576,138.732056 
	C460.339325,132.412048 456.535767,133.840424 453.948547,141.999268 
	C452.636841,146.135895 454.046326,149.248062 457.513489,151.694885 
	C458.889679,152.666061 460.253418,153.812866 461.231934,155.162994 
	C466.225555,162.052933 471.091309,169.035538 476.087036,176.735962 
	C479.059662,181.489456 482.032288,186.242966 485.000000,191.000000 
	C485.000000,191.000000 485.003662,190.995117 485.055206,191.637833 
M424.242889,122.394211 
	C425.462311,120.163033 426.478027,117.591705 430.445343,119.394005 
	C431.863800,120.547440 433.233337,121.768082 434.709442,122.842316 
	C440.180389,126.823853 445.686462,130.757126 451.832153,134.916855 
	C452.367462,133.984909 452.902740,133.052963 453.661102,131.461197 
	C455.858032,129.338821 455.376373,127.888184 452.950562,126.077965 
	C447.180115,121.771729 441.661285,117.128311 435.944061,112.047958 
	C434.994415,111.103088 434.044769,110.158218 433.334198,108.558182 
	C435.146729,106.345718 436.959259,104.133247 438.953827,101.698540 
	C441.678223,103.980766 443.903839,105.845161 446.127380,108.441963 
	C447.081421,108.962791 448.035431,109.483627 449.530762,110.170082 
	C450.061951,110.688126 450.593170,111.206169 451.121002,112.490662 
	C452.481140,113.296005 453.841309,114.101349 455.833069,115.124084 
	C458.942810,117.498337 462.052551,119.872589 465.287292,122.342278 
	C467.051575,120.396210 468.574707,118.716171 470.694061,116.973831 
	C470.448639,116.321754 470.203217,115.669685 469.308594,114.830742 
	C460.452240,107.821037 451.618530,100.782478 442.730164,93.813622 
	C438.194336,90.257347 436.851624,90.389565 433.318726,94.788483 
	C427.705200,101.778084 422.144653,108.811386 416.641815,115.888512 
	C411.356506,122.685959 411.855652,128.764664 418.367920,134.139099 
	C425.023529,139.631805 431.871216,144.894424 438.713409,150.155594 
	C439.806519,150.996094 441.311371,151.301086 443.371307,151.871460 
	C443.914276,150.914490 444.457245,149.957535 445.035278,148.506546 
	C445.159851,148.158859 445.404999,147.959366 446.451294,147.896820 
	C446.384979,146.905121 446.318665,145.913422 445.580322,144.757507 
	C441.333466,141.308441 437.086609,137.859375 432.915741,133.573792 
	C431.527283,132.750427 430.138794,131.927078 428.168823,130.954193 
	C427.453522,130.286926 426.738220,129.619659 426.321930,128.304199 
	C428.153503,125.369652 425.909058,124.244827 424.242889,122.394211 
M351.050812,514.183960 
	C349.947754,511.125458 348.844727,508.066956 347.640869,504.728912 
	C358.400177,500.629761 368.601685,496.743134 379.195679,492.706940 
	C378.034393,489.874390 377.062531,487.503815 375.996399,484.903290 
	C364.063354,489.376923 352.559723,493.646545 341.094604,498.017120 
	C338.136322,499.144836 337.122772,501.375885 338.273682,504.444794 
	C341.894348,514.099121 345.359100,523.815552 349.184479,533.388000 
	C351.143799,538.290955 356.563263,541.388062 361.387268,539.841919 
	C371.784424,536.509705 381.970520,532.519104 392.692688,528.635010 
	C391.473328,525.676147 390.498749,523.311218 389.448029,520.761597 
	C387.505798,521.438538 386.104401,521.895325 384.725739,522.412720 
	C377.409180,525.158691 370.110413,527.952515 362.779083,530.658264 
	C360.144867,531.630493 357.475403,532.290527 356.694336,527.818237 
	C355.920868,526.161438 355.147369,524.504639 354.021454,522.313354 
	C353.810577,521.709595 353.599701,521.105835 353.660126,519.808777 
	C352.916595,518.150818 352.173065,516.492920 351.050812,514.183960 
M198.752563,508.259552 
	C198.810318,507.513550 198.868057,506.767548 199.399033,505.766968 
	C199.072067,505.162018 198.745102,504.557098 197.995880,503.377167 
	C196.033447,501.247528 194.341553,498.750641 192.052567,497.064270 
	C187.198837,493.488434 182.033951,490.334930 177.016861,486.045715 
	C176.867996,484.771271 176.719116,483.496826 176.651489,481.670288 
	C177.135666,481.117737 177.619843,480.565216 178.895096,480.034698 
	C181.710785,480.639252 184.526489,481.243835 187.992966,481.985596 
	C191.116501,484.143494 194.417221,486.087952 197.327042,488.503296 
	C203.566422,493.682434 205.833466,493.315674 209.843948,485.601868 
	C199.125977,478.839935 188.374191,472.056671 176.965027,464.858673 
	C173.782028,470.202148 170.468109,474.971680 167.987167,480.140961 
	C165.192383,485.964233 167.023331,491.106293 172.583771,494.808990 
	C177.563950,498.125305 182.636215,501.309326 187.750168,504.416260 
	C190.313278,505.973480 190.524231,507.679138 189.123230,510.205688 
	C186.688156,514.597168 185.160919,515.135803 180.906387,512.476318 
	C172.930420,507.490570 164.974289,502.473175 156.735977,497.296844 
	C155.078140,499.877594 153.760178,501.929260 152.089142,504.530518 
	C161.700500,510.463837 170.853470,516.456421 180.353348,521.836426 
	C185.212677,524.588379 190.710846,522.780029 194.051773,518.238586 
	C195.716003,515.976379 197.030121,513.456543 199.026215,510.953278 
	C199.002563,510.298218 198.978897,509.643127 198.752563,508.259552 
M385.932312,445.450806 
	C386.968750,444.613312 388.029449,443.803925 389.037933,442.934052 
	C406.547852,427.831329 412.564636,407.374634 404.744202,386.271973 
	C398.652802,369.834991 385.896759,359.626373 370.125824,352.957336 
	C367.903442,352.017548 365.312286,351.551453 362.889740,351.543945 
	C332.903625,351.450745 302.917145,351.479340 272.930756,351.493683 
	C271.156281,351.494537 269.381866,351.641174 267.612762,351.719727 
	C267.612762,365.133942 267.612762,378.017944 267.612762,391.195129 
	C269.983826,391.195129 271.971313,391.177307 273.958435,391.197876 
	C296.606567,391.432434 319.255341,391.623810 341.902313,391.940796 
	C348.971527,392.039764 353.546021,397.015656 353.390869,404.007111 
	C353.238281,410.881378 348.200378,415.899323 341.383087,415.902893 
	C318.560120,415.914917 295.737122,415.907349 272.914154,415.907288 
	C271.160675,415.907257 269.407166,415.907288 267.586792,415.907288 
	C267.586792,429.389374 267.586792,442.125793 267.586792,455.307831 
	C269.743042,455.307831 271.551300,455.308044 273.359589,455.307770 
	C301.013702,455.303650 328.678284,454.856110 356.316803,455.510925 
	C367.554260,455.777130 376.773468,452.401306 385.932312,445.450806 
M243.557205,49.268448 
	C240.181122,49.746922 240.016159,51.921036 240.359589,54.736408 
	C241.377991,63.085400 242.200470,71.458290 243.261307,81.326324 
	C236.757202,75.572441 231.404648,70.702209 225.899750,66.010735 
	C221.610565,62.355328 218.841568,63.250870 217.227203,68.651184 
	C215.189590,75.467247 213.226257,82.305511 210.805161,90.591156 
	C206.631332,82.381622 203.132309,75.471481 199.607483,68.574524 
	C196.382416,62.264103 196.177536,62.219360 188.843353,66.001259 
	C195.337631,79.074806 201.736191,92.208168 208.401642,105.204651 
	C210.173264,108.659035 214.580612,108.179924 216.219894,104.542412 
	C217.031494,102.741478 217.388992,100.731506 217.910049,98.804779 
	C219.890900,91.480164 221.854660,84.150917 224.075714,75.890221 
	C231.164383,82.353722 237.391830,88.312111 243.975449,93.846840 
	C245.719696,95.313217 248.559906,95.475945 250.896896,96.237251 
	C251.568100,94.006554 252.984909,91.707527 252.787750,89.556419 
	C251.632614,76.953697 250.023758,64.393311 248.747635,51.800438 
	C248.418961,48.557129 247.191971,47.701050 243.557205,49.268448 
M418.826752,291.302094 
	C419.183472,290.741791 419.593262,290.207916 419.887665,289.616577 
	C421.101929,287.177368 422.281158,284.720703 423.473297,282.270477 
	C420.749695,281.527344 418.027863,280.143982 415.302216,280.136414 
	C368.975403,280.007721 322.648102,280.048401 276.320923,280.059235 
	C274.656189,280.059631 272.968933,279.978668 271.331421,280.211548 
	C267.844177,280.707489 265.784668,282.115814 265.934540,286.372620 
	C266.274384,296.026093 266.232697,305.704712 265.969238,315.362854 
	C265.835846,320.253174 268.053833,321.963257 272.506012,321.944244 
	C279.838196,321.912933 287.170685,321.944794 294.503021,321.944885 
	C325.998840,321.945312 357.494720,321.964020 388.990479,321.921936 
	C393.881500,321.915405 398.275146,321.335999 401.406799,316.373352 
	C406.703766,307.979431 412.719482,300.039093 418.826752,291.302094 
M177.519287,125.970306 
	C183.664169,122.093521 189.809036,118.216743 196.295944,114.124176 
	C194.662598,111.596390 193.274338,109.447914 191.701660,107.014023 
	C186.599075,110.208900 181.976242,113.126411 177.330017,116.006172 
	C172.561340,118.961807 167.769806,121.880547 163.051926,124.776367 
	C156.596664,116.999084 156.705505,116.330086 164.621094,111.451309 
	C168.583374,109.009155 172.621048,106.664680 176.415497,103.980392 
	C182.542755,99.645782 183.523041,93.456635 179.388611,86.993263 
	C174.172821,78.839394 168.642227,76.865105 161.633331,80.834335 
	C157.728287,83.045799 153.943817,85.473518 150.140076,87.859665 
	C146.274521,90.284599 142.452057,92.778221 138.479767,95.325745 
	C140.150040,97.987808 141.443130,100.048752 142.941025,102.436096 
	C150.405334,97.793808 157.487381,93.500053 164.443497,89.011147 
	C167.427902,87.085266 169.489639,87.236313 171.419998,90.441727 
	C173.189682,93.380333 174.025024,95.689056 170.298584,97.841705 
	C165.118317,100.834175 160.043732,104.027962 155.068268,107.351677 
	C149.673431,110.955544 148.070908,116.374710 151.032715,122.138649 
	C153.580872,127.097588 156.780731,131.721619 159.901443,136.836288 
	C165.916336,133.114914 171.401443,129.721313 177.519287,125.970306 
M452.073212,487.053162 
	C454.825104,484.355316 453.456421,482.043762 451.490662,479.663116 
	C443.972595,470.558350 436.328735,461.548370 429.103455,452.215302 
	C426.112122,448.351318 423.776276,447.891937 420.633423,451.627441 
	C420.126953,452.229401 419.244080,452.514618 418.502563,452.966125 
	C425.491638,461.536774 431.990723,469.506500 439.358246,478.541229 
	C424.354309,476.813049 411.002502,475.179840 397.621704,473.835754 
	C395.594604,473.632172 392.027435,474.292236 391.648163,475.400177 
	C391.012085,477.258423 391.710083,480.307068 392.994934,481.964996 
	C399.307129,490.109955 405.987030,497.970581 412.561157,505.911652 
	C414.634247,508.415771 416.782288,510.857849 419.099457,513.566162 
	C421.489807,511.462524 423.400879,509.780701 425.359131,508.057343 
	C418.474243,499.639526 411.995667,491.718475 404.882172,483.021118 
	C413.432556,483.943512 420.823456,484.803741 428.228119,485.522217 
	C435.960571,486.272491 443.706329,486.886261 452.073212,487.053162 
M322.807434,507.393982 
	C322.614227,505.981995 322.421021,504.570007 322.231262,503.183350 
	C321.091400,503.115448 320.427032,503.014282 319.769012,503.045898 
	C308.620941,503.581329 297.478027,504.276215 286.324219,504.616150 
	C281.383942,504.766724 280.001038,507.149841 280.306885,511.622711 
	C280.761353,518.269043 280.965790,524.932434 281.289520,531.587891 
	C282.167542,549.637634 284.066772,551.407349 302.261383,550.728333 
	C309.671234,550.451843 317.073303,549.966431 324.829498,549.557617 
	C324.592468,546.485046 324.404907,544.053650 324.200684,541.406250 
	C321.843231,541.406250 319.882751,541.338013 317.928406,541.418335 
	C310.437866,541.726196 302.949860,542.259766 295.459473,542.285095 
	C293.742493,542.290894 290.614319,540.733826 290.521210,539.684326 
	C289.748047,530.971924 289.534882,522.209900 289.137054,513.110718 
	C299.428528,512.577637 309.056244,512.080994 318.683685,511.578827 
	C320.851440,511.465790 323.312164,511.700867 322.807434,507.393982 
M281.638641,54.860565 
	C291.220551,54.860565 300.802490,54.860565 310.299133,54.860565 
	C310.299133,51.179676 310.299133,48.756779 310.299133,46.333645 
	C297.630798,46.333645 285.335968,46.288845 273.041870,46.361500 
	C269.448334,46.382736 268.155090,48.700169 268.202972,52.006348 
	C268.347717,62.000271 268.353943,71.998909 268.691986,81.986298 
	C268.891907,87.894127 272.723785,92.487961 278.539703,92.741280 
	C289.272797,93.208755 300.040833,92.874870 310.793365,92.874870 
	C310.793365,89.604141 310.793365,87.039284 310.793365,84.403381 
	C301.111481,84.403381 291.809113,84.315361 282.509888,84.447350 
	C278.867188,84.499062 276.908447,83.463226 276.986420,79.403519 
	C277.120636,72.410980 277.075287,65.407494 276.825836,58.418568 
	C276.716583,55.357361 278.054077,54.607628 281.638641,54.860565 
M389.640503,97.534821 
	C388.743835,98.103195 387.847168,98.671562 385.567474,100.116615 
	C385.567474,89.008301 385.618530,79.088356 385.550293,69.169235 
	C385.501221,62.037533 384.614227,61.173203 377.930237,60.313126 
	C377.930237,75.638794 377.822205,91.065491 378.054108,106.487083 
	C378.086517,108.642815 379.304047,111.958336 380.850647,112.590782 
	C382.478607,113.256516 385.553558,111.850075 387.314514,110.475586 
	C395.825592,103.832367 404.118866,96.909340 412.464630,90.055359 
	C416.113068,87.059067 419.702209,83.990616 423.496063,80.805687 
	C415.583801,76.343285 415.590302,76.351212 409.551422,81.297775 
	C403.125854,86.561111 396.686340,91.807434 389.640503,97.534821 
M231.975464,503.489655 
	C234.189056,504.121887 236.402649,504.754120 239.031525,505.504944 
	C235.856537,517.847656 232.740082,529.962769 229.540390,542.401489 
	C232.690048,543.090820 235.039307,543.605042 237.730087,544.193909 
	C241.046417,531.800598 244.240311,519.864807 247.517075,507.619232 
	C253.728363,509.174164 259.312836,510.572174 265.386017,512.092529 
	C266.119659,509.367462 266.779053,506.918121 267.572266,503.971680 
	C252.554672,500.044373 238.050079,496.251221 223.326630,492.400848 
	C222.491013,495.534058 221.867813,497.870789 221.178238,500.456421 
	C224.842377,501.481842 228.012878,502.369110 231.975464,503.489655 
M336.269470,53.324158 
	C336.771057,46.809345 331.664337,49.960022 328.735535,48.298481 
	C325.717285,62.449802 322.710175,75.891365 320.158722,89.418869 
	C319.869263,90.953636 321.841431,94.225708 323.273651,94.568893 
	C335.673492,97.540108 348.189850,100.024902 361.093872,102.743538 
	C361.692871,99.736198 362.186340,97.258682 362.725189,94.553429 
	C351.309021,92.063599 340.516907,89.709862 329.324799,87.268890 
	C331.667694,75.833199 333.892944,64.971786 336.269470,53.324158 
M126.750244,112.687897 
	C125.735695,110.992592 124.721153,109.297295 123.577591,107.386398 
	C118.292938,112.155823 114.537102,115.545471 110.625237,119.075943 
	C112.770828,121.436417 114.409805,123.239548 116.120316,125.121368 
	C118.341568,123.477097 120.150146,122.138298 122.186012,120.631256 
	C130.704025,130.087463 138.995651,139.292374 147.486099,148.717987 
	C149.863892,146.606049 151.783173,144.901352 153.891769,143.028519 
	C144.742844,132.784012 135.998047,122.992004 126.750244,112.687897 
M138.193405,471.695221 
	C134.853500,474.883820 131.513596,478.072449 127.902954,481.519562 
	C130.217712,483.760437 132.067810,485.551483 134.140686,487.558197 
	C144.933929,476.360809 155.570038,465.326447 165.854431,454.656952 
	C162.860901,451.350372 159.461517,447.595459 156.132401,443.918182 
	C153.893021,446.002747 152.031036,447.735992 150.182236,449.456970 
	C151.934250,451.580475 153.373138,453.324432 154.694687,454.926178 
	C149.157425,460.557281 143.926315,465.877075 138.193405,471.695221 
M378.920074,513.320190 
	C385.564514,510.626709 379.287720,507.657227 379.575531,503.993103 
	C370.546509,507.340515 362.205109,510.432983 353.592010,513.626221 
	C354.916870,516.791870 355.954620,519.271423 356.945831,521.639832 
	C364.329437,518.854614 371.272797,516.235413 378.920074,513.320190 
M295.478638,73.978592 
	C299.231903,73.978592 302.985168,73.978592 306.663391,73.978592 
	C306.663391,70.500450 306.663391,67.941338 306.663391,65.525345 
	C297.691833,65.525345 289.139099,65.525345 280.630219,65.525345 
	C280.630219,68.595329 280.630219,71.145142 280.630219,73.986519 
	C285.542023,73.986519 290.016235,73.986519 295.478638,73.978592 
M292.999237,526.617493 
	C293.125397,528.220276 293.251556,529.822998 293.412689,531.870483 
	C302.291870,531.459534 310.805450,531.065430 319.447266,530.665466 
	C319.447266,527.665710 319.447266,525.123169 319.447266,522.164551 
	C311.135284,522.531921 303.228943,522.810120 295.339020,523.334900 
	C294.504028,523.390442 293.765411,524.894165 292.999237,526.617493 
M431.474579,124.350632 
	C431.526947,124.150223 431.579346,123.949814 431.631714,123.749413 
	C431.503754,123.878136 431.375763,124.006859 431.474579,124.350632 
M446.578278,137.515976 
	C446.578278,137.515976 446.478485,137.573181 446.578278,137.515976 
z"/>
<path fill="#FBFBFC" opacity="1.000000" stroke="none" 
	d="
M211.650620,240.979370 
	C217.317307,236.874466 222.983994,232.769562 229.153137,228.407501 
	C230.115433,227.815567 230.575272,227.480789 231.035110,227.145996 
	C238.691910,223.101273 246.968216,223.296677 255.306366,223.323105 
	C289.228302,223.430634 323.150818,223.368057 357.751953,223.390015 
	C359.281738,223.267151 360.132660,223.122452 360.983551,222.977753 
	C363.046387,221.360825 365.109253,219.743881 367.478821,217.628616 
	C368.051453,216.080231 368.317322,215.030197 368.583191,213.980164 
	C368.466736,211.540802 368.350220,209.101456 368.029846,206.034012 
	C367.192993,204.663254 366.559967,203.920593 365.926971,203.177917 
	C365.926971,203.177917 365.938873,203.062698 365.800537,202.758911 
	C364.826477,201.855606 363.990723,201.256088 363.154968,200.656555 
	C360.876678,200.064682 358.600555,198.967392 356.319794,198.957825 
	C328.658875,198.841614 300.997223,198.885712 273.335785,198.888077 
	C271.536194,198.888229 269.736572,198.888092 267.597351,198.888092 
	C267.597351,183.848679 267.597351,169.272018 267.597351,154.106873 
	C269.318726,154.024490 271.064423,153.868835 272.810181,153.868088 
	C305.637329,153.854126 338.471222,154.235535 371.287872,153.648590 
	C382.337555,153.450974 391.382996,156.937607 400.005402,162.992432 
	C419.709961,176.829346 428.256805,198.334564 421.684998,220.056000 
	C416.009827,238.813782 402.140625,250.103882 384.576752,257.306396 
	C382.827911,258.023529 380.632324,257.765869 378.643982,257.767120 
	C341.151031,257.791138 303.658112,257.780212 266.165161,257.791382 
	C257.944305,257.793823 256.141327,259.574493 256.131104,267.686554 
	C256.054688,328.173737 255.988495,388.660889 255.919464,449.148071 
	C255.917419,450.947113 255.919235,452.746155 255.919235,454.926025 
	C237.794434,454.926025 220.086304,454.926025 201.763184,454.926025 
	C201.763184,452.853394 201.763138,450.917145 201.763184,448.980865 
	C201.765060,385.826111 201.818420,322.671265 201.689713,259.516754 
	C201.676743,253.150208 205.733612,249.209961 209.158112,244.134277 
	C210.239441,242.801117 210.945038,241.890244 211.650620,240.979370 
z"/>
<path fill="#FBFBFB" opacity="1.000000" stroke="none" 
	d="
M385.639465,445.658844 
	C376.773468,452.401306 367.554260,455.777130 356.316803,455.510925 
	C328.678284,454.856110 301.013702,455.303650 273.359589,455.307770 
	C271.551300,455.308044 269.743042,455.307831 267.586792,455.307831 
	C267.586792,442.125793 267.586792,429.389374 267.586792,415.907288 
	C269.407166,415.907288 271.160675,415.907257 272.914154,415.907288 
	C295.737122,415.907349 318.560120,415.914917 341.383087,415.902893 
	C348.200378,415.899323 353.238281,410.881378 353.390869,404.007111 
	C353.546021,397.015656 348.971527,392.039764 341.902313,391.940796 
	C319.255341,391.623810 296.606567,391.432434 273.958435,391.197876 
	C271.971313,391.177307 269.983826,391.195129 267.612762,391.195129 
	C267.612762,378.017944 267.612762,365.133942 267.612762,351.719727 
	C269.381866,351.641174 271.156281,351.494537 272.930756,351.493683 
	C302.917145,351.479340 332.903625,351.450745 362.889740,351.543945 
	C365.312286,351.551453 367.903442,352.017548 370.125824,352.957336 
	C385.896759,359.626373 398.652802,369.834991 404.744202,386.271973 
	C412.564636,407.374634 406.547852,427.831329 389.037933,442.934052 
	C388.029449,443.803925 386.968750,444.613312 385.639465,445.658844 
z"/>
<path fill="#6F070A" opacity="1.000000" stroke="none" 
	d="
M481.032532,433.022858 
	C481.032532,433.022858 480.958435,433.447296 480.589996,433.730927 
	C478.806061,435.366943 477.296143,436.634735 475.993561,438.088287 
	C472.674774,441.791595 469.595215,445.724823 466.082947,449.228241 
	C465.198303,450.110626 462.272339,450.444000 461.642303,449.766663 
	C460.402649,448.433868 459.386932,446.109833 459.636566,444.393372 
	C459.889465,442.654602 461.755463,441.133575 462.962311,439.553375 
	C467.991180,432.968536 473.588379,426.742615 477.971527,419.754333 
	C489.621124,401.180725 499.414886,381.771515 505.558929,360.478638 
	C510.461670,343.487610 514.099670,326.265381 514.638184,308.784912 
	C515.146301,292.290405 513.913269,275.582550 511.660400,259.214294 
	C509.916809,246.546356 505.928772,234.091873 501.967834,221.856750 
	C499.136871,213.112045 494.598206,204.930084 490.997040,196.422729 
	C483.466888,178.633606 471.971863,163.485687 459.471802,149.034317 
	C455.035553,143.905548 454.957794,142.120316 462.348145,135.647598 
	C463.511139,137.673859 464.589050,139.978897 466.043060,142.015366 
	C475.185486,154.820221 484.392639,167.579117 493.642639,180.306503 
	C494.462891,181.435059 495.742615,182.229660 496.835724,183.476990 
	C496.879456,184.175079 496.896362,184.575562 496.691986,185.197968 
	C499.491547,191.965424 502.631165,198.459137 505.510651,205.066269 
	C513.894043,224.302505 519.279663,244.368744 522.075134,265.164398 
	C522.620911,269.224365 523.879150,273.188538 524.816284,277.595032 
	C524.821289,279.320221 524.818909,280.647369 524.563599,282.300171 
	C524.481323,291.092896 524.652100,299.559937 524.828735,308.428375 
	C524.818848,310.156067 524.803162,311.482330 524.421143,312.965088 
	C523.652771,316.333160 523.306702,319.552948 522.839478,322.755035 
	C520.252930,340.480774 516.576172,357.892303 510.354340,374.805725 
	C503.856689,392.468903 496.179565,409.405273 485.214783,424.780548 
	C483.446014,427.260803 482.408234,430.262299 481.032532,433.022858 
z"/>
<path fill="#6F070A" opacity="1.000000" stroke="none" 
	d="
M78.833504,364.170746 
	C78.843407,364.574982 78.853310,364.979218 78.637955,365.927490 
	C79.881844,369.706268 81.350990,372.941040 82.820129,376.175781 
	C82.829361,376.579132 82.838577,376.982513 82.652145,377.899567 
	C83.248032,379.665283 84.039558,380.917328 84.831085,382.169342 
	C84.876335,382.572052 84.921577,382.974792 84.990280,384.055847 
	C86.615517,387.547729 88.217308,390.361298 89.819092,393.174866 
	C90.190033,394.218140 90.560989,395.261444 91.008179,396.984070 
	C92.314278,399.179565 93.544136,400.695770 94.773994,402.211945 
	C94.818398,402.610779 94.862801,403.009644 94.966599,404.052460 
	C95.658386,405.494080 96.290779,406.291718 96.923172,407.089386 
	C96.923164,407.089386 96.989716,407.524902 97.039848,408.103516 
	C102.351257,416.596649 107.391212,424.670776 112.946442,432.373291 
	C117.110161,438.146484 117.159271,439.456512 110.611305,443.976013 
	C109.391167,442.600891 108.165504,441.129089 106.843414,439.749725 
	C104.620964,437.431030 102.337166,435.171173 100.056961,432.667175 
	C100.034737,432.447784 99.972710,432.011169 99.949081,431.674042 
	C98.992851,430.502319 98.060242,429.667725 97.107971,428.530273 
	C97.035431,427.826416 96.982536,427.425385 96.914322,426.672058 
	C89.357910,412.348206 80.392891,398.942627 74.568130,384.288849 
	C61.913982,352.453796 55.223183,319.343475 57.818707,284.682434 
	C59.023514,268.593201 60.805012,252.706711 65.132164,237.149582 
	C70.079170,219.363922 76.046478,201.978470 85.412750,185.951736 
	C90.154259,177.838486 94.636215,169.530533 99.970909,161.819351 
	C105.048775,154.479431 111.007385,147.737045 116.786179,140.907440 
	C117.582291,139.966568 120.159798,139.257858 120.885834,139.804749 
	C122.292175,140.864075 123.772865,142.910599 123.738892,144.516632 
	C123.697998,146.450562 122.530983,148.757797 121.129089,150.202408 
	C110.761032,160.886292 103.161987,173.408157 95.713760,186.195236 
	C85.342697,204.000214 77.941963,222.873352 73.301689,242.824738 
	C71.062050,252.454330 69.901054,262.334778 68.251663,272.101654 
	C68.196053,273.145996 68.140450,274.190369 67.796631,275.881866 
	C67.423378,278.719330 67.338326,280.909637 67.253281,283.099945 
	C67.220070,285.423370 67.186859,287.746765 67.124588,290.854370 
	C67.146637,292.113220 67.197754,292.587921 67.248871,293.062622 
	C67.217102,298.037750 67.185341,303.012848 67.115112,308.871765 
	C67.656227,311.896484 68.235794,314.037476 68.815369,316.178436 
	C68.826225,317.193451 68.837090,318.208496 68.593674,319.902832 
	C69.599648,328.978851 70.749146,337.394745 72.204315,345.757507 
	C72.534714,347.656311 73.924759,349.370758 74.827065,351.170044 
	C74.842476,351.575562 74.857895,351.981110 74.654449,352.932678 
	C75.901558,357.042725 77.367531,360.606750 78.833504,364.170746 
z"/>
<path fill="#ECEAED" opacity="1.000000" stroke="none" 
	d="
M243.930740,49.154358 
	C247.191971,47.701050 248.418961,48.557129 248.747635,51.800438 
	C250.023758,64.393311 251.632614,76.953697 252.787750,89.556419 
	C252.984909,91.707527 251.568100,94.006554 250.896896,96.237251 
	C248.559906,95.475945 245.719696,95.313217 243.975449,93.846840 
	C237.391830,88.312111 231.164383,82.353722 224.075714,75.890221 
	C221.854660,84.150917 219.890900,91.480164 217.910049,98.804779 
	C217.388992,100.731506 217.031494,102.741478 216.219894,104.542412 
	C214.580612,108.179924 210.173264,108.659035 208.401642,105.204651 
	C201.736191,92.208168 195.337631,79.074806 188.843353,66.001259 
	C196.177536,62.219360 196.382416,62.264103 199.607483,68.574524 
	C203.132309,75.471481 206.631332,82.381622 210.805161,90.591156 
	C213.226257,82.305511 215.189590,75.467247 217.227203,68.651184 
	C218.841568,63.250870 221.610565,62.355328 225.899750,66.010735 
	C231.404648,70.702209 236.757202,75.572441 243.261307,81.326324 
	C242.200470,71.458290 241.377991,63.085400 240.359589,54.736408 
	C240.016159,51.921036 240.181122,49.746922 243.930740,49.154358 
z"/>
<path fill="#5D090E" opacity="1.000000" stroke="none" 
	d="
M418.629883,291.605042 
	C412.719482,300.039093 406.703766,307.979431 401.406799,316.373352 
	C398.275146,321.335999 393.881500,321.915405 388.990479,321.921936 
	C357.494720,321.964020 325.998840,321.945312 294.503021,321.944885 
	C287.170685,321.944794 279.838196,321.912933 272.506012,321.944244 
	C268.053833,321.963257 265.835846,320.253174 265.969238,315.362854 
	C266.232697,305.704712 266.274384,296.026093 265.934540,286.372620 
	C265.784668,282.115814 267.844177,280.707489 271.331421,280.211548 
	C272.968933,279.978668 274.656189,280.059631 276.320923,280.059235 
	C322.648102,280.048401 368.975403,280.007721 415.302216,280.136414 
	C418.027863,280.143982 420.749695,281.527344 423.473297,282.270477 
	C422.281158,284.720703 421.101929,287.177368 419.887665,289.616577 
	C419.593262,290.207916 419.183472,290.741791 418.629883,291.605042 
M350.500000,283.986572 
	C339.847015,283.986572 329.194031,283.986816 318.541046,283.986481 
	C310.051971,283.986206 301.562866,283.984863 293.073792,283.984711 
	C287.161407,283.984619 281.248993,283.998291 275.336670,283.981049 
	C272.389648,283.972473 269.936798,284.655243 269.789856,288.199219 
	C269.480804,295.650513 269.162567,303.103668 269.027069,310.559326 
	C268.903015,317.384888 269.602661,318.009735 276.399445,318.010803 
	C314.184204,318.016785 351.969116,317.961273 389.753479,318.082733 
	C393.690674,318.095367 396.167419,316.856049 398.363922,313.551270 
	C403.948303,305.149231 409.965088,297.035614 415.675049,288.714722 
	C416.416504,287.634216 416.998840,285.693787 416.510834,284.732178 
	C416.025970,283.776642 414.086578,283.064331 412.804443,283.093658 
	C407.180084,283.222321 401.564819,283.888123 395.942474,283.938538 
	C381.129364,284.071411 366.314301,283.985413 350.500000,283.986572 
z"/>
<path fill="#ECEAED" opacity="1.000000" stroke="none" 
	d="
M177.202911,126.149002 
	C171.401443,129.721313 165.916336,133.114914 159.901443,136.836288 
	C156.780731,131.721619 153.580872,127.097588 151.032715,122.138649 
	C148.070908,116.374710 149.673431,110.955544 155.068268,107.351677 
	C160.043732,104.027962 165.118317,100.834175 170.298584,97.841705 
	C174.025024,95.689056 173.189682,93.380333 171.419998,90.441727 
	C169.489639,87.236313 167.427902,87.085266 164.443497,89.011147 
	C157.487381,93.500053 150.405334,97.793808 142.941025,102.436096 
	C141.443130,100.048752 140.150040,97.987808 138.479767,95.325745 
	C142.452057,92.778221 146.274521,90.284599 150.140076,87.859665 
	C153.943817,85.473518 157.728287,83.045799 161.633331,80.834335 
	C168.642227,76.865105 174.172821,78.839394 179.388611,86.993263 
	C183.523041,93.456635 182.542755,99.645782 176.415497,103.980392 
	C172.621048,106.664680 168.583374,109.009155 164.621094,111.451309 
	C156.705505,116.330086 156.596664,116.999084 163.051926,124.776367 
	C167.769806,121.880547 172.561340,118.961807 177.330017,116.006172 
	C181.976242,113.126411 186.599075,110.208900 191.701660,107.014023 
	C193.274338,109.447914 194.662598,111.596390 196.295944,114.124176 
	C189.809036,118.216743 183.664169,122.093521 177.202911,126.149002 
z"/>
<path fill="#EBE9EC" opacity="1.000000" stroke="none" 
	d="
M176.996628,487.008270 
	C182.033951,490.334930 187.198837,493.488434 192.052567,497.064270 
	C194.341553,498.750641 196.033447,501.247528 198.138046,503.939575 
	C198.495422,505.008484 198.710617,505.515015 198.925812,506.021545 
	C198.868057,506.767548 198.810318,507.513550 198.658157,508.829926 
	C198.543365,509.951263 198.522980,510.502258 198.502594,511.053223 
	C197.030121,513.456543 195.716003,515.976379 194.051773,518.238586 
	C190.710846,522.780029 185.212677,524.588379 180.353348,521.836426 
	C170.853470,516.456421 161.700500,510.463837 152.089142,504.530518 
	C153.760178,501.929260 155.078140,499.877594 156.735977,497.296844 
	C164.974289,502.473175 172.930420,507.490570 180.906387,512.476318 
	C185.160919,515.135803 186.688156,514.597168 189.123230,510.205688 
	C190.524231,507.679138 190.313278,505.973480 187.750168,504.416260 
	C182.636215,501.309326 177.563950,498.125305 172.583771,494.808990 
	C167.023331,491.106293 165.192383,485.964233 167.987167,480.140961 
	C170.468109,474.971680 173.782028,470.202148 176.965027,464.858673 
	C188.374191,472.056671 199.125977,478.839935 209.843948,485.601868 
	C205.833466,493.315674 203.566422,493.682434 197.327042,488.503296 
	C194.417221,486.087952 191.116501,484.143494 187.490387,481.616394 
	C185.334900,480.203369 183.638992,479.221039 182.038986,478.101654 
	C179.505981,476.329498 178.596481,477.692078 178.104019,480.012665 
	C177.619843,480.565216 177.135666,481.117737 176.332855,482.145599 
	C176.341705,484.083374 176.669159,485.545807 176.996628,487.008270 
z"/>
<path fill="#2E0304" opacity="1.000000" stroke="none" 
	d="
M496.808899,183.179382 
	C495.742615,182.229660 494.462891,181.435059 493.642639,180.306503 
	C484.392639,167.579117 475.185486,154.820221 466.043060,142.015366 
	C464.589050,139.978897 463.511139,137.673859 462.348145,135.647598 
	C454.957794,142.120316 455.035553,143.905548 459.471802,149.034317 
	C471.971863,163.485687 483.466888,178.633606 490.997040,196.422729 
	C494.598206,204.930084 499.136871,213.112045 501.967834,221.856750 
	C505.928772,234.091873 509.916809,246.546356 511.660400,259.214294 
	C513.913269,275.582550 515.146301,292.290405 514.638184,308.784912 
	C514.099670,326.265381 510.461670,343.487610 505.558929,360.478638 
	C499.414886,381.771515 489.621124,401.180725 477.971527,419.754333 
	C473.588379,426.742615 467.991180,432.968536 462.962311,439.553375 
	C461.755463,441.133575 459.889465,442.654602 459.636566,444.393372 
	C459.386932,446.109833 460.402649,448.433868 461.642303,449.766663 
	C462.272339,450.444000 465.198303,450.110626 466.082947,449.228241 
	C469.595215,445.724823 472.674774,441.791595 475.993561,438.088287 
	C477.296143,436.634735 478.806061,435.366943 480.554810,433.943451 
	C477.727936,438.612640 474.577454,443.359436 471.394653,448.084473 
	C471.028809,448.627533 470.381287,448.985901 470.036957,449.537628 
	C468.198822,452.482727 466.240967,455.377747 462.145844,453.492981 
	C458.125519,451.642517 455.219238,448.863831 456.297119,443.288208 
	C457.055359,441.817932 457.524231,440.907715 457.993164,439.997498 
	C457.993164,439.997498 458.007538,439.512970 458.338013,439.231934 
	C459.781586,437.968506 460.894684,436.986084 462.007782,436.003632 
	C464.252594,433.221191 466.497375,430.438721 469.219299,427.284515 
	C471.144562,424.615845 472.592682,422.318939 474.040833,420.022034 
	C475.023102,418.921783 476.005371,417.821533 477.261566,416.163025 
	C479.023621,413.069397 480.511810,410.534088 482.000000,407.998779 
	C482.261810,407.504395 482.523590,407.010010 483.196838,406.101013 
	C484.742554,403.457733 485.876770,401.229034 487.010986,399.000336 
	C487.653992,397.560791 488.296967,396.121246 489.236938,394.149567 
	C490.024811,392.412567 490.515686,391.207703 491.006531,390.002838 
	C491.676178,388.584686 492.345856,387.166565 493.289429,385.170258 
	C494.709564,381.727631 495.855743,378.863190 497.001953,375.998779 
	C497.009186,375.258911 497.016388,374.519043 497.368958,373.339752 
	C498.854156,370.950043 500.342010,369.119965 501.065491,367.025787 
	C502.889465,361.746216 504.369019,356.347595 505.986603,350.996704 
	C506.900024,346.651062 508.082275,342.340759 508.659058,337.950897 
	C509.384949,332.426331 509.542725,326.829498 510.093231,321.278442 
	C510.342834,318.761658 511.098969,316.295868 511.360992,313.779419 
	C511.961761,308.009796 512.672729,302.228699 512.787598,296.441315 
	C512.843811,293.609863 511.452789,290.779297 511.114960,287.901611 
	C510.806885,285.277313 511.036591,282.589844 511.303345,279.198914 
	C510.727844,274.628418 509.878265,270.789246 509.028687,266.950043 
	C507.614105,258.843506 506.706451,250.606476 504.661499,242.662186 
	C501.860352,231.780212 498.489777,221.017639 494.779022,210.408234 
	C492.870514,204.951614 489.695801,199.937836 487.044006,194.010361 
	C486.331055,192.529556 485.667358,191.762344 485.003662,190.995117 
	C485.003662,190.995117 485.000000,191.000000 484.962189,190.633224 
	C484.161438,188.294357 483.708740,186.116226 482.566437,184.396027 
	C480.604950,181.442032 478.213043,178.773865 476.001770,175.985718 
	C471.091309,169.035538 466.225555,162.052933 461.231934,155.162994 
	C460.253418,153.812866 458.889679,152.666061 457.513489,151.694885 
	C454.046326,149.248062 452.636841,146.135895 453.948547,141.999268 
	C456.535767,133.840424 460.339325,132.412048 465.965576,138.732056 
	C474.035034,147.796448 481.108490,157.747650 488.602264,167.324066 
	C489.209442,168.100006 489.778564,168.905731 490.712524,170.209549 
	C492.976074,174.874115 494.892487,179.026749 496.808899,183.179382 
z"/>
<path fill="#EDEBEE" opacity="1.000000" stroke="none" 
	d="
M451.759735,487.306427 
	C443.706329,486.886261 435.960571,486.272491 428.228119,485.522217 
	C420.823456,484.803741 413.432556,483.943512 404.882172,483.021118 
	C411.995667,491.718475 418.474243,499.639526 425.359131,508.057343 
	C423.400879,509.780701 421.489807,511.462524 419.099457,513.566162 
	C416.782288,510.857849 414.634247,508.415771 412.561157,505.911652 
	C405.987030,497.970581 399.307129,490.109955 392.994934,481.964996 
	C391.710083,480.307068 391.012085,477.258423 391.648163,475.400177 
	C392.027435,474.292236 395.594604,473.632172 397.621704,473.835754 
	C411.002502,475.179840 424.354309,476.813049 439.358246,478.541229 
	C431.990723,469.506500 425.491638,461.536774 418.502563,452.966125 
	C419.244080,452.514618 420.126953,452.229401 420.633423,451.627441 
	C423.776276,447.891937 426.112122,448.351318 429.103455,452.215302 
	C436.328735,461.548370 443.972595,470.558350 451.490662,479.663116 
	C453.456421,482.043762 454.825104,484.355316 451.759735,487.306427 
z"/>
<path fill="#2E0204" opacity="1.000000" stroke="none" 
	d="
M68.591194,271.983459 
	C69.901054,262.334778 71.062050,252.454330 73.301689,242.824738 
	C77.941963,222.873352 85.342697,204.000214 95.713760,186.195236 
	C103.161987,173.408157 110.761032,160.886292 121.129089,150.202408 
	C122.530983,148.757797 123.697998,146.450562 123.738892,144.516632 
	C123.772865,142.910599 122.292175,140.864075 120.885834,139.804749 
	C120.159798,139.257858 117.582291,139.966568 116.786179,140.907440 
	C111.007385,147.737045 105.048775,154.479431 99.970909,161.819351 
	C94.636215,169.530533 90.154259,177.838486 85.412750,185.951736 
	C76.046478,201.978470 70.079170,219.363922 65.132164,237.149582 
	C60.805012,252.706711 59.023514,268.593201 57.818707,284.682434 
	C55.223183,319.343475 61.913982,352.453796 74.568130,384.288849 
	C80.392891,398.942627 89.357910,412.348206 96.577614,426.628693 
	C94.180733,425.615173 92.105232,424.292725 90.029732,422.970276 
	C88.201042,418.957550 86.542747,414.855499 84.498810,410.955566 
	C82.151337,406.476410 79.200058,402.303467 76.996964,397.761810 
	C74.887131,393.412354 73.250412,388.812317 71.673218,384.230347 
	C69.002342,376.471069 66.542023,368.639313 63.988319,360.054108 
	C63.314888,357.513153 62.646324,355.756134 61.977764,353.999115 
	C61.672886,352.055359 61.416660,350.102509 61.054432,348.169495 
	C59.721798,341.057739 57.765957,334.004791 57.128860,326.833374 
	C56.000877,314.136414 55.036800,301.361023 55.197418,288.633484 
	C55.328266,278.265137 56.746845,267.844086 58.429241,257.583282 
	C60.185062,246.874649 62.402359,236.174042 65.420364,225.760452 
	C68.035721,216.736221 71.602959,207.908752 75.572090,199.377014 
	C80.013000,189.831207 84.887009,180.406631 90.480644,171.499557 
	C96.243729,162.322647 103.066841,153.807831 109.501724,145.058899 
	C111.165771,142.796448 113.012535,140.645935 114.957306,138.618530 
	C117.056046,136.430603 119.496391,135.152359 122.449692,137.265701 
	C125.331787,139.328110 127.561378,141.975967 126.125122,145.612839 
	C125.003250,148.453644 123.172607,151.127441 121.206779,153.502960 
	C111.608879,165.101166 102.448753,176.916260 96.338776,190.882492 
	C91.670341,201.553589 85.387032,211.606766 81.595032,222.549225 
	C77.330956,234.853958 75.070564,247.851776 71.909767,260.540924 
	C70.966415,264.328064 69.926445,268.091156 68.591194,271.983459 
z"/>
<path fill="#EDEBEE" opacity="1.000000" stroke="none" 
	d="
M322.817383,507.828979 
	C323.312164,511.700867 320.851440,511.465790 318.683685,511.578827 
	C309.056244,512.080994 299.428528,512.577637 289.137054,513.110718 
	C289.534882,522.209900 289.748047,530.971924 290.521210,539.684326 
	C290.614319,540.733826 293.742493,542.290894 295.459473,542.285095 
	C302.949860,542.259766 310.437866,541.726196 317.928406,541.418335 
	C319.882751,541.338013 321.843231,541.406250 324.200684,541.406250 
	C324.404907,544.053650 324.592468,546.485046 324.829498,549.557617 
	C317.073303,549.966431 309.671234,550.451843 302.261383,550.728333 
	C284.066772,551.407349 282.167542,549.637634 281.289520,531.587891 
	C280.965790,524.932434 280.761353,518.269043 280.306885,511.622711 
	C280.001038,507.149841 281.383942,504.766724 286.324219,504.616150 
	C297.478027,504.276215 308.620941,503.581329 319.769012,503.045898 
	C320.427032,503.014282 321.091400,503.115448 322.231262,503.183350 
	C322.421021,504.570007 322.614227,505.981995 322.817383,507.828979 
z"/>
<path fill="#EBE9EB" opacity="1.000000" stroke="none" 
	d="
M281.155640,54.872444 
	C278.054077,54.607628 276.716583,55.357361 276.825836,58.418568 
	C277.075287,65.407494 277.120636,72.410980 276.986420,79.403519 
	C276.908447,83.463226 278.867188,84.499062 282.509888,84.447350 
	C291.809113,84.315361 301.111481,84.403381 310.793365,84.403381 
	C310.793365,87.039284 310.793365,89.604141 310.793365,92.874870 
	C300.040833,92.874870 289.272797,93.208755 278.539703,92.741280 
	C272.723785,92.487961 268.891907,87.894127 268.691986,81.986298 
	C268.353943,71.998909 268.347717,62.000271 268.202972,52.006348 
	C268.155090,48.700169 269.448334,46.382736 273.041870,46.361500 
	C285.335968,46.288845 297.630798,46.333645 310.299133,46.333645 
	C310.299133,48.756779 310.299133,51.179676 310.299133,54.860565 
	C300.802490,54.860565 291.220551,54.860565 281.155640,54.872444 
z"/>
<path fill="#EDEBEE" opacity="1.000000" stroke="none" 
	d="
M356.381134,528.501160 
	C357.475403,532.290527 360.144867,531.630493 362.779083,530.658264 
	C370.110413,527.952515 377.409180,525.158691 384.725739,522.412720 
	C386.104401,521.895325 387.505798,521.438538 389.448029,520.761597 
	C390.498749,523.311218 391.473328,525.676147 392.692688,528.635010 
	C381.970520,532.519104 371.784424,536.509705 361.387268,539.841919 
	C356.563263,541.388062 351.143799,538.290955 349.184479,533.388000 
	C345.359100,523.815552 341.894348,514.099121 338.273682,504.444794 
	C337.122772,501.375885 338.136322,499.144836 341.094604,498.017120 
	C352.559723,493.646545 364.063354,489.376923 375.996399,484.903290 
	C377.062531,487.503815 378.034393,489.874390 379.195679,492.706940 
	C368.601685,496.743134 358.400177,500.629761 347.640869,504.728912 
	C348.844727,508.066956 349.947754,511.125458 351.181519,514.852966 
	C352.004395,517.182007 352.696594,518.842041 353.388824,520.502075 
	C353.599701,521.105835 353.810577,521.709595 354.174561,522.926575 
	C355.012146,525.193604 355.696655,526.847351 356.381134,528.501160 
z"/>
<path fill="#ECEBED" opacity="1.000000" stroke="none" 
	d="
M432.839752,134.410309 
	C437.086609,137.859375 441.333466,141.308441 445.956604,145.223938 
	C446.145508,146.429581 445.958130,147.168823 445.770721,147.908051 
	C445.404999,147.959366 445.159851,148.158859 444.713867,148.859497 
	C443.803589,150.092850 443.214752,150.973251 442.625885,151.853638 
	C441.311371,151.301086 439.806519,150.996094 438.713409,150.155594 
	C431.871216,144.894424 425.023529,139.631805 418.367920,134.139099 
	C411.855652,128.764664 411.356506,122.685959 416.641815,115.888512 
	C422.144653,108.811386 427.705200,101.778084 433.318726,94.788483 
	C436.851624,90.389565 438.194336,90.257347 442.730164,93.813622 
	C451.618530,100.782478 460.452240,107.821037 469.663818,115.260078 
	C470.045258,116.138321 470.071533,116.587227 470.097809,117.036133 
	C468.574707,118.716171 467.051575,120.396210 465.287292,122.342278 
	C462.052551,119.872589 458.942810,117.498337 455.379822,114.712448 
	C453.659149,113.441948 452.391754,112.583084 451.124359,111.724213 
	C450.593170,111.206169 450.061951,110.688126 449.149353,109.786629 
	C447.888428,108.838638 447.008942,108.274101 446.129425,107.709564 
	C443.903839,105.845161 441.678223,103.980766 438.953827,101.698540 
	C436.959259,104.133247 435.146729,106.345718 432.883820,108.965775 
	C428.976776,114.247803 425.520142,119.122246 421.935577,124.335503 
	C423.212769,126.100342 424.617859,127.526360 426.022919,128.952393 
	C426.738220,129.619659 427.453522,130.286926 428.593781,131.337341 
	C430.292419,132.617096 431.566071,133.513687 432.839752,134.410309 
z"/>
<path fill="#EBE9EC" opacity="1.000000" stroke="none" 
	d="
M389.946716,97.298004 
	C396.686340,91.807434 403.125854,86.561111 409.551422,81.297775 
	C415.590302,76.351212 415.583801,76.343285 423.496063,80.805687 
	C419.702209,83.990616 416.113068,87.059067 412.464630,90.055359 
	C404.118866,96.909340 395.825592,103.832367 387.314514,110.475586 
	C385.553558,111.850075 382.478607,113.256516 380.850647,112.590782 
	C379.304047,111.958336 378.086517,108.642815 378.054108,106.487083 
	C377.822205,91.065491 377.930237,75.638794 377.930237,60.313126 
	C384.614227,61.173203 385.501221,62.037533 385.550293,69.169235 
	C385.618530,79.088356 385.567474,89.008301 385.567474,100.116615 
	C387.847168,98.671562 388.743835,98.103195 389.946716,97.298004 
z"/>
<path fill="#200E0F" opacity="1.000000" stroke="none" 
	d="
M231.034698,226.755981 
	C230.575272,227.480789 230.115433,227.815567 229.354034,228.136032 
	C228.993561,225.503601 228.150574,224.027054 225.493347,226.026962 
	C219.717194,230.374344 214.070419,234.895859 208.239120,239.166428 
	C206.385162,240.524185 204.115067,241.313705 202.035385,242.363251 
	C201.026871,239.904251 199.246582,237.475571 199.148514,234.980789 
	C198.795532,226.002228 198.714783,216.987732 199.127625,208.014282 
	C199.353836,203.097763 197.090500,201.143738 192.893112,201.085907 
	C182.576874,200.943741 172.252213,200.979141 161.939087,201.251358 
	C157.649597,201.364594 154.919540,198.658035 156.394119,194.586777 
	C157.285721,192.125122 158.722778,189.791351 160.257355,187.645065 
	C165.255920,180.653992 170.400040,173.766663 175.512405,166.857376 
	C178.270584,163.129745 181.110077,159.462112 183.854568,155.724579 
	C186.604691,151.979401 190.593948,150.989883 194.831772,151.070816 
	C201.456863,151.197388 208.077286,151.981232 214.695953,151.936340 
	C225.761734,151.861313 236.827744,151.432831 247.887589,150.998825 
	C255.997726,150.680603 257.986847,152.437820 257.987335,160.495605 
	C257.988312,176.482178 257.991089,192.468765 257.984344,208.455338 
	C257.981110,216.153275 256.282104,217.754013 248.603729,219.052567 
	C243.613464,219.896515 238.711441,221.414536 233.890121,222.996872 
	C232.697998,223.388107 231.973648,225.204620 231.034698,226.755981 
M250.310593,215.997299 
	C254.765381,215.829803 256.125427,213.443878 256.064789,209.133698 
	C255.865585,194.979553 255.987671,180.820892 255.989136,166.663956 
	C255.990433,153.978378 255.990906,154.089371 243.317490,153.954193 
	C228.027252,153.791138 212.735306,153.120041 197.452942,153.325745 
	C193.281662,153.381882 188.362778,152.865433 185.246277,158.008514 
	C180.914215,165.157700 175.650009,171.744400 170.745361,178.543396 
	C167.649597,182.834839 164.130356,186.865173 161.436783,191.390991 
	C158.187805,196.850006 159.595993,198.965698 165.844482,198.988815 
	C175.504379,199.024567 185.166351,199.111450 194.823685,198.950348 
	C199.300980,198.875671 201.161758,200.654556 201.078232,205.164078 
	C200.911682,214.154816 200.945114,223.152023 201.080078,232.143814 
	C201.117828,234.658676 201.798981,237.163879 202.401154,241.078888 
	C216.148926,227.134720 231.361038,218.714844 250.310593,215.997299 
z"/>
<path fill="#ECEAED" opacity="1.000000" stroke="none" 
	d="
M231.579437,503.373016 
	C228.012878,502.369110 224.842377,501.481842 221.178238,500.456421 
	C221.867813,497.870789 222.491013,495.534058 223.326630,492.400848 
	C238.050079,496.251221 252.554672,500.044373 267.572266,503.971680 
	C266.779053,506.918121 266.119659,509.367462 265.386017,512.092529 
	C259.312836,510.572174 253.728363,509.174164 247.517075,507.619232 
	C244.240311,519.864807 241.046417,531.800598 237.730087,544.193909 
	C235.039307,543.605042 232.690048,543.090820 229.540390,542.401489 
	C232.740082,529.962769 235.856537,517.847656 239.031525,505.504944 
	C236.402649,504.754120 234.189056,504.121887 231.579437,503.373016 
z"/>
<path fill="#EDEBED" opacity="1.000000" stroke="none" 
	d="
M336.193817,53.717270 
	C333.892944,64.971786 331.667694,75.833199 329.324799,87.268890 
	C340.516907,89.709862 351.309021,92.063599 362.725189,94.553429 
	C362.186340,97.258682 361.692871,99.736198 361.093872,102.743538 
	C348.189850,100.024902 335.673492,97.540108 323.273651,94.568893 
	C321.841431,94.225708 319.869263,90.953636 320.158722,89.418869 
	C322.710175,75.891365 325.717285,62.449802 328.735535,48.298481 
	C331.664337,49.960022 336.771057,46.809345 336.193817,53.717270 
z"/>
<path fill="#EAE8EA" opacity="1.000000" stroke="none" 
	d="
M127.001740,112.943954 
	C135.998047,122.992004 144.742844,132.784012 153.891769,143.028519 
	C151.783173,144.901352 149.863892,146.606049 147.486099,148.717987 
	C138.995651,139.292374 130.704025,130.087463 122.186012,120.631256 
	C120.150146,122.138298 118.341568,123.477097 116.120316,125.121368 
	C114.409805,123.239548 112.770828,121.436417 110.625237,119.075943 
	C114.537102,115.545471 118.292938,112.155823 123.577591,107.386398 
	C124.721153,109.297295 125.735695,110.992592 127.001740,112.943954 
z"/>
<path fill="#E8E6E9" opacity="1.000000" stroke="none" 
	d="
M138.444305,471.446045 
	C143.926315,465.877075 149.157425,460.557281 154.694687,454.926178 
	C153.373138,453.324432 151.934250,451.580475 150.182236,449.456970 
	C152.031036,447.735992 153.893021,446.002747 156.132401,443.918182 
	C159.461517,447.595459 162.860901,451.350372 165.854431,454.656952 
	C155.570038,465.326447 144.933929,476.360809 134.140686,487.558197 
	C132.067810,485.551483 130.217712,483.760437 127.902954,481.519562 
	C131.513596,478.072449 134.853500,474.883820 138.444305,471.446045 
z"/>
<path fill="#2E0304" opacity="1.000000" stroke="none" 
	d="
M481.379639,432.981262 
	C482.408234,430.262299 483.446014,427.260803 485.214783,424.780548 
	C496.179565,409.405273 503.856689,392.468903 510.354340,374.805725 
	C516.576172,357.892303 520.252930,340.480774 522.839478,322.755035 
	C523.306702,319.552948 523.652771,316.333160 524.493469,313.418060 
	C524.955566,315.810516 524.979004,317.906464 525.002441,320.002441 
	C524.109375,335.089905 522.273682,349.938324 516.124756,364.023560 
	C514.066956,368.737183 513.311829,374.019928 511.968719,379.044525 
	C511.840759,379.523193 511.872131,380.071289 511.651703,380.494537 
	C505.287964,392.713501 498.990753,404.968506 492.472443,417.104736 
	C490.050018,421.614960 487.144714,425.870605 484.360992,430.178619 
	C483.682800,431.228119 482.615265,432.026031 481.379639,432.981262 
z"/>
<path fill="#E9E8EA" opacity="1.000000" stroke="none" 
	d="
M378.568115,513.468262 
	C371.272797,516.235413 364.329437,518.854614 356.945831,521.639832 
	C355.954620,519.271423 354.916870,516.791870 353.592010,513.626221 
	C362.205109,510.432983 370.546509,507.340515 379.575531,503.993103 
	C379.287720,507.657227 385.564514,510.626709 378.568115,513.468262 
z"/>
<path fill="#E7E5E8" opacity="1.000000" stroke="none" 
	d="
M294.984558,73.982559 
	C290.016235,73.986519 285.542023,73.986519 280.630219,73.986519 
	C280.630219,71.145142 280.630219,68.595329 280.630219,65.525345 
	C289.139099,65.525345 297.691833,65.525345 306.663391,65.525345 
	C306.663391,67.941338 306.663391,70.500450 306.663391,73.978592 
	C302.985168,73.978592 299.231903,73.978592 294.984558,73.982559 
z"/>
<path fill="#EBE9EC" opacity="1.000000" stroke="none" 
	d="
M292.990662,526.171753 
	C293.765411,524.894165 294.504028,523.390442 295.339020,523.334900 
	C303.228943,522.810120 311.135284,522.531921 319.447266,522.164551 
	C319.447266,525.123169 319.447266,527.665710 319.447266,530.665466 
	C310.805450,531.065430 302.291870,531.459534 293.412689,531.870483 
	C293.251556,529.822998 293.125397,528.220276 292.990662,526.171753 
z"/>
<path fill="#0C0002" opacity="1.000000" stroke="none" 
	d="
M525.367554,319.933533 
	C524.979004,317.906464 524.955566,315.810516 524.859741,313.261566 
	C524.803162,311.482330 524.818848,310.156067 525.158569,308.152893 
	C525.651794,300.802185 525.912903,294.128632 525.930115,287.454468 
	C525.934814,285.628754 525.207764,283.801208 524.816528,281.974487 
	C524.818909,280.647369 524.821289,279.320221 524.881592,277.129700 
	C524.773499,273.795532 524.762512,271.302673 524.414490,268.857849 
	C522.996643,258.897034 521.475647,248.950928 519.992676,238.999390 
	C520.739990,240.104279 521.767151,241.111938 522.190247,242.329483 
	C525.497925,251.848175 525.919373,261.848938 527.468079,271.680267 
	C529.410278,284.009369 528.571960,296.163910 528.818298,308.377686 
	C528.895142,312.184357 526.821716,316.034424 525.367554,319.933533 
z"/>
<path fill="#E9E6E9" opacity="1.000000" stroke="none" 
	d="
M451.179352,134.708527 
	C445.686462,130.757126 440.180389,126.823853 434.709442,122.842316 
	C433.233337,121.768082 431.863800,120.547440 430.264771,118.865753 
	C432.069702,116.432045 434.055237,114.526596 436.040771,112.621140 
	C441.661285,117.128311 447.180115,121.771729 452.950562,126.077965 
	C455.376373,127.888184 455.858032,129.338821 453.249146,131.968353 
	C452.284576,133.219849 451.731964,133.964188 451.179352,134.708527 
z"/>
<path fill="#2E0304" opacity="1.000000" stroke="none" 
	d="
M519.949707,238.637680 
	C521.475647,248.950928 522.996643,258.897034 524.414490,268.857849 
	C524.762512,271.302673 524.773499,273.795532 524.874146,276.731628 
	C523.879150,273.188538 522.620911,269.224365 522.075134,265.164398 
	C519.279663,244.368744 513.894043,224.302505 505.510651,205.066269 
	C502.631165,198.459137 499.491547,191.965424 497.008270,185.347427 
	C499.028351,187.517822 500.510895,189.760696 501.993469,192.003571 
	C502.163483,192.557068 502.333496,193.110565 502.781555,194.170151 
	C504.029205,196.122406 504.998840,197.568588 505.968506,199.014771 
	C508.319214,205.186203 510.739746,211.332321 512.991760,217.539581 
	C514.148560,220.728165 514.940308,224.047287 516.013733,227.268539 
	C517.243896,230.960190 518.603394,234.608704 519.949707,238.637680 
z"/>
<path fill="#2E0204" opacity="1.000000" stroke="none" 
	d="
M100.079178,432.886536 
	C102.337166,435.171173 104.620964,437.431030 106.843414,439.749725 
	C108.165504,441.129089 109.391167,442.600891 110.611305,443.976013 
	C117.159271,439.456512 117.110161,438.146484 112.946442,432.373291 
	C107.391212,424.670776 102.351257,416.596649 97.079025,408.320312 
	C98.075577,408.696228 99.369072,409.234344 100.045372,410.203278 
	C105.504211,418.023743 110.916092,425.879303 116.199127,433.819366 
	C119.341583,438.542267 116.375015,445.824188 110.809319,446.288330 
	C109.080025,446.432526 106.976067,443.888062 105.305092,442.299469 
	C104.170235,441.220581 103.490898,439.662628 102.267799,437.813965 
	C101.311562,435.834839 100.695374,434.360687 100.079178,432.886536 
z"/>
<path fill="#2E0204" opacity="1.000000" stroke="none" 
	d="
M74.886658,350.740723 
	C73.924759,349.370758 72.534714,347.656311 72.204315,345.757507 
	C70.749146,337.394745 69.599648,328.978851 68.590149,320.283630 
	C70.547226,327.978241 72.277336,335.966461 73.943703,343.967957 
	C74.379646,346.061249 74.617447,348.195770 74.886658,350.740723 
z"/>
<path fill="#0A0104" opacity="1.000000" stroke="none" 
	d="
M502.261047,191.765961 
	C500.510895,189.760696 499.028351,187.517822 497.229523,185.125519 
	C496.896362,184.575562 496.879456,184.175079 496.835724,183.476990 
	C494.892487,179.026749 492.976074,174.874115 491.011292,170.369904 
	C493.872864,172.910278 497.637604,175.352203 499.461243,178.816055 
	C501.429871,182.555359 501.583374,187.250290 502.261047,191.765961 
z"/>
<path fill="#1A181B" opacity="1.000000" stroke="none" 
	d="
M435.992432,112.334549 
	C434.055237,114.526596 432.069702,116.432045 429.985046,118.675880 
	C426.478027,117.591705 425.462311,120.163033 423.858398,122.804367 
	C423.003754,123.475243 422.533600,123.735954 422.063477,123.996674 
	C425.520142,119.122246 428.976776,114.247803 432.764282,109.293350 
	C434.044769,110.158218 434.994415,111.103088 435.992432,112.334549 
M429.417877,115.486336 
	C429.417877,115.486336 429.528137,115.421028 429.417877,115.486336 
z"/>
<path fill="#0A0104" opacity="1.000000" stroke="none" 
	d="
M505.621033,351.042969 
	C504.369019,356.347595 502.889465,361.746216 501.065491,367.025787 
	C500.342010,369.119965 498.854156,370.950043 497.367706,372.969849 
	C498.657959,367.516266 500.159973,361.947632 502.003815,356.494537 
	C502.661713,354.548737 504.147552,352.882904 505.621033,351.042969 
z"/>
<path fill="#0C0002" opacity="1.000000" stroke="none" 
	d="
M476.044403,176.360840 
	C478.213043,178.773865 480.604950,181.442032 482.566437,184.396027 
	C483.708740,186.116226 484.161438,188.294357 484.964630,190.631470 
	C482.032288,186.242966 479.059662,181.489456 476.044403,176.360840 
z"/>
<path fill="#0A0104" opacity="1.000000" stroke="none" 
	d="
M509.018188,267.358887 
	C509.878265,270.789246 510.727844,274.628418 511.308533,278.742615 
	C508.072510,275.681274 508.521179,271.727936 509.018188,267.358887 
z"/>
<path fill="#0A0104" opacity="1.000000" stroke="none" 
	d="
M496.641174,376.041809 
	C495.855743,378.863190 494.709564,381.727631 493.291992,384.801300 
	C491.999023,381.265350 492.317780,378.009674 496.641174,376.041809 
z"/>
<path fill="#2E0204" opacity="1.000000" stroke="none" 
	d="
M82.875961,375.779327 
	C81.350990,372.941040 79.881844,369.706268 78.652008,366.230438 
	C80.238136,369.120514 81.584961,372.251709 82.875961,375.779327 
z"/>
<path fill="#0A0104" opacity="1.000000" stroke="none" 
	d="
M473.655365,420.014893 
	C472.592682,422.318939 471.144562,424.615845 469.359680,426.978271 
	C470.576904,424.781891 467.099670,419.483215 473.655365,420.014893 
z"/>
<path fill="#0A0104" opacity="1.000000" stroke="none" 
	d="
M481.651184,408.037048 
	C480.511810,410.534088 479.023621,413.069397 477.264313,415.801971 
	C474.366425,411.148285 478.840912,410.159149 481.651184,408.037048 
z"/>
<path fill="#2E0204" opacity="1.000000" stroke="none" 
	d="
M89.872879,392.782043 
	C88.217308,390.361298 86.615517,387.547729 85.030411,384.357178 
	C86.673622,386.783203 88.300148,389.586182 89.872879,392.782043 
z"/>
<path fill="#2E0204" opacity="1.000000" stroke="none" 
	d="
M78.857529,363.781128 
	C77.367531,360.606750 75.901558,357.042725 74.681290,353.235840 
	C76.245186,356.459167 77.563370,359.925323 78.857529,363.781128 
z"/>
<path fill="#170002" opacity="1.000000" stroke="none" 
	d="
M90.054962,423.317505 
	C92.105232,424.292725 94.180733,425.615173 96.592941,426.981018 
	C96.982536,427.425385 97.035431,427.826416 97.060654,428.825684 
	C97.015465,429.621399 96.997948,429.818848 96.980438,430.016327 
	C94.680359,427.899139 92.380280,425.781952 90.054962,423.317505 
z"/>
<path fill="#170002" opacity="1.000000" stroke="none" 
	d="
M100.056961,432.667175 
	C100.695374,434.360687 101.311562,435.834839 101.963486,437.655701 
	C98.765205,437.189941 96.495018,435.603149 97.297752,431.515015 
	C98.385559,431.501068 99.179131,431.756104 99.972710,432.011169 
	C99.972710,432.011169 100.034737,432.447784 100.056961,432.667175 
z"/>
<path fill="#110E11" opacity="1.000000" stroke="none" 
	d="
M421.935577,124.335495 
	C422.533600,123.735954 423.003754,123.475243 423.717773,123.101318 
	C425.909058,124.244827 428.153503,125.369652 426.172424,128.628296 
	C424.617859,127.526360 423.212769,126.100342 421.935577,124.335495 
z"/>
<path fill="#171518" opacity="1.000000" stroke="none" 
	d="
M178.499557,480.023682 
	C178.596481,477.692078 179.505981,476.329498 182.038986,478.101654 
	C183.638992,479.221039 185.334900,480.203369 187.164993,481.547791 
	C184.526489,481.243835 181.710785,480.639252 178.499557,480.023682 
z"/>
<path fill="#0A0104" opacity="1.000000" stroke="none" 
	d="
M486.649170,399.044495 
	C485.876770,401.229034 484.742554,403.457733 483.303528,405.841980 
	C484.094971,403.694580 485.191132,401.391632 486.649170,399.044495 
z"/>
<path fill="#2E0204" opacity="1.000000" stroke="none" 
	d="
M67.593216,282.978485 
	C67.338326,280.909637 67.423378,278.719330 67.817703,276.274292 
	C68.062370,278.298706 67.997757,280.577850 67.593216,282.978485 
z"/>
<path fill="#2E0204" opacity="1.000000" stroke="none" 
	d="
M68.879456,315.744263 
	C68.235794,314.037476 67.656227,311.896484 67.156937,309.330322 
	C67.806007,311.040131 68.374779,313.175110 68.879456,315.744263 
z"/>
<path fill="#2E0204" opacity="1.000000" stroke="none" 
	d="
M94.841789,401.833313 
	C93.544136,400.695770 92.314278,399.179565 91.079872,397.309387 
	C92.353409,398.455170 93.631500,399.954926 94.841789,401.833313 
z"/>
<path fill="#170002" opacity="1.000000" stroke="none" 
	d="
M61.718269,354.234802 
	C62.646324,355.756134 63.314888,357.513153 63.982536,359.642273 
	C63.140671,358.166443 62.299721,356.318451 61.718269,354.234802 
z"/>
<path fill="#0A0104" opacity="1.000000" stroke="none" 
	d="
M506.214752,198.815948 
	C504.998840,197.568588 504.029205,196.122406 503.022003,194.341446 
	C504.143311,195.543488 505.302185,197.080292 506.214752,198.815948 
z"/>
<path fill="#504E51" opacity="1.000000" stroke="none" 
	d="
M353.524475,520.155396 
	C352.696594,518.842041 352.004395,517.182007 351.370850,515.178467 
	C352.173065,516.492920 352.916595,518.150818 353.524475,520.155396 
z"/>
<path fill="#504E51" opacity="1.000000" stroke="none" 
	d="
M356.537720,528.159668 
	C355.696655,526.847351 355.012146,525.193604 354.350769,523.193848 
	C355.147369,524.504639 355.920868,526.161438 356.537720,528.159668 
z"/>
<path fill="#110E11" opacity="1.000000" stroke="none" 
	d="
M432.877747,133.992035 
	C431.566071,133.513687 430.292419,132.617096 428.884521,131.412109 
	C430.138794,131.927078 431.527283,132.750427 432.877747,133.992035 
z"/>
<path fill="#0A0104" opacity="1.000000" stroke="none" 
	d="
M490.682251,390.047852 
	C490.515686,391.207703 490.024811,392.412567 489.270050,393.811157 
	C489.456757,392.700897 489.907379,391.396881 490.682251,390.047852 
z"/>
<path fill="#2E0204" opacity="1.000000" stroke="none" 
	d="
M84.863144,381.817505 
	C84.039558,380.917328 83.248032,379.665283 82.668907,378.201721 
	C83.552612,379.148682 84.223915,380.307159 84.863144,381.817505 
z"/>
<path fill="#0A0104" opacity="1.000000" stroke="none" 
	d="
M461.642639,436.006714 
	C460.894684,436.986084 459.781586,437.968506 458.340942,438.989563 
	C459.101440,438.022064 460.189453,437.015930 461.642639,436.006714 
z"/>
<path fill="#1A181B" opacity="1.000000" stroke="none" 
	d="
M451.122681,112.107437 
	C452.391754,112.583084 453.659149,113.441948 455.063995,114.603760 
	C453.841309,114.101349 452.481140,113.296005 451.122681,112.107437 
z"/>
<path fill="#2E0204" opacity="1.000000" stroke="none" 
	d="
M99.949081,431.674042 
	C99.179131,431.756104 98.385559,431.501068 97.301346,431.117645 
	C97.010712,430.989288 96.997307,430.502594 96.988869,430.259460 
	C96.997948,429.818848 97.015465,429.621399 97.080307,429.128540 
	C98.060242,429.667725 98.992851,430.502319 99.949081,431.674042 
z"/>
<path fill="#171518" opacity="1.000000" stroke="none" 
	d="
M177.006744,486.526978 
	C176.669159,485.545807 176.341705,484.083374 176.292236,482.421631 
	C176.719116,483.496826 176.867996,484.771271 177.006744,486.526978 
z"/>
<path fill="#1D0000" opacity="1.000000" stroke="none" 
	d="
M67.563118,293.043518 
	C67.197754,292.587921 67.146637,292.113220 67.179337,291.286896 
	C68.013000,291.187836 68.762840,291.440399 69.512680,291.692932 
	C68.967575,292.136780 68.422470,292.580597 67.563118,293.043518 
z"/>
<path fill="#110E11" opacity="1.000000" stroke="none" 
	d="
M446.111023,147.902435 
	C445.958130,147.168823 446.145508,146.429581 446.292603,145.306030 
	C446.318665,145.913422 446.384979,146.905121 446.111023,147.902435 
z"/>
<path fill="#200E0F" opacity="1.000000" stroke="none" 
	d="
M211.309235,240.975067 
	C210.945038,241.890244 210.239441,242.801117 209.252777,243.802612 
	C209.637070,242.919083 210.302444,241.944916 211.309235,240.975067 
z"/>
<path fill="#200E0F" opacity="1.000000" stroke="none" 
	d="
M360.792145,222.730560 
	C360.132660,223.122452 359.281738,223.267151 358.204346,223.262695 
	C358.852112,222.903473 359.726440,222.693436 360.792145,222.730560 
z"/>
<path fill="#2E0204" opacity="1.000000" stroke="none" 
	d="
M96.928497,406.759216 
	C96.290779,406.291718 95.658386,405.494080 95.026169,404.347565 
	C95.662170,404.808807 96.297997,405.618927 96.928497,406.759216 
z"/>
<path fill="#110E11" opacity="1.000000" stroke="none" 
	d="
M451.505737,134.812683 
	C451.731964,133.964188 452.284576,133.219849 453.137634,132.298279 
	C452.902740,133.052963 452.367462,133.984909 451.505737,134.812683 
z"/>
<path fill="#110E11" opacity="1.000000" stroke="none" 
	d="
M442.998596,151.862549 
	C443.214752,150.973251 443.803589,150.092850 444.696320,149.106506 
	C444.457245,149.957535 443.914276,150.914490 442.998596,151.862549 
z"/>
<path fill="#0C0002" opacity="1.000000" stroke="none" 
	d="
M485.029419,191.316483 
	C485.667358,191.762344 486.331055,192.529556 486.997986,193.649841 
	C486.352539,193.214569 485.703888,192.426193 485.029419,191.316483 
z"/>
<path fill="#200E0F" opacity="1.000000" stroke="none" 
	d="
M363.141907,201.015442 
	C363.990723,201.256088 364.826477,201.855606 365.742950,202.764893 
	C364.925415,202.507889 364.027130,201.941101 363.141907,201.015442 
z"/>
<path fill="#200E0F" opacity="1.000000" stroke="none" 
	d="
M365.924438,203.500885 
	C366.559967,203.920593 367.192993,204.663254 367.773865,205.708664 
	C367.121796,205.282211 366.521881,204.553040 365.924438,203.500885 
z"/>
<path fill="#200E0F" opacity="1.000000" stroke="none" 
	d="
M368.245789,214.085968 
	C368.317322,215.030197 368.051453,216.080231 367.490448,217.296906 
	C367.433014,216.372925 367.670685,215.282349 368.245789,214.085968 
z"/>
<path fill="#0A0104" opacity="1.000000" stroke="none" 
	d="
M457.650452,440.056519 
	C457.524231,440.907715 457.055359,441.817932 456.300476,442.877136 
	C456.445618,442.055908 456.876709,441.085724 457.650452,440.056519 
z"/>
<path fill="#1A181B" opacity="1.000000" stroke="none" 
	d="
M446.128418,108.075760 
	C447.008942,108.274101 447.888428,108.838638 448.878723,109.703819 
	C448.035431,109.483627 447.081421,108.962791 446.128418,108.075760 
z"/>
<path fill="#1C1A1D" opacity="1.000000" stroke="none" 
	d="
M199.162415,505.894257 
	C198.710617,505.515015 198.495422,505.008484 198.349167,504.227051 
	C198.745102,504.557098 199.072067,505.162018 199.162415,505.894257 
z"/>
<path fill="#1C1A1D" opacity="1.000000" stroke="none" 
	d="
M198.764404,511.003235 
	C198.522980,510.502258 198.543365,509.951263 198.759491,509.194183 
	C198.978897,509.643127 199.002563,510.298218 198.764404,511.003235 
z"/>
<path fill="#1A181B" opacity="1.000000" stroke="none" 
	d="
M470.395935,117.004982 
	C470.071533,116.587227 470.045258,116.138321 469.988403,115.353516 
	C470.203217,115.669685 470.448639,116.321754 470.395935,117.004982 
z"/>
<path fill="#110E11" opacity="1.000000" stroke="none" 
	d="
M431.361176,124.243103 
	C431.375763,124.006859 431.503754,123.878136 431.631714,123.749405 
	C431.579346,123.949814 431.526947,124.150223 431.361176,124.243103 
z"/>
<path fill="#110E11" opacity="1.000000" stroke="none" 
	d="
M446.528381,137.544586 
	C446.478485,137.573181 446.578278,137.515976 446.528381,137.544586 
z"/>
<path fill="#2E0304" opacity="1.000000" stroke="none" 
	d="
M524.563599,282.300171 
	C525.207764,283.801208 525.934814,285.628754 525.930115,287.454468 
	C525.912903,294.128632 525.651794,300.802185 525.152710,307.751465 
	C524.652100,299.559937 524.481323,291.092896 524.563599,282.300171 
z"/>
<path fill="#810103" opacity="1.000000" stroke="none" 
	d="
M351.000000,283.986572 
	C366.314301,283.985413 381.129364,284.071411 395.942474,283.938538 
	C401.564819,283.888123 407.180084,283.222321 412.804443,283.093658 
	C414.086578,283.064331 416.025970,283.776642 416.510834,284.732178 
	C416.998840,285.693787 416.416504,287.634216 415.675049,288.714722 
	C409.965088,297.035614 403.948303,305.149231 398.363922,313.551270 
	C396.167419,316.856049 393.690674,318.095367 389.753479,318.082733 
	C351.969116,317.961273 314.184204,318.016785 276.399445,318.010803 
	C269.602661,318.009735 268.903015,317.384888 269.027069,310.559326 
	C269.162567,303.103668 269.480804,295.650513 269.789856,288.199219 
	C269.936798,284.655243 272.389648,283.972473 275.336670,283.981049 
	C281.248993,283.998291 287.161407,283.984619 293.073792,283.984711 
	C301.562866,283.984863 310.051971,283.986206 318.541046,283.986481 
	C329.194031,283.986816 339.847015,283.986572 351.000000,283.986572 
z"/>
<path fill="#62090C" opacity="1.000000" stroke="none" 
	d="
M249.889038,216.008286 
	C231.361038,218.714844 216.148926,227.134720 202.401154,241.078888 
	C201.798981,237.163879 201.117828,234.658676 201.080078,232.143814 
	C200.945114,223.152023 200.911682,214.154816 201.078232,205.164078 
	C201.161758,200.654556 199.300980,198.875671 194.823685,198.950348 
	C185.166351,199.111450 175.504379,199.024567 165.844482,198.988815 
	C159.595993,198.965698 158.187805,196.850006 161.436783,191.390991 
	C164.130356,186.865173 167.649597,182.834839 170.745361,178.543396 
	C175.650009,171.744400 180.914215,165.157700 185.246277,158.008514 
	C188.362778,152.865433 193.281662,153.381882 197.452942,153.325745 
	C212.735306,153.120041 228.027252,153.791138 243.317490,153.954193 
	C255.990906,154.089371 255.990433,153.978378 255.989136,166.663956 
	C255.987671,180.820892 255.865585,194.979553 256.064789,209.133698 
	C256.125427,213.443878 254.765381,215.829803 249.889038,216.008286 
M214.723526,226.139984 
	C218.139557,224.146912 221.349991,221.568878 225.013931,220.281113 
	C232.922592,217.501450 241.119034,215.546753 249.064346,212.860062 
	C250.673248,212.315979 252.788132,210.049713 252.815247,208.544022 
	C253.088120,193.386169 253.080734,178.220062 252.893982,163.059448 
	C252.847336,159.272491 251.261429,156.754333 246.426910,156.877548 
	C233.438431,157.208649 220.435989,156.990875 207.439102,156.995880 
	C202.191422,156.997910 196.919083,156.728622 191.709961,157.181290 
	C189.974472,157.332077 187.979111,159.034058 186.837311,160.572311 
	C184.076630,164.291580 181.849762,168.401428 179.224823,172.228378 
	C174.208130,179.542389 169.064117,186.769058 163.263626,195.043869 
	C166.754013,195.808853 169.366821,196.877991 171.971817,196.859283 
	C179.764542,196.803375 187.551758,196.196945 195.345810,196.044312 
	C201.989868,195.914215 203.969177,198.006622 203.992493,204.622650 
	C204.020081,212.454025 203.944595,220.286514 204.073303,228.115906 
	C204.092529,229.286011 204.694916,230.985535 205.556396,231.441925 
	C206.324280,231.848770 207.966888,231.097244 208.970383,230.459000 
	C210.782242,229.306671 212.405243,227.857376 214.723526,226.139984 
z"/>
<path fill="#110E11" opacity="1.000000" stroke="none" 
	d="
M429.473022,115.453682 
	C429.528137,115.421028 429.417877,115.486336 429.473022,115.453682 
z"/>
<path fill="#810103" opacity="1.000000" stroke="none" 
	d="
M214.415314,226.336029 
	C212.405243,227.857376 210.782242,229.306671 208.970383,230.459000 
	C207.966888,231.097244 206.324280,231.848770 205.556396,231.441925 
	C204.694916,230.985535 204.092529,229.286011 204.073303,228.115906 
	C203.944595,220.286514 204.020081,212.454025 203.992493,204.622650 
	C203.969177,198.006622 201.989868,195.914215 195.345810,196.044312 
	C187.551758,196.196945 179.764542,196.803375 171.971817,196.859283 
	C169.366821,196.877991 166.754013,195.808853 163.263626,195.043869 
	C169.064117,186.769058 174.208130,179.542389 179.224823,172.228378 
	C181.849762,168.401428 184.076630,164.291580 186.837311,160.572311 
	C187.979111,159.034058 189.974472,157.332077 191.709961,157.181290 
	C196.919083,156.728622 202.191422,156.997910 207.439102,156.995880 
	C220.435989,156.990875 233.438431,157.208649 246.426910,156.877548 
	C251.261429,156.754333 252.847336,159.272491 252.893982,163.059448 
	C253.080734,178.220062 253.088120,193.386169 252.815247,208.544022 
	C252.788132,210.049713 250.673248,212.315979 249.064346,212.860062 
	C241.119034,215.546753 232.922592,217.501450 225.013931,220.281113 
	C221.349991,221.568878 218.139557,224.146912 214.415314,226.336029 
z"/>
</svg>